<?xml version="1.0" encoding="UTF-8"?>
<svg width="9px" height="8px" viewBox="0 0 9 8" version="1.1" xmlns="http://www.w3.org/2000/svg" xmlns:xlink="http://www.w3.org/1999/xlink">
    <!-- Generator: Sketch 60 (88103) - https://sketch.com -->
    <title>Combined Shape Copy 4</title>
    <desc>Created with Sketch.</desc>
    <g id="Splash-Page" stroke="none" stroke-width="1" fill="none" fill-rule="evenodd">
        <g id="Desktop-HD-Copy" transform="translate(-134.000000, -741.000000)" fill="#EBBD42">
            <path d="M139.707107,741.292893 L142.535534,744.12132 C142.898164,744.48395 142.924066,745.055795 142.61324,745.448313 L142.535534,745.535534 L139.707107,748.363961 C139.316582,748.754485 138.683418,748.754485 138.292893,748.363961 C137.902369,747.973437 137.902369,747.340272 138.292893,746.949747 L139.414,745.828 L135,745.828427 C134.447715,745.828427 134,745.380712 134,744.828427 C134,744.276142 134.447715,743.828427 135,743.828427 L139.414,743.828 L138.292893,742.707107 C137.902369,742.316582 137.902369,741.683418 138.292893,741.292893 C138.683418,740.902369 139.316582,740.902369 139.707107,741.292893 Z" id="Combined-Shape-Copy-4"></path>
        </g>
    </g>
</svg>