<?xml version="1.0" encoding="UTF-8"?>
<svg width="16px" height="16px" viewBox="0 0 16 16" version="1.1" xmlns="http://www.w3.org/2000/svg" xmlns:xlink="http://www.w3.org/1999/xlink">
    <!-- Generator: Sketch 64 (93537) - https://sketch.com -->
    <title>Combined Shape</title>
    <desc>Created with Sketch.</desc>
    <g id="Page-1" stroke="none" stroke-width="1" fill="none" fill-rule="evenodd">
        <g id="Desktop-HD" transform="translate(-585.000000, -4420.000000)" fill="#1A2C3D" fill-rule="nonzero">
            <g id="Group-9" transform="translate(585.000000, 4413.000000)">
                <path d="M8,7 C12.418278,7 16,10.581722 16,15 C16,19.418278 12.418278,23 8,23 C3.581722,23 0,19.418278 0,15 C0,10.581722 3.581722,7 8,7 Z M8,9 C4.6862915,9 2,11.6862915 2,15 C2,18.3137085 4.6862915,21 8,21 C11.3137085,21 14,18.3137085 14,15 C14,11.6862915 11.3137085,9 8,9 Z M8.42480469,11 C8.87141927,11 9.28499349,11.0683594 9.66552734,11.2050781 C10.0460612,11.3417969 10.3741862,11.5332031 10.6499023,11.7792969 C10.9256185,12.0253906 11.1398112,12.3193359 11.2924805,12.6611328 C11.4451497,13.0029297 11.5192057,13.3766276 11.5146484,13.7822266 L11.5146484,13.7822266 L9.96972656,13.7822266 C9.97428385,13.5817057 9.93896484,13.3925781 9.86376953,13.2148438 C9.78857422,13.0371094 9.68033854,12.8821615 9.5390625,12.75 C9.39778646,12.6178385 9.23144531,12.5130208 9.04003906,12.4355469 C8.84863281,12.3580729 8.6389974,12.3193359 8.41113281,12.3193359 C8.06933594,12.3193359 7.78450521,12.3888346 7.55664063,12.527832 C7.32877604,12.6668294 7.14648438,12.8491211 7.00976563,13.074707 C6.87304688,13.300293 6.77620443,13.5566406 6.71923828,13.84375 C6.66227214,14.1308594 6.63378906,14.422526 6.63378906,14.71875 L6.63378906,14.71875 L6.63378906,14.9648438 C6.63378906,15.265625 6.66227214,15.5595703 6.71923828,15.8466797 C6.77620443,16.1337891 6.87304688,16.3901367 7.00976563,16.6157227 C7.14648438,16.8413086 7.32877604,17.0236003 7.55664063,17.1625977 C7.78450521,17.3015951 8.07161458,17.3710938 8.41796875,17.3710938 C8.61848958,17.3710938 8.8133138,17.3391927 9.00244141,17.2753906 C9.19156901,17.2115885 9.35904948,17.1227214 9.50488281,17.0087891 C9.65071615,16.8948568 9.76578776,16.7604167 9.85009766,16.6054688 C9.93440755,16.4505208 9.97428385,16.281901 9.96972656,16.0996094 L9.96972656,16.0996094 L11.5146484,16.0996094 C11.5192057,16.4550781 11.4383138,16.7888997 11.2719727,17.1010742 C11.1056315,17.4132487 10.8800456,17.6855469 10.5952148,17.9179688 C10.3103841,18.1503906 9.98111979,18.3349609 9.60742188,18.4716797 C9.23372396,18.6083984 8.84179688,18.6767578 8.43164063,18.6767578 C7.86197917,18.6767578 7.36295573,18.578776 6.93457031,18.3828125 C6.5061849,18.186849 6.1484375,17.9191081 5.86132813,17.5795898 C5.57421875,17.2400716 5.35888672,16.8458659 5.21533203,16.3969727 C5.07177734,15.9480794 5,15.4707031 5,14.9648438 L5,14.9648438 L5,14.71875 C5,14.2128906 5.07177734,13.734375 5.21533203,13.2832031 C5.35888672,12.8320312 5.57421875,12.4378255 5.86132813,12.1005859 C6.1484375,11.7633464 6.5061849,11.4956055 6.93457031,11.2973633 C7.36295573,11.0991211 7.85970052,11 8.42480469,11 Z" id="Combined-Shape"></path>
            </g>
        </g>
    </g>
</svg>