<?xml version="1.0" encoding="UTF-8"?>
<svg width="16px" height="16px" viewBox="0 0 16 16" version="1.1" xmlns="http://www.w3.org/2000/svg" xmlns:xlink="http://www.w3.org/1999/xlink">
    <!-- Generator: Sketch 61.2 (89653) - https://sketch.com -->
    <title>Combined Shape</title>
    <desc>Created with Sketch.</desc>
    <g id="Home" stroke="none" stroke-width="1" fill="none" fill-rule="evenodd">
        <g id="Artboard-Copy-43" transform="translate(-406.000000, -7075.000000)" fill="#494644" fill-rule="nonzero">
            <path d="M414,7075 C418.418278,7075 422,7078.58172 422,7083 C422,7087.41828 418.418278,7091 414,7091 C409.581722,7091 406,7087.41828 406,7083 C406,7078.58172 409.581722,7075 414,7075 Z M414,7077 C410.686292,7077 408,7079.68629 408,7083 C408,7086.31371 410.686292,7089 414,7089 C417.313708,7089 420,7086.31371 420,7083 C420,7079.68629 417.313708,7077 414,7077 Z M414.424805,7079 C414.871419,7079 415.284993,7079.06836 415.665527,7079.20508 C416.046061,7079.3418 416.374186,7079.5332 416.649902,7079.7793 C416.925618,7080.02539 417.139811,7080.31934 417.29248,7080.66113 C417.44515,7081.00293 417.519206,7081.37663 417.514648,7081.78223 L417.514648,7081.78223 L415.969727,7081.78223 C415.974284,7081.58171 415.938965,7081.39258 415.86377,7081.21484 C415.788574,7081.03711 415.680339,7080.88216 415.539062,7080.75 C415.397786,7080.61784 415.231445,7080.51302 415.040039,7080.43555 C414.848633,7080.35807 414.638997,7080.31934 414.411133,7080.31934 C414.069336,7080.31934 413.784505,7080.38883 413.556641,7080.52783 C413.328776,7080.66683 413.146484,7080.84912 413.009766,7081.07471 C412.873047,7081.30029 412.776204,7081.55664 412.719238,7081.84375 C412.662272,7082.13086 412.633789,7082.42253 412.633789,7082.71875 L412.633789,7082.71875 L412.633789,7082.96484 C412.633789,7083.26562 412.662272,7083.55957 412.719238,7083.84668 C412.776204,7084.13379 412.873047,7084.39014 413.009766,7084.61572 C413.146484,7084.84131 413.328776,7085.0236 413.556641,7085.1626 C413.784505,7085.3016 414.071615,7085.37109 414.417969,7085.37109 C414.61849,7085.37109 414.813314,7085.33919 415.002441,7085.27539 C415.191569,7085.21159 415.359049,7085.12272 415.504883,7085.00879 C415.650716,7084.89486 415.765788,7084.76042 415.850098,7084.60547 C415.934408,7084.45052 415.974284,7084.2819 415.969727,7084.09961 L415.969727,7084.09961 L417.514648,7084.09961 C417.519206,7084.45508 417.438314,7084.7889 417.271973,7085.10107 C417.105632,7085.41325 416.880046,7085.68555 416.595215,7085.91797 C416.310384,7086.15039 415.98112,7086.33496 415.607422,7086.47168 C415.233724,7086.6084 414.841797,7086.67676 414.431641,7086.67676 C413.861979,7086.67676 413.362956,7086.57878 412.93457,7086.38281 C412.506185,7086.18685 412.148438,7085.91911 411.861328,7085.57959 C411.574219,7085.24007 411.358887,7084.84587 411.215332,7084.39697 C411.071777,7083.94808 411,7083.4707 411,7082.96484 L411,7082.96484 L411,7082.71875 C411,7082.21289 411.071777,7081.73438 411.215332,7081.2832 C411.358887,7080.83203 411.574219,7080.43783 411.861328,7080.10059 C412.148438,7079.76335 412.506185,7079.49561 412.93457,7079.29736 C413.362956,7079.09912 413.859701,7079 414.424805,7079 Z" id="Combined-Shape"></path>
        </g>
    </g>
</svg>