<svg width="20" height="20" viewBox="0 0 20 20" fill="none" xmlns="http://www.w3.org/2000/svg">
<path fill-rule="evenodd" clip-rule="evenodd" d="M14 3H6C4.34315 3 3 4.34315 3 6V14C3 15.6569 4.34315 17 6 17H14C15.6569 17 17 15.6569 17 14V6C17 4.34315 15.6569 3 14 3ZM6 0C2.68629 0 0 2.68629 0 6V14C0 17.3137 2.68629 20 6 20H14C17.3137 20 20 17.3137 20 14V6C20 2.68629 17.3137 0 14 0H6ZM10 8C8.89543 8 8 8.89543 8 10C8 11.1046 8.89543 12 10 12C11.1046 12 12 11.1046 12 10C12 8.89543 11.1046 8 10 8ZM6 10C6 7.79086 7.79086 6 10 6C12.2091 6 14 7.79086 14 10C14 12.2091 12.2091 14 10 14C7.79086 14 6 12.2091 6 10ZM14.5 6.5C15.0523 6.5 15.5 6.05228 15.5 5.5C15.5 4.94772 15.0523 4.5 14.5 4.5C13.9477 4.5 13.5 4.94772 13.5 5.5C13.5 6.05228 13.9477 6.5 14.5 6.5Z" fill="#7D859E"/>
</svg>
