<?xml version="1.0" encoding="UTF-8"?>
<svg width="38px" height="30px" viewBox="0 0 38 30" version="1.1" xmlns="http://www.w3.org/2000/svg" xmlns:xlink="http://www.w3.org/1999/xlink">
    <!-- Generator: Sketch 64 (93537) - https://sketch.com -->
    <title>laptop</title>
    <desc>Created with Sketch.</desc>
    <g id="Page-1" stroke="none" stroke-width="1" fill="none" fill-rule="evenodd">
        <g id="Artboard" transform="translate(-255.000000, -486.000000)">
            <g id="Group-2" transform="translate(195.000000, 460.000000)">
                <g id="Group">
                    <g id="Group-Copy-2">
                        <g id="laptop" transform="translate(63.000000, 29.000000)">
                            <path d="M30,-1.5 L2,-1.5 C1.03350169,-1.5 0.158501688,-1.10824916 -0.474873734,-0.474873734 C-1.10824916,0.158501688 -1.5,1.03350169 -1.5,2 L-1.5,19.5 L33.5,19.5 L33.5,2 C33.5,1.03350169 33.1082492,0.158501688 32.4748737,-0.474873734 C31.8414983,-1.10824916 30.9664983,-1.5 30,-1.5 Z" id="Rectangle" stroke="#1A2C3D" stroke-width="3" fill="#DFE8EF"></path>
                            <rect id="Rectangle" fill="#FFFFFF" transform="translate(12.000000, 13.500000) rotate(10.000000) translate(-12.000000, -13.500000) " x="7" y="12" width="10" height="3" rx="1"></rect>
                            <path d="M22.513897,5 L25.486103,5 C25.8153325,5 26.1312687,5.12988696 26.3652976,5.36145233 L28.186354,7.16333977 C28.6468376,7.61897614 28.6829261,8.35091232 28.2694978,8.84963737 L24.9623383,12.8391161 C24.5217532,13.3706009 23.7337349,13.4442896 23.2022501,13.0037045 C23.1423876,12.9540802 23.0872859,12.8989786 23.0376617,12.8391161 L19.7305022,8.84963737 C19.3170739,8.35091232 19.3531624,7.61897614 19.813646,7.16333977 L21.6347024,5.36145233 C21.8687313,5.12988696 22.1846675,5 22.513897,5 Z" id="Rectangle-Copy-51" fill="#EA4444" transform="translate(24.000000, 9.500000) rotate(20.000000) translate(-24.000000, -9.500000) "></path>
                            <circle id="Oval" fill="#FFC324" cx="12" cy="5" r="3"></circle>
                            <path d="M33.5,19.5 L-1.5,19.5 L-1.5,23 C-1.5,23.6903559 -1.22017797,24.3153559 -0.767766953,24.767767 C-0.315355937,25.220178 0.309644063,25.5 1,25.5 L31,25.5 C31.6903559,25.5 32.3153559,25.220178 32.767767,24.767767 C33.220178,24.3153559 33.5,23.6903559 33.5,23 L33.5,19.5 Z" id="Rectangle-Copy-3" stroke="#1A2C3D" stroke-width="3" fill="#B4C6D3"></path>
                            <path d="M12.187,21 L15,24 L1,24 C0.44771525,24 6.76353751e-17,23.5522847 0,23 L0,21 L12.187,21 Z M0,8 L9.375,18 L0,18 L0,8 Z" id="Combined-Shape" fill="#859DB4"></path>
                        </g>
                    </g>
                </g>
            </g>
        </g>
    </g>
</svg>