<?xml version="1.0" encoding="UTF-8"?>
<svg width="80px" height="80px" viewBox="0 0 80 80" version="1.1" xmlns="http://www.w3.org/2000/svg" xmlns:xlink="http://www.w3.org/1999/xlink">
    <!-- Generator: Sketch 64 (93537) - https://sketch.com -->
    <title>Combined Shape</title>
    <desc>Created with Sketch.</desc>
    <g id="Page-1" stroke="none" stroke-width="1" fill="none" fill-rule="evenodd">
        <g id="r" transform="translate(-687.000000, -229.000000)" fill="#859DB4" fill-rule="nonzero">
            <path d="M720.946667,229.862222 L726.644444,233.142222 C726.866667,233.275556 727.151111,233.275556 727.373333,233.142222 L733.071111,229.862222 C735.968889,228.191111 739.684444,229.195556 741.355556,232.093333 L744.644444,237.8 C744.777778,238.022222 745.017778,238.164444 745.275556,238.164444 L751.808889,238.164444 C755.151111,238.164444 757.871111,240.884444 757.871111,244.226667 L757.871111,250.76 C757.871111,251.017778 758.013333,251.266667 758.235556,251.391111 L763.951111,254.68 C766.848889,256.351111 767.844444,260.066667 766.182222,262.964444 L762.902222,268.662222 C762.787937,268.852698 762.77161,269.088889 762.853243,269.292426 L762.902222,269.391111 L766.182222,275.088889 C767.853333,277.986667 766.848889,281.702222 763.951111,283.373333 L758.235556,286.662222 C758.013333,286.795556 757.871111,287.035556 757.871111,287.293333 L757.871111,293.826667 C757.871111,297.168889 755.151111,299.888889 751.808889,299.888889 L745.275556,299.888889 C745.017778,299.888889 744.768889,300.031111 744.644444,300.253333 L741.355556,305.968889 C740.546667,307.373333 739.24,308.377778 737.675556,308.795556 C737.142222,308.928889 736.608889,308.991111 736.084444,308.991111 C735.035556,308.991111 733.995556,308.715556 733.062222,308.182222 L727.364444,304.902222 C727.142222,304.768889 726.857778,304.768889 726.635556,304.902222 L720.937778,308.182222 C719.986667,308.733333 718.946667,308.991111 717.924444,308.991111 C715.826667,308.991111 713.782222,307.897778 712.662222,305.96 L709.373333,300.253333 C709.24,300.031111 709,299.888889 708.742222,299.888889 L702.208889,299.888889 C698.866667,299.888889 696.146667,297.168889 696.146667,293.826667 L696.146667,287.293333 C696.146667,287.035556 696.004444,286.786667 695.782222,286.662222 L690.066667,283.373333 C688.662222,282.564444 687.657778,281.257778 687.24,279.693333 C686.822222,278.128889 687.035556,276.493333 687.844444,275.088889 L691.124444,269.391111 C691.257778,269.168889 691.257778,268.884444 691.124444,268.662222 L687.844444,262.964444 C686.173333,260.066667 687.177778,256.351111 690.075556,254.68 L695.782222,251.391111 C696.004444,251.257778 696.146667,251.017778 696.146667,250.76 L696.146667,244.226667 C696.146667,240.884444 698.866667,238.164444 702.208889,238.164444 L708.742222,238.164444 C709,238.164444 709.248889,238.022222 709.373333,237.8 L712.662222,232.084444 C713.471111,230.68 714.777778,229.675556 716.342222,229.257778 C717.906667,228.84 719.542222,229.053333 720.946667,229.862222 Z M735.728889,234.448889 L730.031111,237.728889 C728.164444,238.804444 725.844444,238.804444 723.977778,237.728889 L718.28,234.448889 C718.066667,234.324444 717.853333,234.342222 717.72,234.377778 C717.586667,234.413333 717.4,234.502222 717.275556,234.715556 L713.986667,240.431111 C712.911111,242.306667 710.893333,243.471111 708.733333,243.471111 L702.2,243.471111 C701.8,243.471111 701.471111,243.8 701.471111,244.2 L701.471111,250.733333 C701.471111,252.893333 700.306667,254.911111 698.431111,255.986667 L692.724444,259.275556 C692.377778,259.48 692.253333,259.924444 692.457778,260.28 L695.737778,265.977778 C696.813333,267.844444 696.813333,270.164444 695.737778,272.031111 L692.457778,277.728889 C692.333333,277.942222 692.351111,278.155556 692.386667,278.288889 C692.422222,278.422222 692.511111,278.608889 692.724444,278.733333 L698.44,282.022222 C700.315556,283.097778 701.48,285.115556 701.48,287.275556 L701.48,293.808889 C701.48,294.208889 701.808889,294.537778 702.208889,294.537778 L708.742222,294.537778 C710.902222,294.537778 712.92,295.702222 713.995556,297.577778 L717.284444,303.284444 C717.488889,303.631111 717.933333,303.755556 718.288889,303.551111 L723.986667,300.271111 C724.902222,299.737778 725.951111,299.471111 727,299.471111 C728.048889,299.471111 729.097778,299.737778 730.031111,300.28 L735.728889,303.56 C735.942222,303.684444 736.155556,303.666667 736.288889,303.631111 C736.422222,303.595556 736.608889,303.506667 736.733333,303.293333 L740.022222,297.577778 C741.097778,295.702222 743.115556,294.537778 745.275556,294.537778 L751.808889,294.537778 C752.208889,294.537778 752.537778,294.208889 752.537778,293.808889 L752.537778,287.275556 C752.537778,285.115556 753.702222,283.097778 755.577778,282.022222 L761.293333,278.733333 C761.64,278.528889 761.764444,278.084444 761.56,277.728889 L758.28,272.022222 C757.204444,270.155556 757.204444,267.835556 758.28,265.968889 L761.56,260.271111 C761.764444,259.924444 761.64,259.471111 761.293333,259.266667 L755.577778,255.977778 C753.702222,254.902222 752.537778,252.884444 752.537778,250.724444 L752.537778,244.191111 C752.537778,243.791111 752.208889,243.462222 751.808889,243.462222 L745.275556,243.462222 C743.115556,243.462222 741.097778,242.297778 740.022222,240.422222 L736.733333,234.715556 C736.528889,234.368889 736.084444,234.244444 735.728889,234.448889 Z M742.688889,273.417778 C745.791111,276.52 745.791111,281.568889 742.688889,284.671111 C741.133333,286.217778 739.097778,287 737.062222,287 C735.026667,287 732.991111,286.226667 731.435556,284.671111 C728.333333,281.568889 728.333333,276.52 731.435556,273.417778 C734.537778,270.315556 739.586667,270.315556 742.688889,273.417778 Z M738.369626,253.85745 L742.140826,257.62865 L715.623004,284.146471 L711.851804,280.375271 L738.369626,253.85745 Z M737.062222,276.422222 C736.386667,276.422222 735.72,276.68 735.204444,277.186667 C734.182222,278.208889 734.182222,279.871111 735.204444,280.893333 C736.226667,281.915556 737.888889,281.915556 738.911111,280.893333 C739.933333,279.871111 739.933333,278.208889 738.911111,277.186667 C738.404444,276.68 737.737778,276.422222 737.062222,276.422222 Z M716.946667,250.991111 C719.071111,250.991111 721.071111,251.817778 722.573333,253.32 C725.675556,256.422222 725.675556,261.471111 722.573333,264.573333 C721.017778,266.12 718.982222,266.902222 716.946667,266.902222 C714.911111,266.902222 712.875556,266.128889 711.32,264.573333 C708.217778,261.471111 708.217778,256.422222 711.32,253.32 C712.822222,251.817778 714.822222,250.991111 716.946667,250.991111 Z M716.946667,256.324444 C716.244444,256.324444 715.586667,256.6 715.088889,257.088889 C714.066667,258.111111 714.066667,259.773333 715.088889,260.795556 C716.111111,261.817778 717.773333,261.817778 718.795556,260.795556 C719.817778,259.773333 719.817778,258.111111 718.795556,257.088889 C718.306667,256.6 717.648889,256.324444 716.946667,256.324444 Z" id="Combined-Shape"></path>
        </g>
    </g>
</svg>