<?xml version="1.0" encoding="UTF-8"?>
<svg width="200px" height="200px" viewBox="0 0 200 200" version="1.1" xmlns="http://www.w3.org/2000/svg" xmlns:xlink="http://www.w3.org/1999/xlink">
    <!-- Generator: Sketch 64 (93537) - https://sketch.com -->
    <title>planet</title>
    <desc>Created with Sketch.</desc>
    <defs>
        <circle id="path-1" cx="100" cy="100" r="100"></circle>
    </defs>
    <g id="Page-1" stroke="none" stroke-width="1" fill="none" fill-rule="evenodd">
        <g id="Desktop-HD" transform="translate(-620.000000, -80.000000)">
            <g id="Group-2" transform="translate(541.000000, 80.000000)">
                <g id="Group" transform="translate(45.000000, 0.000000)">
                    <g id="planet" transform="translate(34.000000, 0.000000)">
                        <mask id="mask-2" fill="white">
                            <use xlink:href="#path-1"></use>
                        </mask>
                        <use id="blue" fill="#24619F" xlink:href="#path-1"></use>
                        <path d="M151.681523,134.427184 C151.335147,134.427184 151.021563,134.567581 150.794572,134.794572 C150.567581,135.021563 150.427184,135.335147 150.427184,135.681523 L150.427184,147.939636 C150.427184,149.658689 151.123968,151.215 152.250516,152.341547 C153.377063,153.468094 154.933374,154.164878 156.652427,154.164878 C157.59342,154.164878 158.44533,153.783465 159.061991,153.166804 C159.678652,152.550143 160.060065,151.698233 160.060065,150.75724 C160.060065,150.31951 159.975729,149.885879 159.811668,149.480057 L154.492626,136.32287 C154.261039,135.750017 153.86721,135.276095 153.376805,134.945387 C152.8864,134.614679 152.299418,134.427184 151.681523,134.427184 Z" id="Path-6" stroke="#1A2C3D" stroke-width="4.85436893" fill="#6DCB5E" mask="url(#mask-2)"></path>
                        <path d="M84.1160292,74.4271845 C81.4924562,74.4271845 79.0557966,75.7851214 77.6756784,78.0163563 L68.4343013,92.9568767 C67.292998,94.80202 66.997908,97.0480597 67.6238674,99.1253902 L69.8819363,106.619096 C70.6014552,109.006916 72.4504796,110.887407 74.8258196,111.647113 L89.1936593,116.242387 C91.7880933,117.072166 94.0380376,118.731377 95.5973767,120.964779 L110.55095,142.382398 C111.798489,144.16922 112.554224,146.252682 112.742342,148.423785 C113.327437,155.176427 114.082936,160.244099 115.035982,163.620992 C115.418021,164.974655 115.808793,166.020816 116.212179,167.068717 L132.543085,166.902317 L132.463795,166.361934 C133.060961,165.542382 133.768002,164.395434 134.59359,162.927107 C136.587037,159.381715 139.198559,154.062412 142.432961,146.971719 C142.883,145.985104 143.1159,144.913336 143.1159,143.828921 L143.1159,131.533474 C143.1159,128.627164 144.134527,125.812777 145.99465,123.579712 L150.157888,118.581775 C151.398955,117.091883 151.918632,115.239997 151.755569,113.450317 C151.590689,111.640685 150.702447,109.919221 148.94621,108.448638 C142.416953,103.534483 139.894957,100.337641 139.783017,99.1749473 C139.674466,98.0474407 137.380237,93.3272373 133.173408,84.9771674 C132.529988,83.7000533 131.554257,82.6586622 130.381872,81.9365494 C129.209486,81.2144366 127.840445,80.8116024 126.410407,80.8116024 L110.008701,80.8116024 C108.472012,80.8116024 106.94865,80.526593 105.515902,79.9710337 L92.5396861,74.939406 C91.4955409,74.5345306 90.3571907,74.4271845 84.1160292,74.4271845 Z" id="Path-7" stroke="#1A2C3D" stroke-width="4.85436893" fill="#64B557" mask="url(#mask-2)"></path>
                        <path d="M113.424368,-1.57281553 C111.876912,-1.57281553 110.366599,-1.09874655 109.096722,-0.214420281 L85.7174306,16.0538691 L76.0213848,22.167631 C74.7117397,22.9934169 73.719439,24.1762721 73.1246259,25.533348 C72.5298128,26.890424 72.3324874,28.4217208 72.6127931,29.9443899 L74.4244744,39.7857585 C74.8242645,41.9574882 76.1520704,43.8465345 78.0601127,44.9581176 L90.8800495,52.4267289 C92.1922583,53.1911927 93.6693645,53.5266691 95.1226522,53.4439053 C96.5759399,53.3611415 98.0054091,52.8601375 99.2223439,51.9516406 L108.221328,45.2334916 C110.588524,43.4662728 113.414208,42.6545383 116.199026,42.7764311 C118.983844,42.8983239 121.727797,43.953844 123.931532,45.9211346 L146.363386,65.9462206 C146.651831,66.203718 146.959574,66.4387458 147.283915,66.6492421 L156.757755,72.7977323 C158.333331,73.8202759 160.164638,74.1880111 161.912298,73.9476197 C163.659957,73.7072282 165.323968,72.8587101 166.564952,71.4487471 L168.505321,69.244167 C170.537798,66.9349364 173.313861,65.6681446 176.159112,65.4867796 C179.004364,65.3054147 181.918804,66.2094767 184.228035,68.2419537 C185.010218,68.9303946 185.691945,69.7251708 186.253283,70.6030434 L192.686661,80.6641499 C193.417421,81.8069783 194.440766,82.6929856 195.618498,83.2560949 C196.79623,83.8192043 198.12835,84.0594157 199.476658,83.9106523 C200.157501,83.8355326 200.74344,83.4915584 201.140388,82.9961534 C201.537337,82.5007485 201.745295,81.8539127 201.574852,80.7136892 L177.830373,3.7670505 C177.59379,3.00037621 177.10772,2.40386378 175.663827,1.83782078 C173.772688,1.09644597 170.761011,0.487788682 165.883278,-0.0276780726 C156.51853,-1.01732141 140.633621,-1.57281553 113.424368,-1.57281553 Z" id="Path-3" stroke="#1A2C3D" stroke-width="4.85436893" fill="#64B557" mask="url(#mask-2)"></path>
                        <path d="M25.6815171,45.0066045 C23.9821498,44.0990239 22.0007608,43.8732463 20.1407736,44.3752415 L18.3571852,44.8566173 C15.8673088,45.5286143 13.8905868,47.421558 13.1114582,49.8800176 L2.99485734,81.8019026 C2.75765282,82.5503769 2.69182912,83.3426181 2.80225927,84.1199757 C3.00560016,85.5513658 3.76987626,86.7648261 4.84116465,87.5696037 C5.91245303,88.3743812 7.29075371,88.7704761 8.72214378,88.5671352 L16.6416252,87.4421068 C17.2125605,87.3610007 17.7077903,87.0723973 18.0565725,86.6599515 C18.4053547,86.2475057 18.6076892,85.7112174 18.5928341,85.1347413 C18.547909,83.3913516 19.0008943,81.7111225 19.8514543,80.264682 C20.7020143,78.8182415 21.9501492,77.6055895 23.4955234,76.7973541 L33.4171184,71.6083296 C34.4161865,71.0858139 35.2859761,70.3468101 35.9630014,69.4452578 L41.2121258,62.455327 C41.4275277,62.1684897 41.6205741,61.8655273 41.7895606,61.5491143 C42.7006346,59.843206 42.8340013,57.9295101 42.3131224,56.2145228 C41.7922435,54.4995355 40.617119,52.9832569 38.9112106,52.0721829 L25.6815171,45.0066045 Z" id="Path-4" stroke="#1A2C3D" stroke-width="4.85436893" fill="#64B557" mask="url(#mask-2)"></path>
                        <path d="M24.4448259,115.731826 C22.3562397,115.627798 20.4232144,116.380186 18.9863288,117.680727 C17.5494433,118.981269 16.6086974,120.829963 16.5046702,122.918549 L13.8985617,175.242162 C13.7980101,177.260967 14.4991738,179.141277 15.7284145,180.56595 C16.9576553,181.990623 18.7149731,182.959659 20.72673,183.155914 L44.1484286,185.440805 C44.3927941,185.464644 44.6381744,185.476585 44.8837,185.476585 C46.9748753,185.476585 48.8680792,184.628969 50.2384892,183.258559 C51.6088993,181.888149 52.4565155,179.994945 52.4565155,177.903769 L52.4565155,169.766242 C52.4565155,166.124806 54.0536485,162.666597 56.8258599,160.305474 L61.4042363,156.406021 C63.439984,154.672152 64.4103879,151.993178 63.9573162,149.357785 L62.6815999,141.937296 C62.3888466,140.234431 61.5382669,138.738653 60.330349,137.633408 C59.1224311,136.528163 57.557175,135.813452 55.835069,135.672722 L50.5467618,135.24056 C48.225082,135.050833 46.0539705,134.219794 44.2403182,132.898205 C42.4266659,131.576616 40.9704727,129.764476 40.0786298,127.612545 L37.426311,121.212753 C36.9068287,119.959292 36.0718508,118.892722 35.0302938,118.096322 C33.9887367,117.299923 32.7406005,116.773695 31.3948017,116.600917 L25.0324139,115.784097 C24.8373045,115.759048 24.6412931,115.741611 24.4448259,115.731826 Z" id="Path-5" stroke="#1A2C3D" stroke-width="4.85436893" fill="#6DCB5E" mask="url(#mask-2)"></path>
                        <path d="M100,-7.10542736e-15 C155.228475,-7.10542736e-15 200,44.771525 200,100 C200,102.523323 199.906541,105.024818 199.722895,107.501211 C195.887613,55.7743945 152.705492,15 100,15 C47.2945085,15 4.11238709,55.7743945 0.277030384,107.499789 C0.0934590844,105.024818 0,102.523323 0,100 C0,44.771525 44.771525,-7.10542736e-15 100,-7.10542736e-15 Z" id="highlight" fill="#FFFFFF" opacity="0.4" style="mix-blend-mode: overlay;" mask="url(#mask-2)"></path>
                        <circle id="topborder" stroke="#1A2C3D" stroke-width="4.85436893" mask="url(#mask-2)" cx="100" cy="100" r="97.5728155"></circle>
                    </g>
                </g>
            </g>
        </g>
    </g>
</svg>