<?xml version="1.0" encoding="UTF-8"?>
<svg width="16px" height="13px" viewBox="0 0 16 13" version="1.1" xmlns="http://www.w3.org/2000/svg" xmlns:xlink="http://www.w3.org/1999/xlink">
    <!-- Generator: Sketch 52.5 (67469) - http://www.bohemiancoding.com/sketch -->
    <title>Shape</title>
    <desc>Created with Sketch.</desc>
    <g id="Symbols" stroke="none" stroke-width="1" fill="none" fill-rule="evenodd">
        <g id="footer" transform="translate(-696.000000, -185.000000)" fill="#FFFFFF" fill-rule="nonzero">
            <g id="Group-2">
                <g>
                    <path d="M712,186.456194 C711.41111,186.703304 710.77924,186.870891 710.115343,186.94571 C710.793227,186.561292 711.31213,185.951551 711.558065,185.227229 C710.922194,185.583225 710.220311,185.841724 709.47244,185.981854 C708.873564,185.376842 708.021719,185 707.076881,185 C705.264224,185 703.794496,186.391823 703.794496,188.107456 C703.794496,188.350778 703.82349,188.58843 703.87949,188.815684 C701.152008,188.685952 698.733469,187.448471 697.114773,185.568073 C696.831818,186.026345 696.670851,186.560326 696.670851,187.13033 C696.670851,188.208766 697.250747,189.160316 698.130592,189.717026 C697.592682,189.699992 697.086773,189.559862 696.64387,189.326938 L696.64387,189.365759 C696.64387,190.871196 697.775663,192.127617 699.276371,192.413572 C699.001417,192.483638 698.711482,192.522458 698.411533,192.522458 C698.199585,192.522458 697.994618,192.502578 697.79365,192.464698 C698.211559,193.700297 699.423352,194.598816 700.859093,194.62345 C699.736294,195.456657 698.320553,195.951843 696.782851,195.951843 C696.517909,195.951843 696.256942,195.936691 696,195.909234 C697.452734,196.792626 699.177417,197.307692 701.031067,197.307692 C707.068933,197.307692 710.369331,192.571702 710.369331,188.464417 L710.358324,188.062025 C711.003188,187.626457 711.561071,187.079205 712,186.456194 Z" id="Shape"></path>
                </g>
            </g>
        </g>
    </g>
</svg>