<?xml version="1.0" encoding="UTF-8"?>
<svg width="731px" height="642px" viewBox="0 0 731 642" version="1.1" xmlns="http://www.w3.org/2000/svg" xmlns:xlink="http://www.w3.org/1999/xlink">
    <!-- Generator: Sketch 61.2 (89653) - https://sketch.com -->
    <title>Group 6</title>
    <desc>Created with Sketch.</desc>
    <g id="Home" stroke="none" stroke-width="1" fill="none" fill-rule="evenodd" opacity="0.200000003">
        <g id="Artboard-Copy-43" transform="translate(-426.000000, -1461.000000)" fill="#683919" fill-rule="nonzero">
            <g id="Group-6" transform="translate(426.375000, 1458.920772)">
                <path d="M292.266411,629.460839 C294.978633,629.783638 297.717513,630.047984 300.48183,630.250839 L302.143463,630.365149 L301.951239,633.358984 C299.131162,633.177917 296.336732,632.933734 293.569168,632.629521 L291.911863,632.439814 L292.266411,629.460839 Z M272.902926,625.845475 C274.655252,626.406537 276.262499,626.835454 277.725787,627.131391 C278.766363,627.341679 279.812506,627.543583 280.865641,627.737117 L282.450766,628.02114 L281.934757,630.97643 C280.317716,630.694086 278.718248,630.392602 277.13132,630.071902 C275.750379,629.79262 274.266523,629.407787 272.676216,628.918623 L271.988128,628.702597 L272.902926,625.845475 Z M361.100105,624.39162 L361.890614,627.285596 C359.171394,628.028368 356.449855,628.704703 353.726654,629.31589 L352.092539,629.674794 L351.462409,626.741718 C354.677403,626.051021 357.890328,625.268391 361.100105,624.39162 Z M254.735295,618.05445 C257.70942,619.541469 260.463802,620.849813 263.01776,621.985567 L263.709339,622.291044 L262.504189,625.038336 C259.941623,623.91422 257.18388,622.618323 254.210091,621.144203 L253.393686,620.737747 L254.735295,618.05445 Z M379.920972,618.136282 L381.018297,620.928392 C378.392977,621.960167 375.761577,622.927094 373.124635,623.830201 L371.541809,624.364414 L370.595159,621.517687 C373.711522,620.481372 376.820417,619.354829 379.920972,618.136282 Z M398.00336,609.920303 L399.38201,612.584758 C396.874861,613.882015 394.359156,615.117064 391.835334,616.290727 L390.32007,616.987564 L389.07823,614.256661 C392.064559,612.89867 395.039839,611.453696 398.00336,609.920303 Z M237.151798,608.66288 C239.91668,610.20929 242.515392,611.639086 244.977975,612.967325 L245.895121,613.460684 L244.476914,616.104297 C242.033385,614.793428 239.458334,613.383191 236.721381,611.858379 L235.687375,611.281175 L237.151798,608.66288 Z M415.162895,599.954144 L416.790915,602.473976 C414.512966,603.94572 412.225737,605.363238 409.92954,606.727116 L408.205717,607.739975 L406.698277,605.146209 C409.533306,603.498552 412.355038,601.768252 415.162895,599.954144 Z M219.825004,598.741549 C222.67656,600.401119 225.281486,601.908653 227.739375,603.320709 L228.47243,603.741517 L226.979774,606.34382 C224.544946,604.947226 221.973489,603.461045 219.165566,601.828586 L218.315996,601.334403 L219.825004,598.741549 Z M431.358166,588.42938 L433.202157,590.795747 C431.062781,592.462856 428.913387,594.079292 426.754228,595.645525 L425.133031,596.810794 L423.392737,594.367154 C426.062596,592.465752 428.717897,590.486809 431.358166,588.42938 Z M202.562789,588.63569 C203.495991,589.183078 206.706452,591.066704 206.908529,591.185273 L207.332467,591.433982 C208.702483,592.237695 209.797335,592.879755 210.842387,593.492249 L211.189203,593.6955 L209.672428,596.283819 C208.519998,595.608486 207.337103,594.914829 205.814503,594.021604 L205.390446,593.772825 C205.194801,593.65803 202.181962,591.890352 201.142158,591.280406 L201.044932,591.223375 L202.562789,588.63569 Z M185.28766,578.549757 C187.718927,579.958548 190.226734,581.417763 192.916809,582.988278 L193.934338,583.582558 L192.420933,586.172849 C189.686248,584.575081 187.147142,583.096274 184.697998,581.675614 L183.783579,581.145473 L185.28766,578.549757 Z M446.518245,575.591959 L448.545332,577.803501 C446.545847,579.636218 444.536062,581.421917 442.516183,583.16098 L440.999384,584.456538 L439.05999,582.167706 C441.561335,580.048245 444.047549,577.856585 446.518245,575.591959 Z M167.923365,568.617527 C170.281971,569.945704 172.683359,571.307816 175.145358,572.713469 L176.629973,573.562164 L175.139713,576.165839 C172.657668,574.745195 170.239914,573.370063 167.868663,572.030853 L166.451351,571.231561 L167.923365,568.617527 Z M460.677433,561.62672 L462.858078,563.687007 C460.996476,565.65736 459.124611,567.584323 457.242646,569.468209 L455.829282,570.873051 L453.721947,568.737837 C456.055761,566.434494 458.374364,564.064329 460.677433,561.62672 Z M150.373847,558.941254 C152.677548,560.181184 155.011915,561.450794 157.383177,562.753023 L159.168639,563.735857 L157.719367,566.362568 C155.336411,565.047787 152.992035,563.766392 150.680038,562.515456 L148.952014,561.582918 L150.373847,558.941254 Z M132.601614,549.663375 C134.942822,550.844134 137.312294,552.056968 139.713195,553.303028 L141.519814,554.243821 L140.130562,556.902764 C137.723749,555.645245 135.349321,554.421253 133.004139,553.229645 L131.250686,552.341994 L132.601614,549.663375 Z M473.866308,546.718411 L476.174788,548.634376 C474.444571,550.719054 472.704314,552.76376 470.954152,554.768749 L469.639676,556.265048 L467.392132,554.277952 C469.565271,551.819982 471.723418,549.300305 473.866308,546.718411 Z M114.535126,540.937144 C116.915217,542.031623 119.324399,543.163068 121.764485,544.331809 L123.600372,545.215362 L122.29441,547.916189 C119.852486,546.735417 117.442141,545.592003 115.061599,544.485621 L113.281752,543.662773 L114.535126,540.937144 Z M486.2499,531.019302 L488.582374,532.905983 C487.771588,533.908345 486.972777,534.93117 486.179692,535.982814 C485.361611,537.067538 484.541064,538.142849 483.718065,539.208776 L482.481729,540.80063 L480.117677,538.95367 C481.345337,537.382304 482.56763,535.789915 483.784484,534.176442 C484.597948,533.097775 485.417679,532.048165 486.2499,531.019302 Z M96.1142198,532.978822 C98.5427566,533.954616 101.003764,534.974953 103.498336,536.039679 L105.375577,536.846543 L104.184023,539.599759 C101.691647,538.521094 99.2334373,537.486684 96.8083467,536.496686 L94.9957224,535.762518 L96.1142198,532.978822 Z M77.2299698,526.085785 C79.8184415,526.926456 82.4487306,527.827552 85.1215616,528.788453 L86.7303709,529.372165 L85.6989828,532.189298 C83.0374893,531.214891 80.4192334,530.299883 77.8435782,529.444875 L76.3032921,528.939076 L77.2299698,526.085785 Z M18.8066698,518.513171 L19.4562561,518.413676 C22.0949546,518.026492 24.8217487,517.777156 27.6359164,517.663119 L27.7573837,520.660659 C24.8990722,520.776484 22.139492,521.036736 19.4793577,521.443698 C19.7888059,525.980376 16.7965285,530.211288 12.2295331,531.313901 C7.12936412,532.545238 1.9966643,529.40893 0.765327174,524.308761 C-0.466009951,519.208592 2.67029794,514.075892 7.77046691,512.844555 C12.4084002,511.724816 17.073235,514.216906 18.8066698,518.513171 Z M8.47452999,515.760768 C4.98494069,516.603261 2.83904582,520.115109 3.68153965,523.604698 C4.52403347,527.094287 8.03588071,529.240182 11.52547,528.397688 C15.0150593,527.555194 17.1609542,524.043347 16.3184604,520.553758 C15.4759665,517.064169 11.9641193,514.918274 8.47452999,515.760768 Z M57.7941579,520.748961 C60.5239798,521.346614 63.3093156,522.02747 66.1505246,522.790325 L67.5757868,523.17858 L66.7768422,526.070238 C63.9607687,525.292177 61.2015816,524.595112 58.4990786,523.98017 L57.1525499,523.679547 L57.7941579,520.748961 Z M500.417191,516.494467 L502.352258,518.786958 C500.17788,520.622327 498.065509,522.566266 496.01444,524.622995 L495.139162,525.511367 L492.989493,523.41878 C495.3818,520.961214 497.857435,518.655129 500.417191,516.494467 Z M37.8022983,517.810062 C40.6493411,517.996199 43.5729427,518.300288 46.5730069,518.72024 L47.8634298,518.907308 L47.4186705,521.874156 C44.4674819,521.431744 41.5943313,521.102562 38.7995453,520.888405 L37.6065786,520.803671 L37.8022983,517.810062 Z M517.155344,505.028054 L518.596328,507.659321 C516.068221,509.043811 513.6087,510.530819 511.215354,512.125757 L510.193679,512.815925 L508.49875,510.340603 C511.295135,508.425833 514.179591,506.657692 517.155344,505.028054 Z M535.72726,496.981921 L536.678237,499.827205 C533.959313,500.735948 531.312309,501.724978 528.731319,502.800337 L527.446298,503.345239 L526.257701,500.590745 C529.322641,499.268186 532.476057,498.068567 535.72726,496.981921 Z M555.288238,491.959453 L555.85026,494.906338 C552.992019,495.451454 550.221529,496.050378 547.522772,496.710423 L546.179297,497.045573 L545.439627,494.138188 C548.621323,493.328731 551.89558,492.606491 555.288238,491.959453 Z M575.194713,489.088484 L575.514951,492.071343 C572.46957,492.398293 569.59468,492.745505 566.820688,493.125654 L565.637809,493.290629 L565.216248,490.320395 C568.390807,489.869835 571.681982,489.465608 575.194713,489.088484 Z M595.156943,487.298818 L595.402456,490.288755 C595.112144,490.312584 595.112144,490.312584 594.821553,490.336406 C588.287607,490.871896 587.962895,490.898664 585.59087,491.105243 L585.446025,491.117859 L585.185683,488.129176 C587.699634,487.910188 587.904573,487.89323 594.576509,487.346431 C594.866894,487.322626 594.866894,487.322626 595.156943,487.298818 Z M615.01152,485.351273 L615.394121,488.326775 C612.600093,488.686042 609.63631,489.012797 606.31529,489.333946 L605.40056,489.421413 L605.118115,486.434739 C608.78239,486.088215 612.000014,485.738503 615.01152,485.351273 Z M634.365611,481.522746 L635.218118,484.399068 C632.464466,485.215217 629.539656,485.927966 626.403732,486.555957 L625.35055,486.762173 L624.786502,483.815676 C628.230488,483.156393 631.405932,482.399959 634.365611,481.522746 Z M651.865461,473.166722 L653.655903,475.57386 C651.192077,477.406468 648.50749,479.020045 645.588729,480.437775 L644.786887,480.81959 L643.518002,478.101148 C646.569585,476.676763 649.345324,475.041213 651.865461,473.166722 Z M664.217376,458.467809 L666.883686,459.842868 C665.371833,462.774429 663.639864,465.442711 661.686249,467.864406 L661.193226,468.464703 L658.891722,466.540364 C660.905502,464.131888 662.67972,461.449401 664.217376,458.467809 Z M670.128057,439.871661 L673.084653,440.38013 C672.537152,443.563678 671.849288,446.55825 671.021537,449.37212 L670.740439,450.303396 L667.87466,449.416091 C668.789545,446.461234 669.541273,443.28363 670.128057,439.871661 Z M671.680345,420.203494 L674.680328,420.21383 C674.669514,423.35234 674.568162,426.359219 674.37698,429.238564 L674.301077,430.312349 L671.309484,430.087912 C671.544355,426.957251 671.668422,423.664313 671.680345,420.203494 Z M673.682441,400.081958 C673.965192,403.056169 674.187514,405.938249 674.349915,408.730291 L674.426125,410.118819 L671.430106,410.273324 C671.289609,407.548931 671.089953,404.734201 670.830575,401.827125 L670.695906,400.365881 L673.682441,400.081958 Z M671.107763,380.174855 C671.574704,383.098748 671.995236,385.949594 672.369736,388.72872 L672.553152,390.112313 L669.578321,390.500103 C669.222385,387.769631 668.820747,384.967293 668.373012,382.091803 L668.145302,380.647956 L671.107763,380.174855 Z M667.483657,360.460091 C668.060006,363.262537 668.600995,366.008029 669.106889,368.697406 L669.406216,370.304304 L666.455972,370.848416 C665.967235,368.198421 665.443568,365.492268 664.884702,362.72914 L664.545157,361.06442 L667.483657,360.460091 Z M663.108983,340.9009 C663.747614,343.559695 664.359059,346.173916 664.943502,348.744106 L665.376773,350.6635 L662.449356,351.319418 C661.88111,348.78329 661.285958,346.203142 660.663715,343.578444 L660.191951,341.601559 L663.108983,340.9009 Z M658.399838,321.46851 C658.959948,323.877383 659.535023,326.300937 660.125134,328.739225 L660.72026,331.182426 L657.806534,331.896711 C657.204265,329.43992 656.617089,326.997852 656.044937,324.570454 L655.477789,322.147943 L658.399838,321.46851 Z M654.126755,301.974718 C654.622999,304.389666 655.135171,306.820427 655.663353,309.267064 L656.196874,311.718995 L653.26651,312.361617 C652.725529,309.89474 652.200629,307.443727 651.691727,305.008515 L651.188155,302.578566 L654.126755,301.974718 Z M650.386771,282.37675 C650.813234,284.803822 651.256802,287.248106 651.717574,289.70968 L652.184084,292.177019 L649.237328,292.739717 C648.763008,290.25578 648.305979,287.78912 647.866144,285.339659 L647.432037,282.895928 L650.386771,282.37675 Z M647.242491,262.657795 C647.591068,265.101718 647.958174,267.564574 648.343929,270.046455 L648.735903,272.534682 L645.773408,273.007573 C645.373252,270.500734 644.991854,268.012909 644.629096,265.544002 L644.272548,263.081398 L647.242491,262.657795 Z M644.779207,242.870952 C645.037728,245.317709 645.316195,247.785207 645.614751,250.27356 L645.920009,252.76887 L642.943055,253.140014 C642.629356,250.62383 642.335887,248.12849 642.062505,245.653879 L641.795814,243.186173 L644.779207,242.870952 Z M643.086033,222.996998 C643.253161,225.613652 643.44494,228.25647 643.661586,230.925628 L643.828736,232.932437 L640.839618,233.187731 C640.609073,230.488386 640.403589,227.815362 640.222954,225.168482 L640.092134,223.188221 L643.086033,222.996998 Z M642.278303,203.086875 C642.320703,205.707854 642.390022,208.3581 642.486529,211.03784 L642.564012,213.053179 L639.566514,213.17568 C639.455593,210.461537 639.372118,207.776876 639.315824,205.121471 L639.278696,203.1354 L642.278303,203.086875 Z M639.493844,183.048987 L642.491565,183.165894 C642.389557,185.781591 642.316971,188.430216 642.274152,191.112073 L642.247625,193.129701 L639.247785,193.098671 C639.282972,189.697035 639.365213,186.347338 639.493844,183.048987 Z M640.905972,163.00264 L643.889957,163.312203 C643.62072,165.907481 643.383573,168.539969 643.178966,171.210088 L643.031618,173.21974 L640.038948,173.010161 C640.276664,169.615715 640.565959,166.280145 640.905972,163.00264 Z M643.717837,143.080649 L646.669831,143.615186 C646.205522,146.179339 645.776302,148.786029 645.382762,151.435863 L645.094307,153.431339 L642.123536,153.013586 C642.598584,149.63537 643.1304,146.32478 643.717837,143.080649 Z M648.159927,123.456281 L651.052401,124.252269 C650.333449,126.864804 649.655772,129.530335 649.02027,132.249911 L648.644036,133.888151 L645.717623,133.227767 C646.470169,129.89295 647.284786,126.63638 648.159927,123.456281 Z M654.499835,104.318959 L657.292362,105.415223 C656.304268,107.932207 655.360078,110.510031 654.460983,113.15044 L653.926946,114.742209 L651.078503,113.800737 C652.152914,110.550087 653.294047,107.390479 654.499835,104.318959 Z M662.982216,86.0208625 L665.619352,87.4510776 C664.294459,89.8940133 663.017299,92.4101072 661.789389,95.0029828 L661.179546,96.3058358 L658.456808,95.0461932 C659.896936,91.9333341 661.406229,88.926784 662.982216,86.0208625 Z M673.799886,68.9613978 L676.214431,70.74184 C674.563921,72.9801765 672.960213,75.2968003 671.40329,77.7009351 L670.628726,78.9103379 L668.094304,77.3051267 C669.930743,74.4056251 671.832643,71.6292715 673.799886,68.9613978 Z M686.915862,53.6008414 L689.058108,55.7010275 C687.077114,57.7216943 685.170514,59.7745004 683.300813,61.916876 L682.368864,62.9957939 L680.088589,61.0463465 C682.302811,58.456363 684.558621,56.0052906 686.915862,53.6008414 Z M700.932017,39.740623 L703.432275,41.398547 C702.401274,42.9533631 701.509642,43.8448805 696.495348,48.5175153 L696.201457,48.7913171 L694.156718,46.5960857 C699.133156,41.9608029 700.081363,41.0234652 700.932017,39.740623 Z" id="Path-12"></path>
                <path d="M336.125,621.579244 C336.953427,621.579244 337.625,622.250817 337.625,623.079244 C337.625,623.907671 336.953427,624.579244 336.125,624.579244 L335.625,624.579228 L335.625,626.579228 L337.625,626.579244 C339.767195,626.579244 341.516079,628.263213 341.620105,630.379604 L341.625,630.579244 L341.625,632.245911 C341.625,633.111392 341.344289,633.953526 340.825,634.645911 L340.825,634.645911 L339.525,636.379244 C338.592602,637.622441 337.050032,638.138041 335.625596,637.821999 L335.625,638.579244 C335.625,641.340668 333.386424,643.579244 330.625,643.579244 L330.625,643.579244 L318.625,643.579244 C315.863576,643.579244 313.625,641.340668 313.625,638.579244 L313.625,638.579244 L313.625,624.579228 L313.125,624.579244 C312.296573,624.579244 311.625,623.907671 311.625,623.079244 C311.625,622.250817 312.296573,621.579244 313.125,621.579244 L336.125,621.579244 Z M316.625,635.079228 L316.625,638.579244 C316.625,639.683814 317.520431,640.579244 318.625,640.579244 L318.625,640.579244 L330.625,640.579244 C331.729569,640.579244 332.625,639.683814 332.625,638.579244 L332.625,638.579244 L332.625,635.079228 L316.625,635.079228 Z M337.625,629.579244 L335.625,629.579244 L335.625,634.079244 C335.625,634.341542 335.748495,634.588532 335.958333,634.745911 C336.326523,635.022053 336.848858,634.947434 337.125,634.579244 L337.125,634.579244 L338.425,632.845911 C338.554822,632.672815 338.625,632.462281 338.625,632.245911 L338.625,632.245911 L338.625,630.579244 C338.625,630.026959 338.177285,629.579244 337.625,629.579244 L337.625,629.579244 Z M332.625,624.579244 L316.625,624.579244 L316.625,628.079228 L332.625,628.079228 L332.625,624.579244 Z M320.621546,608.45813 C321.24072,609.008507 321.296491,609.956616 320.746114,610.57579 C320.30733,611.069422 320.125,611.479664 320.125,611.829244 L320.127252,611.974802 C320.131748,612.041423 320.145217,612.061657 320.185575,612.122194 C320.428959,612.442806 320.657094,612.777598 320.869885,613.20318 L321.079865,613.646257 C321.18062,613.840661 321.301622,614.015182 321.560575,614.372194 C321.945351,614.949357 322.125,615.526801 322.125,616.329244 C322.125,617.479664 321.640663,618.569422 320.746114,619.57579 C320.195737,620.194964 319.247628,620.250735 318.628454,619.700358 C318.00928,619.149981 317.953509,618.201872 318.503886,617.582698 C318.94267,617.089066 319.125,616.678824 319.125,616.329244 L319.122748,616.183686 C319.118252,616.117065 319.104783,616.096831 319.064425,616.036294 C318.821041,615.715682 318.592906,615.38089 318.380115,614.955308 L318.170135,614.512231 C318.06938,614.317827 317.948378,614.143306 317.689425,613.786294 C317.304649,613.209131 317.125,612.631687 317.125,611.829244 C317.125,610.678824 317.609337,609.589066 318.503886,608.582698 C319.054263,607.963524 320.002372,607.907753 320.621546,608.45813 Z M325.621546,608.45813 C326.24072,609.008507 326.296491,609.956616 325.746114,610.57579 C325.30733,611.069422 325.125,611.479664 325.125,611.829244 L325.127252,611.974802 C325.131748,612.041423 325.145217,612.061657 325.185575,612.122194 C325.428959,612.442806 325.657094,612.777598 325.869885,613.20318 L326.079865,613.646257 C326.18062,613.840661 326.301622,614.015182 326.560575,614.372194 C326.945351,614.949357 327.125,615.526801 327.125,616.329244 C327.125,617.479664 326.640663,618.569422 325.746114,619.57579 C325.195737,620.194964 324.247628,620.250735 323.628454,619.700358 C323.00928,619.149981 322.953509,618.201872 323.503886,617.582698 C323.94267,617.089066 324.125,616.678824 324.125,616.329244 L324.122748,616.183686 C324.118252,616.117065 324.104783,616.096831 324.064425,616.036294 C323.821041,615.715682 323.592906,615.38089 323.380115,614.955308 L323.170135,614.512231 C323.06938,614.317827 322.948378,614.143306 322.689425,613.786294 C322.304649,613.209131 322.125,612.631687 322.125,611.829244 C322.125,610.678824 322.609337,609.589066 323.503886,608.582698 C324.054263,607.963524 325.002372,607.907753 325.621546,608.45813 Z M330.621546,608.45813 C331.24072,609.008507 331.296491,609.956616 330.746114,610.57579 C330.30733,611.069422 330.125,611.479664 330.125,611.829244 L330.127252,611.974802 C330.131748,612.041423 330.145217,612.061657 330.185575,612.122194 C330.428959,612.442806 330.657094,612.777598 330.869885,613.20318 L331.079865,613.646257 C331.18062,613.840661 331.301622,614.015182 331.560575,614.372194 C331.945351,614.949357 332.125,615.526801 332.125,616.329244 C332.125,617.479664 331.640663,618.569422 330.746114,619.57579 C330.195737,620.194964 329.247628,620.250735 328.628454,619.700358 C328.00928,619.149981 327.953509,618.201872 328.503886,617.582698 C328.94267,617.089066 329.125,616.678824 329.125,616.329244 L329.122748,616.183686 C329.118252,616.117065 329.104783,616.096831 329.064425,616.036294 C328.821041,615.715682 328.592906,615.38089 328.380115,614.955308 L328.170135,614.512231 C328.06938,614.317827 327.948378,614.143306 327.689425,613.786294 C327.304649,613.209131 327.125,612.631687 327.125,611.829244 C327.125,610.678824 327.609337,609.589066 328.503886,608.582698 C329.054263,607.963524 330.002372,607.907753 330.621546,608.45813 Z M316.625,633.079228 L332.625,633.079228 L332.625,630.079228 L316.625,630.079228 L316.625,633.079228 Z" id="coffee"></path>
                <g id="mountains" transform="translate(575.625000, 448.079228)">
                    <g id="Group-7" transform="translate(0.500000, 0.333650)">
                        <path d="M102.928244,22.9473961 C104.253001,21.6715889 106.327594,21.6451025 107.683367,22.8541158 L107.830976,22.9935343 L116.226767,31.3893251 C116.812554,31.9751116 116.812554,32.924859 116.226767,33.5106455 C115.677592,34.0598202 114.80853,34.0941437 114.219369,33.6136157 L114.105447,33.5106455 L105.709656,25.1148546 C105.541071,24.9462696 105.281535,24.9229524 105.087806,25.0463781 L105.009266,25.1082635 L82.540511,46.7467839 C81.943804,47.3214422 80.9942248,47.3035682 80.4195664,46.7068612 C79.8808242,46.1474483 79.8628624,45.2778939 80.3543931,44.6978809 L80.4594891,44.5859165 L102.928244,22.9473961 Z" id="Path-15"></path>
                        <path d="M11.2928933,8.45924342 C11.6533772,8.09875946 12.2206083,8.07102993 12.6128995,8.37605482 L12.7071068,8.45924342 L14.7071068,10.4592434 C15.0976311,10.8497677 15.0976311,11.4829327 14.7071068,11.873457 C14.3466229,12.2339409 13.7793918,12.2616705 13.3871006,11.9566456 L13.2928933,11.873457 L11.2928933,9.87345699 C10.902369,9.48293269 10.902369,8.84976772 11.2928933,8.45924342 Z" id="Line"></path>
                        <path d="M14.2928933,5.45924342 C14.6533772,5.09875946 15.2206083,5.07102993 15.6128995,5.37605482 L15.7071068,5.45924342 L17.7071068,7.45924342 C18.0976311,7.84976772 18.0976311,8.48293269 17.7071068,8.87345699 C17.3466229,9.23394095 16.7793918,9.26167048 16.3871006,8.95664559 L16.2928933,8.87345699 L14.2928933,6.87345699 C13.902369,6.48293269 13.902369,5.84976772 14.2928933,5.45924342 Z" id="Line-Copy-6"></path>
                        <path d="M8.29289328,11.4592434 C8.65337724,11.0987595 9.2206083,11.0710299 9.61289951,11.3760548 L9.70710685,11.4592434 L11.7071068,13.4592434 C12.0976311,13.8497677 12.0976311,14.4829327 11.7071068,14.873457 C11.3466229,15.2339409 10.7793918,15.2616705 10.3871006,14.9566456 L10.2928933,14.873457 L8.29289328,12.873457 C7.90236899,12.4829327 7.90236899,11.8497677 8.29289328,11.4592434 Z" id="Line-Copy"></path>
                        <path d="M41.2928933,8.45924342 C41.6533772,8.09875946 42.2206083,8.07102993 42.6128995,8.37605482 L42.7071068,8.45924342 L44.7071068,10.4592434 C45.0976311,10.8497677 45.0976311,11.4829327 44.7071068,11.873457 C44.3466229,12.2339409 43.7793918,12.2616705 43.3871006,11.9566456 L43.2928933,11.873457 L41.2928933,9.87345699 C40.902369,9.48293269 40.902369,8.84976772 41.2928933,8.45924342 Z" id="Line-Copy-9"></path>
                        <path d="M28.2928933,13.4592434 C28.6533772,13.0987595 29.2206083,13.0710299 29.6128995,13.3760548 L29.7071068,13.4592434 L31.7071068,15.4592434 C32.0976311,15.8497677 32.0976311,16.4829327 31.7071068,16.873457 C31.3466229,17.2339409 30.7793918,17.2616705 30.3871006,16.9566456 L30.2928933,16.873457 L28.2928933,14.873457 C27.902369,14.4829327 27.902369,13.8497677 28.2928933,13.4592434 Z" id="Line-Copy-10"></path>
                        <path d="M44.2928933,5.45924342 C44.6533772,5.09875946 45.2206083,5.07102993 45.6128995,5.37605482 L45.7071068,5.45924342 L47.7071068,7.45924342 C48.0976311,7.84976772 48.0976311,8.48293269 47.7071068,8.87345699 C47.3466229,9.23394095 46.7793918,9.26167048 46.3871006,8.95664559 L46.2928933,8.87345699 L44.2928933,6.87345699 C43.902369,6.48293269 43.902369,5.84976772 44.2928933,5.45924342 Z" id="Line-Copy-8"></path>
                        <path d="M101.292893,28.4592434 C101.653377,28.0987595 102.220608,28.0710299 102.6129,28.3760548 L102.707107,28.4592434 L104.707107,30.4592434 C105.097631,30.8497677 105.097631,31.4829327 104.707107,31.873457 C104.346623,32.2339409 103.779392,32.2616705 103.387101,31.9566456 L103.292893,31.873457 L101.292893,29.873457 C100.902369,29.4829327 100.902369,28.8497677 101.292893,28.4592434 Z" id="Line-Copy-3"></path>
                        <path d="M98.2928933,31.4592434 C98.6533772,31.0987595 99.2206083,31.0710299 99.6128995,31.3760548 L99.7071068,31.4592434 L101.707107,33.4592434 C102.097631,33.8497677 102.097631,34.4829327 101.707107,34.873457 C101.346623,35.2339409 100.779392,35.2616705 100.387101,34.9566456 L100.292893,34.873457 L98.2928933,32.873457 C97.902369,32.4829327 97.902369,31.8497677 98.2928933,31.4592434 Z" id="Line-Copy-2"></path>
                        <path d="M118.292893,37.4592434 C118.653377,37.0987595 119.220608,37.0710299 119.6129,37.3760548 L119.707107,37.4592434 L121.707107,39.4592434 C122.097631,39.8497677 122.097631,40.4829327 121.707107,40.873457 C121.346623,41.2339409 120.779392,41.2616705 120.387101,40.9566456 L120.292893,40.873457 L118.292893,38.873457 C117.902369,38.4829327 117.902369,37.8497677 118.292893,37.4592434 Z" id="Line-Copy-11"></path>
                        <path d="M115.292893,40.4592434 C115.653377,40.0987595 116.220608,40.0710299 116.6129,40.3760548 L116.707107,40.4592434 L118.707107,42.4592434 C119.097631,42.8497677 119.097631,43.4829327 118.707107,43.873457 C118.346623,44.2339409 117.779392,44.2616705 117.387101,43.9566456 L117.292893,43.873457 L115.292893,41.873457 C114.902369,41.4829327 114.902369,40.8497677 115.292893,40.4592434 Z" id="Line-Copy-7"></path>
                        <path d="M95.2928933,34.4592434 C95.6533772,34.0987595 96.2206083,34.0710299 96.6128995,34.3760548 L96.7071068,34.4592434 L98.7071068,36.4592434 C99.0976311,36.8497677 99.0976311,37.4829327 98.7071068,37.873457 C98.3466229,38.2339409 97.7793918,38.2616705 97.3871006,37.9566456 L97.2928933,37.873457 L95.2928933,35.873457 C94.902369,35.4829327 94.902369,34.8497677 95.2928933,34.4592434 Z" id="Line-Copy-5"></path>
                        <path d="M92.2928933,37.4592434 C92.6533772,37.0987595 93.2206083,37.0710299 93.6128995,37.3760548 L93.7071068,37.4592434 L95.7071068,39.4592434 C96.0976311,39.8497677 96.0976311,40.4829327 95.7071068,40.873457 C95.3466229,41.2339409 94.7793918,41.2616705 94.3871006,40.9566456 L94.2928933,40.873457 L92.2928933,38.873457 C91.902369,38.4829327 91.902369,37.8497677 92.2928933,37.4592434 Z" id="Line-Copy-4"></path>
                        <path d="M119.460593,32.8764765 C120.72642,31.6516662 122.694873,31.5643594 124.061187,32.6430362 L124.216093,32.772675 L137.49502,44.5438822 C138.114942,45.0934168 138.172003,46.0414486 137.622468,46.6613706 C137.107279,47.2425474 136.241849,47.3290216 135.624883,46.8847581 L135.50498,46.7888182 L122.226052,35.017611 C122.054957,34.8659424 121.80692,34.8519311 121.621781,34.9725247 L121.546695,35.0324398 L112.543051,43.7443319 C111.947698,44.3203931 110.99808,44.3047541 110.422018,43.7094013 C109.881961,43.151258 109.861953,42.2817482 110.352117,41.7005799 L110.456949,41.5883685 L119.460593,32.8764765 Z" id="Path-14"></path>
                        <path d="M14.9037147,1.03426629 C16.2168666,-0.28860282 18.3243637,-0.343444124 19.7032901,0.875356296 L19.8534285,1.01602017 L26.2267671,7.38932512 C26.8125535,7.97511155 26.8125535,8.92485902 26.2267671,9.51064546 C25.6775923,10.0598202 24.8085299,10.0941437 24.2193691,9.61361573 L24.1054467,9.51064546 L17.7399423,3.14514587 C17.5657373,2.97222051 17.2962437,2.95392866 17.1018745,3.08964213 L17.0328404,3.14775245 L2.56456291,17.7230933 C1.98093982,18.3110351 1.03119881,18.3145361 0.44325698,17.7309131 C-0.107938481,17.1837664 -0.145465272,16.3148364 0.332887594,15.7239083 L0.435437217,15.6096071 L14.9037147,1.03426629 Z" id="Path-15-Copy"></path>
                        <path d="M44.8979382,1.02956353 C46.2159576,-0.288455959 48.3236426,-0.335528083 49.6980667,0.888347152 L49.8644754,1.04646801 L64.2339627,15.6129348 C64.815748,16.2026953 64.8092828,17.1524207 64.2195223,17.734206 C63.6666218,18.2796297 62.7973459,18.3080364 62.2114699,17.823509 L62.0982511,17.7197656 L47.7287638,3.1532988 C47.5530654,2.97758584 47.2834041,2.95806218 47.0885097,3.09303173 L47.0192585,3.15088387 L40.5606602,9.60948213 C39.9748738,10.1952686 39.0251263,10.1952686 38.4393399,9.60948213 C37.8901651,9.06030735 37.8558417,8.19124494 38.3363696,7.6020842 L38.4393399,7.48816179 L44.8979382,1.02956353 Z" id="Path-15-Copy-2"></path>
                        <path d="M29.5096913,8.81898262 C30.7433128,7.63492692 32.6421355,7.5213328 34.0042204,8.52238155 L34.1650173,8.64786051 L42.456443,15.5108343 C43.0946168,16.0390632 43.1837448,16.9846193 42.6555159,17.6227931 C42.1603014,18.2210811 41.2982953,18.3368092 40.6666399,17.913691 L40.5435572,17.8218661 L32.2521315,10.9588923 C32.0808926,10.8171545 31.8404699,10.807488 31.660256,10.9251365 L31.5870849,10.9833383 L24.5386969,17.748528 C23.9410266,18.3221845 22.9914787,18.3027174 22.4178222,17.705047 C21.8800193,17.1447311 21.8635164,16.2751478 22.3560195,15.6959603 L22.4613032,15.5841724 L29.5096913,8.81898262 Z" id="Path-14-Copy"></path>
                    </g>
                </g>
                <g id="flag" transform="translate(721.022984, 15.913176) rotate(-10.000000) translate(-721.022984, -15.913176) translate(710.522984, 1.913176)">
                    <rect id="Rectangle" x="5.45696821e-12" y="9.09494702e-13" width="2" height="28" rx="1"></rect>
                    <path d="M11,1 C12.6568542,1 14,2.34314575 14,4 L14,4 L14,6.271 L12,5.359 L12,4 C12,3.48716416 11.6139598,3.06449284 11.1166211,3.00672773 L11,3 L3,3 C2.44771525,3 2,3.44771525 2,4 L2,4 L2,12 C2,12.5522847 2.44771525,13 3,13 L3,13 L9.226,13 L9.284,15 L3,15 C1.40231912,15 0.0963391206,13.75108 0.00509269343,12.1762728 L1.27329258e-11,12 L1.27329258e-11,4 C1.27329258e-11,2.34314575 1.34314575,1 3,1 L3,1 Z" id="Combined-Shape"></path>
                    <path d="M11,3.61803399 C9.34314575,3.61803399 8,4.96117974 8,6.61803399 L8,13.381966 C8,13.8477013 8.10843528,14.3070405 8.31671843,14.7236068 C9.05768617,16.2055423 10.8597053,16.8062153 12.3416408,16.0652476 L19.1055728,12.6832816 C19.686155,12.3929905 20.1569225,11.922223 20.4472136,11.3416408 C21.1881813,9.85970529 20.5875083,8.05768617 19.1055728,7.31671843 L12.3416408,3.93475242 C11.9250745,3.72646926 11.4657353,3.61803399 11,3.61803399 Z M11,5.61803399 C11.1552451,5.61803399 11.3083582,5.65417908 11.4472136,5.7236068 L18.2111456,9.10557281 C18.7051241,9.35256206 18.9053485,9.9532351 18.6583592,10.4472136 C18.5615955,10.640741 18.404673,10.7976635 18.2111456,10.8944272 L11.4472136,14.2763932 C10.9532351,14.5233825 10.3525621,14.3231581 10.1055728,13.8291796 C10.0361451,13.6903242 10,13.5372111 10,13.381966 L10,6.61803399 C10,6.06574924 10.4477153,5.61803399 11,5.61803399 Z" id="Rectangle-Copy-49"></path>
                </g>
                <path d="M723.625,32.079228 C723.625,35.3929365 719.147847,38.079228 713.625,38.079228 C708.102153,38.079228 703.625,35.3929365 703.625,32.079228 C703.625,29.2737252 706.834185,26.9179495 711.170136,26.2613516 L711.516985,28.230744 C708.044322,28.7407301 705.625,30.4541709 705.625,32.079228 C705.625,34.0164288 709.062999,36.079228 713.625,36.079228 C718.187001,36.079228 721.625,34.0164288 721.625,32.079228 C721.625,30.4297913 719.132543,28.6892993 715.576015,28.2086081 L715.2138,26.1545382 C719.981576,26.6112264 723.625,29.089937 723.625,32.079228 Z M711.694795,29.2378422 L712.041799,31.2074314 C711.360479,31.3217719 710.754491,31.5079097 710.276787,31.746762 C710.063896,31.8532075 709.894314,31.9616765 709.771697,32.0614286 L709.751,32.079228 L709.771697,32.0970273 C709.863659,32.1718414 709.98204,32.2515587 710.125296,32.3316482 L710.276787,32.4116939 C711.101396,32.8239984 712.308256,33.079228 713.625,33.079228 C714.941744,33.079228 716.148604,32.8239984 716.973213,32.4116939 C717.132882,32.3318598 717.268189,32.2508875 717.377592,32.173308 L717.498,32.079228 L717.478303,32.0614286 C717.386341,31.9866145 717.26796,31.9068972 717.124704,31.8268077 L716.973213,31.746762 C716.727871,31.6240907 716.448691,31.5153239 716.142846,31.4230468 L715.763959,29.2754672 C718.021472,29.7062774 719.625,30.7991217 719.625,32.079228 C719.625,33.7360822 716.938708,35.079228 713.625,35.079228 C710.311292,35.079228 707.625,33.7360822 707.625,32.079228 C707.625,30.7600053 709.328024,29.6396639 711.694795,29.2378422 Z" id="Combined-Shape"></path>
            </g>
        </g>
    </g>
</svg>