<?xml version="1.0" encoding="UTF-8"?>
<svg width="355px" height="98px" viewBox="0 0 355 98" version="1.1" xmlns="http://www.w3.org/2000/svg" xmlns:xlink="http://www.w3.org/1999/xlink">
    <!-- Generator: Sketch 64 (93537) - https://sketch.com -->
    <title>couch-horiz</title>
    <desc>Created with Sketch.</desc>
    <defs>
        <circle id="path-1" cx="48.9522904" cy="48.9522904" r="48.9522904"></circle>
        <path d="M26.9237597,6.36379776 C29.7174407,3.74144485 36.1242398,0 46.5046759,0 C52.9590379,0 58.6479282,0.735827803 63.5713471,2.20748341 C65.644309,2.82710937 67.0646379,4.7340814 67.0646379,6.89766809 L67.0646379,43.5676842 L67.0646379,43.5676842 L22.0262715,43.5676842 C20.9651902,22.8258616 22.5976863,10.4245661 26.9237597,6.36379776 Z" id="path-3"></path>
        <filter x="-4.4%" y="-4.6%" width="108.8%" height="109.2%" filterUnits="objectBoundingBox" id="filter-4">
            <feMorphology radius="2" operator="erode" in="SourceAlpha" result="shadowSpreadInner1"></feMorphology>
            <feOffset dx="0" dy="2" in="shadowSpreadInner1" result="shadowOffsetInner1"></feOffset>
            <feComposite in="shadowOffsetInner1" in2="SourceAlpha" operator="arithmetic" k2="-1" k3="1" result="shadowInnerInner1"></feComposite>
            <feColorMatrix values="0 0 0 0 1   0 0 0 0 1   0 0 0 0 1  0 0 0 0.2 0" type="matrix" in="shadowInnerInner1"></feColorMatrix>
        </filter>
        <path d="M22.0285307,30.839943 C22.7693423,28.0275251 36.1242398,25.9448596 46.5046759,25.9448596 C52.9590072,25.9448596 58.6478742,26.6806491 63.5712769,28.1522282 C65.6442756,28.7718271 67.0646379,30.6788174 67.0646379,32.8424316 L67.0646379,43.5676842 L67.0646379,43.5676842 L22.0285307,43.5676842 C21.3624951,37.6110616 21.3624951,33.3684812 22.0285307,30.839943 Z" id="path-5"></path>
        <filter x="-4.4%" y="-11.3%" width="108.8%" height="122.7%" filterUnits="objectBoundingBox" id="filter-6">
            <feMorphology radius="2" operator="erode" in="SourceAlpha" result="shadowSpreadInner1"></feMorphology>
            <feOffset dx="0" dy="2" in="shadowSpreadInner1" result="shadowOffsetInner1"></feOffset>
            <feComposite in="shadowOffsetInner1" in2="SourceAlpha" operator="arithmetic" k2="-1" k3="1" result="shadowInnerInner1"></feComposite>
            <feColorMatrix values="0 0 0 0 1   0 0 0 0 1   0 0 0 0 1  0 0 0 0.2 0" type="matrix" in="shadowInnerInner1"></feColorMatrix>
        </filter>
        <path d="M3.05857419,17.9977908 L5.92629049,15.1365253 C6.8440051,14.2208751 8.08745484,13.7066413 9.38384038,13.7066413 L15.147487,13.7066413 C16.4438726,13.7066413 17.6873223,14.2208751 18.6050369,15.1365253 L23.0936482,19.6150397 C24.0140671,20.5333881 24.5313274,21.7801792 24.5313274,23.0803848 L24.5313274,55.8056111 L24.5313274,55.8056111 L19.6085073,55.8056111 C15.5531667,55.8056111 12.2656637,52.5181081 12.2656637,48.4627675 L12.2656637,38.5383678 C12.2656637,37.4519858 11.9042808,36.3964685 11.2384317,35.5380568 L2.64812699,24.4634468 C1.13521202,22.5129988 1.31116453,19.7412698 3.05857419,17.9977908 Z" id="path-7"></path>
        <filter x="-1.5%" y="-4.8%" width="109.7%" height="109.5%" filterUnits="objectBoundingBox" id="filter-8">
            <feMorphology radius="2" operator="erode" in="SourceAlpha" result="shadowSpreadInner1"></feMorphology>
            <feOffset dx="0" dy="2" in="shadowSpreadInner1" result="shadowOffsetInner1"></feOffset>
            <feComposite in="shadowOffsetInner1" in2="SourceAlpha" operator="arithmetic" k2="-1" k3="1" result="shadowInnerInner1"></feComposite>
            <feColorMatrix values="0 0 0 0 1   0 0 0 0 1   0 0 0 0 1  0 0 0 0.2 0" type="matrix" in="shadowInnerInner1"></feColorMatrix>
        </filter>
        <path d="M26.74999,6.36379776 C29.543671,3.74144485 35.95047,0 46.3309061,0 C52.7852681,0 58.4741585,0.735827803 63.3975773,2.20748341 C65.4705392,2.82710937 66.8908681,4.7340814 66.8908681,6.89766809 L66.8908681,43.5676842 L66.8908681,43.5676842 L21.8525017,43.5676842 C20.7914204,22.8258616 22.4239165,10.4245661 26.74999,6.36379776 Z" id="path-9"></path>
        <filter x="-4.4%" y="-4.6%" width="108.8%" height="109.2%" filterUnits="objectBoundingBox" id="filter-10">
            <feMorphology radius="2" operator="erode" in="SourceAlpha" result="shadowSpreadInner1"></feMorphology>
            <feOffset dx="0" dy="2" in="shadowSpreadInner1" result="shadowOffsetInner1"></feOffset>
            <feComposite in="shadowOffsetInner1" in2="SourceAlpha" operator="arithmetic" k2="-1" k3="1" result="shadowInnerInner1"></feComposite>
            <feColorMatrix values="0 0 0 0 1   0 0 0 0 1   0 0 0 0 1  0 0 0 0.2 0" type="matrix" in="shadowInnerInner1"></feColorMatrix>
        </filter>
        <path d="M4.89522904,0 C5.558233,0 6.1596671,0.263611897 6.60043634,0.691740679 C6.81713972,0.563172473 7.07139075,0.489522904 7.34284357,0.489522904 C7.84576707,0.489522904 8.28964484,0.742327741 8.55433159,1.12779213 C8.78326928,1.03167998 9.03595555,0.979045809 9.30093518,0.979045809 C10.3823593,0.979045809 11.2590268,1.85571329 11.2590268,2.93713743 C11.2590268,2.94218766 11.2590077,2.94723344 11.2589695,2.95227467 C12.3605119,3.07241416 13.2171184,4.00616675 13.2171184,5.1399905 C13.2171184,6.22663026 12.4303237,7.12950426 11.3953452,7.31000156 C10.7500196,8.77060246 9.28791235,9.79045809 7.58760502,9.79045809 C5.97056893,9.79045809 3.59944022,8.98924124 2.33613492,7.71371897 C2.14460012,7.7907132 1.93382946,7.83236647 1.71333017,7.83236647 C0.767084044,7.83236647 0,7.06528243 0,6.11903631 C0,5.25579423 0.638410358,4.54166088 1.46885064,4.4230167 L1.46856871,4.40570614 C1.46856871,3.74261324 1.90803977,3.1821643 2.51160715,2.99973404 C2.46925467,2.82248157 2.44761452,2.63757521 2.44761452,2.44761452 C2.44761452,1.09583435 3.54344887,0 4.89522904,0 Z" id="path-11"></path>
        <filter x="-18.7%" y="-25.2%" width="137.4%" height="150.4%" filterUnits="objectBoundingBox" id="filter-13">
            <feOffset dx="2" dy="2" in="SourceAlpha" result="shadowOffsetInner1"></feOffset>
            <feComposite in="shadowOffsetInner1" in2="SourceAlpha" operator="arithmetic" k2="-1" k3="1" result="shadowInnerInner1"></feComposite>
            <feColorMatrix values="0 0 0 0 1   0 0 0 0 0.958137386   0 0 0 0 0.88039253  0 0 0 1 0" type="matrix" in="shadowInnerInner1"></feColorMatrix>
        </filter>
        <path d="M11.7485497,2.93713743 C12.8299738,2.93713743 13.7066413,3.81380491 13.7066413,4.89522904 C13.7066413,5.97665318 12.8299738,6.85332066 11.7485497,6.85332066 C11.7145448,6.85332066 11.6807423,6.85245385 11.6471632,6.85074111 C11.3293061,7.98200947 10.2895986,8.81141228 9.05617373,8.81141228 C8.74218558,8.81141228 8.44075106,8.75766375 8.16056896,8.65886545 C7.76388921,9.05601895 7.21482584,9.30093518 6.60855921,9.30093518 C5.39195705,9.30093518 4.40570614,8.31468427 4.40570614,7.09808211 C4.40570614,5.88147996 5.39195705,4.89522904 6.60855921,4.89522904 C6.62529837,4.89522904 6.64199392,4.89541575 6.6586439,4.89578719 C7.10191832,4.02418622 8.0092662,3.42666033 9.05617373,3.42666033 C9.46882052,3.42666033 9.85978526,3.51949218 10.2093231,3.68541105 C10.5675694,3.22962876 11.1239021,2.93713743 11.7485497,2.93713743 Z" id="path-14"></path>
        <filter x="-26.5%" y="-38.8%" width="153.1%" height="177.6%" filterUnits="objectBoundingBox" id="filter-15">
            <feOffset dx="2" dy="2" in="SourceAlpha" result="shadowOffsetInner1"></feOffset>
            <feComposite in="shadowOffsetInner1" in2="SourceAlpha" operator="arithmetic" k2="-1" k3="1" result="shadowInnerInner1"></feComposite>
            <feColorMatrix values="0 0 0 0 1   0 0 0 0 0.958137386   0 0 0 0 0.88039253  0 0 0 1 0" type="matrix" in="shadowInnerInner1"></feColorMatrix>
        </filter>
        <path d="M22.0285307,30.839943 C22.7693423,28.0275251 36.1242398,25.9448596 46.5046759,25.9448596 C52.9590072,25.9448596 58.6478742,26.6806491 63.5712769,28.1522282 C65.6442756,28.7718271 67.0646379,30.6788174 67.0646379,32.8424316 L67.0646379,43.5676842 L67.0646379,43.5676842 L22.0285307,43.5676842 C21.3624951,37.6110616 21.3624951,33.3684812 22.0285307,30.839943 Z" id="path-16"></path>
        <filter x="-4.4%" y="-11.3%" width="108.8%" height="122.7%" filterUnits="objectBoundingBox" id="filter-17">
            <feMorphology radius="2" operator="erode" in="SourceAlpha" result="shadowSpreadInner1"></feMorphology>
            <feOffset dx="0" dy="2" in="shadowSpreadInner1" result="shadowOffsetInner1"></feOffset>
            <feComposite in="shadowOffsetInner1" in2="SourceAlpha" operator="arithmetic" k2="-1" k3="1" result="shadowInnerInner1"></feComposite>
            <feColorMatrix values="0 0 0 0 1   0 0 0 0 1   0 0 0 0 1  0 0 0 0.2 0" type="matrix" in="shadowInnerInner1"></feColorMatrix>
        </filter>
        <path d="M3.05857419,17.9977908 L5.92629049,15.1365253 C6.8440051,14.2208751 8.08745484,13.7066413 9.38384038,13.7066413 L15.147487,13.7066413 C16.4438726,13.7066413 17.6873223,14.2208751 18.6050369,15.1365253 L23.0936482,19.6150397 C24.0140671,20.5333881 24.5313274,21.7801792 24.5313274,23.0803848 L24.5313274,55.8056111 L24.5313274,55.8056111 L19.6085073,55.8056111 C15.5531667,55.8056111 12.2656637,52.5181081 12.2656637,48.4627675 L12.2656637,38.5383678 C12.2656637,37.4519858 11.9042808,36.3964685 11.2384317,35.5380568 L2.64812699,24.4634468 C1.13521202,22.5129988 1.31116453,19.7412698 3.05857419,17.9977908 Z" id="path-18"></path>
        <filter x="-1.5%" y="-4.8%" width="109.7%" height="109.5%" filterUnits="objectBoundingBox" id="filter-19">
            <feMorphology radius="2" operator="erode" in="SourceAlpha" result="shadowSpreadInner1"></feMorphology>
            <feOffset dx="0" dy="2" in="shadowSpreadInner1" result="shadowOffsetInner1"></feOffset>
            <feComposite in="shadowOffsetInner1" in2="SourceAlpha" operator="arithmetic" k2="-1" k3="1" result="shadowInnerInner1"></feComposite>
            <feColorMatrix values="0 0 0 0 1   0 0 0 0 1   0 0 0 0 1  0 0 0 0.2 0" type="matrix" in="shadowInnerInner1"></feColorMatrix>
        </filter>
    </defs>
    <g id="Page-1" stroke="none" stroke-width="1" fill="none" fill-rule="evenodd">
        <g id="Artboard" transform="translate(-194.000000, -25.000000)">
            <g id="couch-horiz" transform="translate(193.000000, 25.000000)">
                <g id="Group-2">
                    <g id="Group">
                        <g id="Path-6-+-Path-7-+-Path-3-+-Path-4-+-Path-5-Mask" transform="translate(16.643779, 0.000000)">
                            <mask id="mask-2" fill="white">
                                <use xlink:href="#path-1"></use>
                            </mask>
                            <use id="Mask" fill="#24619F" xlink:href="#path-1"></use>
                            <path d="M73.8173968,65.9850303 C73.7062796,66.0961475 73.6375522,66.2496544 73.6375522,66.4192135 L73.6375522,72.4198401 C73.6375522,73.261356 73.978644,74.0232058 74.5301147,74.5746765 C75.0815854,75.1261472 75.8434352,75.4672389 76.6849511,75.4672389 C77.1455889,75.4672389 77.5626181,75.2805286 77.8644879,74.9786588 C78.1663577,74.676789 78.353068,74.2597598 78.353068,73.799122 C78.353068,73.5848431 78.3117835,73.372571 78.2314718,73.1739118 L75.6276788,66.7331673 C75.5143118,66.4527426 75.3215237,66.2207472 75.0814591,66.058858 C74.8413945,65.8969688 74.5540533,65.8051858 73.8173968,65.9850303 Z" id="Path-6" stroke="#1A2C3D" stroke-width="2.37632478" fill="#6DCB5E" mask="url(#mask-2)"></path>
                            <path d="M41.1767229,36.4338115 C39.8924238,36.4338115 38.6996231,37.0985527 38.0240237,38.1907933 L33.5001579,45.5045203 C32.9414638,46.4077602 32.7970105,47.5072481 33.103432,48.5241489 L34.2088084,52.1924896 C34.5610294,53.3613823 35.4661692,54.2819256 36.6289525,54.6538192 L43.6623392,56.9033109 C44.932374,57.3095069 46.0337733,58.1217286 46.7971055,59.2150298 L54.1172222,69.6994452 C54.727921,70.5741354 55.0978705,71.5940378 55.1899589,72.6568421 C55.4763759,75.9624153 55.8462103,78.4431566 56.3127482,80.0962231 C56.4997649,80.7588723 56.6910565,81.2709921 56.8885236,81.7839637 L64.8440619,81.437977 C65.1363879,81.0367877 65.482501,80.4753301 65.886645,79.7565507 C66.862483,78.0210001 68.1408831,75.4170793 69.7241968,71.9460226 C69.9445013,71.4630519 70.0585111,70.9383971 70.0585111,70.4075509 L70.0585111,64.388648 C70.0585111,62.9659428 70.5571524,61.588236 71.4677253,60.4950997 L73.5057255,58.0484948 C74.11326,57.3191539 74.3676555,56.4126076 74.2878321,55.5365129 C74.2071193,54.6506568 73.7723061,53.8079606 72.912579,53.0880907 C69.7163554,50.6824956 68.4817856,49.1175728 68.4269887,48.5484083 C68.3738501,47.9964679 67.2507724,45.6858203 65.1914334,41.5982698 C64.8764648,40.9730932 64.3988221,40.4633084 63.8249125,40.1098177 C63.2510028,39.7563269 62.5808261,39.5591303 61.8807898,39.5591303 L53.851779,39.5591303 C53.0995343,39.5591303 52.3538139,39.4196117 51.6524506,39.1476527 L45.3002959,36.6845557 C44.7891629,36.4863599 44.2319145,36.4338115 41.1767229,36.4338115 Z" id="Path-7" stroke="#1A2C3D" stroke-width="2.37632478" fill="#6DCB5E" mask="url(#mask-2)"></path>
                            <path d="M55.5238259,-0.769929228 C54.7663109,-0.769929228 54.0269779,-0.537861601 53.4053443,-0.104963639 L41.9606456,7.85873661 L37.2142091,10.8515631 C36.5731078,11.2558042 36.0873539,11.8348389 35.7961793,12.4991587 C35.5050046,13.1634785 35.4084093,13.9130833 35.5456254,14.6584647 L36.4324849,19.47604 C36.6281913,20.5391515 37.2781827,21.4638829 38.2122131,22.0080283 L44.4878658,25.6640846 C45.1302221,26.0383071 45.8532994,26.2025305 46.564717,26.1620157 C47.2761346,26.121501 47.9758925,25.876248 48.5716099,25.431518 L52.9768188,22.1428302 C54.1356154,21.2777361 55.5188523,20.8803735 56.8820846,20.9400428 C58.245317,20.9997121 59.5885449,21.5164134 60.6673234,22.4794472 L71.6482296,32.2821854 C71.7894303,32.4082363 71.9400776,32.5232878 72.09885,32.6263306 L76.7365113,35.6361573 C77.5077919,36.1367159 78.4042589,36.3167307 79.2597782,36.1990536 C80.1152975,36.0813764 80.9298692,35.6660074 81.5373591,34.9757982 L82.4872139,33.8966057 C83.482158,32.7661845 84.8411045,32.1460609 86.2339203,32.0572786 C87.6267362,31.9684963 89.0534213,32.4110553 90.1838426,33.4059994 C90.566739,33.743007 90.9004602,34.1320681 91.1752482,34.5618069 L94.3245341,39.486949 C94.6822575,40.0463896 95.1832083,40.4801105 95.7597352,40.7557654 C96.3362621,41.0314203 96.9883652,41.1490093 97.6483929,41.0761862 C97.9816811,41.0394134 98.2685117,40.8710302 98.4628271,40.6285181 C98.6789576,40.3587801 98.7244066,39.9924691 98.6477861,39.4213676 L87.0520408,1.8440575 C86.936228,1.46875288 86.6982854,1.17674638 85.9914668,0.899655367 C85.0657111,0.536735416 83.591426,0.238783732 81.2036638,-0.0135490505 C76.6194052,-0.49800213 68.8433784,-0.769929228 55.5238259,-0.769929228 Z" id="Path-3" stroke="#1A2C3D" stroke-width="2.37632478" fill="#6DCB5E" mask="url(#mask-2)"></path>
                            <path d="M12.5716908,22.0317637 C11.7398116,21.5874823 10.7698763,21.476959 9.85937,21.7226971 L8.98626264,21.9583416 C7.76741107,22.2872995 6.79976039,23.2139388 6.41835909,24.4174111 L1.46605127,40.0439049 C1.34993422,40.4103002 1.31771201,40.7981205 1.37177009,41.1786548 C1.47131012,41.8793531 1.84544078,42.4733697 2.36986098,42.8673267 C2.89428118,43.2612838 3.56899093,43.4551813 4.26968916,43.3556413 L8.14645671,42.8049141 C8.4259426,42.7652108 8.66836893,42.6239328 8.8391058,42.4220311 C9.00984267,42.2201295 9.10889009,41.9576041 9.10161817,41.6754058 C9.0796263,40.8219767 9.30137294,39.999466 9.71774157,39.2914003 C10.1341102,38.5833345 10.7451008,37.9897136 11.5015969,37.5940638 L16.3584448,35.0539175 C16.8475116,34.7981341 17.2732935,34.4363748 17.6047129,33.9950443 L20.1742795,30.5733131 C20.2797237,30.4328996 20.3742243,30.2845926 20.4569471,30.1297012 C20.9029387,29.29462 20.9682247,28.357822 20.7132426,27.5182965 C20.4582604,26.6787709 19.8830101,25.9365178 19.0479288,25.4905262 L12.5716908,22.0317637 Z" id="Path-4" stroke="#1A2C3D" stroke-width="2.37632478" fill="#6DCB5E" mask="url(#mask-2)"></path>
                            <path d="M11.9255214,56.6515687 C10.9187469,56.6123069 9.98826987,56.9792399 9.29424284,57.6074115 C8.59085444,58.2440562 8.13033781,59.1490345 8.07941408,60.1714453 L6.80366431,85.7850524 C6.75444199,86.7733034 7.09767765,87.6937583 7.69941915,88.3911683 C8.30116065,89.0885783 9.161408,89.5629435 10.1462091,89.6590152 L22.024414,90.794668 C23.0271306,90.7806655 23.9336001,90.368553 24.5928912,89.7092619 C25.2637383,89.0384148 25.6786658,88.1116481 25.6786658,87.0879699 L25.6786658,83.104464 C25.6786658,81.3218976 26.460499,79.6290252 27.81756,78.4732015 L30.0587801,76.5643296 C31.0553252,75.7155611 31.5303602,74.4041418 31.3085712,73.1140566 L30.6840788,69.4815574 C30.5407694,68.6479658 30.1243911,67.9157481 29.5330877,67.3747056 C28.9417842,66.833663 28.1755555,66.4837956 27.3325451,66.4149047 L24.7437977,66.203352 C23.6072822,66.1104758 22.5444734,65.7036636 21.656649,65.0567155 C20.7688247,64.4097674 20.0559848,63.5226833 19.6194073,62.4692635 L18.3210365,59.3364189 C18.066738,58.722821 17.6579972,58.2007104 17.1481311,57.8108547 C16.6382651,57.420999 16.0272739,57.1633982 15.3684745,57.0788197 L11.9255214,56.6515687 Z" id="Path-5" stroke="#1A2C3D" stroke-width="2.37632478" fill="#6DCB5E" mask="url(#mask-2)"></path>
                            <path d="M48.9522904,-3.47826944e-15 C75.9878939,-3.47826944e-15 97.9045809,21.916687 97.9045809,48.9522904 C97.9045809,50.1873799 97.8588405,51.4117862 97.7689613,52.6239077 C95.8911056,27.3024965 74.7526114,7.34284357 48.9522904,7.34284357 C23.1519695,7.34284357 2.01347528,27.3024965 0.135661698,52.6229484 C0.0457403644,51.4117862 0,50.1873799 0,48.9522904 C0,21.916687 21.916687,-3.47826944e-15 48.9522904,-3.47826944e-15 Z" id="Combined-Shape" fill="#FFFFFF" opacity="0.4" style="mix-blend-mode: overlay;" mask="url(#mask-2)"></path>
                            <circle id="Oval" stroke="#1A2C3D" stroke-width="2.37632478" mask="url(#mask-2)" cx="48.9522904" cy="48.9522904" r="47.7641281"></circle>
                        </g>
                        <rect id="Rectangle-Copy" stroke="#1A2C3D" stroke-width="2" fill="#EA4444" x="23.0285307" y="84.2188938" width="85.6245999" height="12.6856871" rx="0.979045809"></rect>
                        <g id="Group-Copy" transform="translate(97.681661, 70.098970) scale(-1, 1) translate(-97.681661, -70.098970) translate(63.681661, 42.098970)">
                            <g id="Rectangle-Copy-6">
                                <use fill="#EA4444" fill-rule="evenodd" xlink:href="#path-3"></use>
                                <use fill="black" fill-opacity="1" filter="url(#filter-4)" xlink:href="#path-3"></use>
                                <path stroke="#1A2C3D" stroke-width="2" d="M46.5046759,1 C36.5055369,1 30.3041916,4.5622122 27.6081559,7.09290809 C23.4383016,11.0070377 22.0359711,22.9359171 22.9779191,42.5676842 L66.0646379,42.5676842 L66.0646379,6.89766809 C66.0646379,6.03686398 65.782092,5.22710819 65.2933591,4.57092239 C64.8046263,3.91473684 64.1097066,3.41212119 63.2849588,3.16559704 C58.4441572,1.7186365 52.8502026,1 46.5046759,1 Z" stroke-linejoin="square"></path>
                            </g>
                            <g id="Rectangle-Copy-7">
                                <use fill="#EA4444" fill-rule="evenodd" xlink:href="#path-5"></use>
                                <use fill="black" fill-opacity="1" filter="url(#filter-6)" xlink:href="#path-5"></use>
                                <path stroke="#1A2C3D" stroke-width="2" d="M46.5046759,26.9448596 C41.0607865,26.9448596 34.7889315,27.5233429 29.9916172,28.4827772 C27.8350863,28.9140706 25.9822505,29.4190287 24.6564761,29.9887614 C23.8296259,30.3440886 23.1143217,30.6437413 22.9955458,31.0946619 C22.3821568,33.4233327 22.3747982,37.2499801 22.9264769,42.5676842 L66.0646379,42.5676842 L66.0646379,32.8424316 C66.0646379,31.9816161 65.7820852,31.1718508 65.2933415,30.5156611 C64.8045989,29.8594729 64.1096661,29.3568597 63.2849047,29.1103466 C58.4441123,27.6634594 52.8501769,26.9448596 46.5046759,26.9448596 Z" stroke-linejoin="square"></path>
                            </g>
                            <g id="Path-Copy-2">
                                <use fill="#EA4444" fill-rule="evenodd" xlink:href="#path-7"></use>
                                <use fill="black" fill-opacity="1" filter="url(#filter-8)" xlink:href="#path-7"></use>
                                <path stroke="#1A2C3D" stroke-width="2" d="M15.147487,14.7066413 L9.38384038,14.7066413 C8.35228117,14.7066413 7.36284401,15.1158271 6.63260063,15.8444279 L3.76488433,18.7056934 C3.06966038,19.3993534 2.6870462,20.2975631 2.62871999,21.216359 C2.57039379,22.1351549 2.83635555,23.074537 3.4382835,23.8505417 L12.0285883,34.9251517 C12.8304573,35.9589202 13.2656637,37.2300591 13.2656637,38.5383678 L13.2656637,48.4627675 C13.2656637,50.2142954 13.9756107,51.8000063 15.1234396,52.9478352 C16.2712685,54.0956642 17.8569794,54.8056111 19.6085073,54.8056111 L23.5313274,54.8056111 L23.5313274,23.0803848 C23.5313274,22.0457859 23.1197333,21.05369 22.3873381,20.3229423 L17.8987268,15.8444279 C17.1684834,15.1158271 16.1790462,14.7066413 15.147487,14.7066413 Z" stroke-linejoin="square"></path>
                            </g>
                        </g>
                        <path d="M44.791346,87.6245999 C44.7913459,87.6245999 44.7913458,87.6245999 44.7913458,87.6245999 C44.7913457,87.6245999 44.7913456,87.6245999 44.7913456,87.6245999 C45.3320576,87.6245999 45.7703914,87.1862662 45.7703914,86.6455541 C45.7703914,86.1048421 45.3320578,85.6665084 44.7913458,85.6665083 L44.791346,85.6665083 C45.332058,85.6665083 45.7703918,86.104842 45.7703918,86.6455541 C45.7703918,87.1862662 45.332058,87.6245999 44.791346,87.6245999 Z" id="Rectangle" fill="#A12C2C"></path>
                        <path d="M87.8693615,87.6245999 C87.8693615,87.6245999 87.8693614,87.6245999 87.8693613,87.6245999 C87.8693613,87.6245999 87.8693612,87.6245999 87.8693612,87.6245999 C88.4100732,87.6245999 88.848407,87.1862662 88.848407,86.6455541 C88.848407,86.1048421 88.4100733,85.6665084 87.8693613,85.6665083 L87.8693615,85.6665083 C88.4100736,85.6665083 88.8484074,86.104842 88.8484074,86.6455541 C88.8484074,87.1862662 88.4100736,87.6245999 87.8693615,87.6245999 Z" id="Rectangle-Copy-2" fill="#A12C2C"></path>
                        <g id="Group-Copy-2" transform="translate(0.000000, 42.098970)">
                            <g id="Rectangle-Copy-6">
                                <use fill="#EA4444" fill-rule="evenodd" xlink:href="#path-9"></use>
                                <use fill="black" fill-opacity="1" filter="url(#filter-10)" xlink:href="#path-9"></use>
                                <path stroke="#1A2C3D" stroke-width="2" d="M46.3309061,1 C36.3317671,1 30.1304218,4.5622122 27.4343861,7.09290809 C23.2645318,11.0070377 21.8622013,22.9359171 22.8041493,42.5676842 L65.8908681,42.5676842 L65.8908681,6.89766809 C65.8908681,6.03686398 65.6083222,5.22710819 65.1195893,4.57092239 C64.6308565,3.91473684 63.9359368,3.41212119 63.111189,3.16559704 C58.2703874,1.7186365 52.6764328,1 46.3309061,1 Z" stroke-linejoin="square"></path>
                            </g>
                            <g id="popcorn" transform="translate(43.567538, 4.895229)">
                                <g id="Combined-Shape" transform="translate(0.489523, 0.000000)">
                                    <mask id="mask-12" fill="white">
                                        <use xlink:href="#path-11"></use>
                                    </mask>
                                    <g id="Mask">
                                        <use fill="#FFD587" fill-rule="evenodd" xlink:href="#path-11"></use>
                                        <use fill="black" fill-opacity="1" filter="url(#filter-13)" xlink:href="#path-11"></use>
                                        <path stroke="#1A2C3D" stroke-width="1.46856871" d="M4.89522904,-0.734284357 C4.01657193,-0.734284357 3.22109721,-0.378138194 2.64528677,0.197672248 C2.06947633,0.773482689 1.71333017,1.56895741 1.71575013,2.57244528 C1.5024961,2.71499595 1.31536484,2.89414306 1.16323464,3.10178913 C1.00288491,3.3206542 0.881117282,3.57122051 0.809071099,3.8439423 C0.441443131,3.99025065 0.117497992,4.2229211 -0.137370319,4.51720674 C-0.509186657,4.94652732 -0.734284357,5.50647718 -0.734284357,6.11903631 C-0.734284357,6.79492639 -0.46032577,7.40683002 -0.0173946608,7.84976113 C0.425536448,8.29269224 1.03744008,8.56665083 2.13773056,8.5297319 C3.57966557,9.75835874 5.93758976,10.5247424 7.58760502,10.5247424 C8.5723407,10.5247424 9.48906925,10.2337774 10.2568036,9.73365617 C10.9457499,9.2848595 11.514475,8.66722421 11.9044848,7.93969621 C12.4410536,7.76910679 12.9109016,7.44890946 13.2645471,7.02766342 C13.6931343,6.51715044 13.9514028,5.85875131 13.9514028,5.1399905 C13.9514028,4.38980739 13.6701606,3.70523699 13.2069799,3.1841586 C12.865758,2.80028404 12.4255935,2.50549719 11.9267439,2.33890866 C11.8124596,1.83566087 11.5572445,1.38585207 11.2047325,1.03334012 C10.7175083,0.546115898 10.0444143,0.244761452 9.30093518,0.244761452 C9.12491014,0.244761452 8.95285154,0.261718558 8.78649145,0.294088815 C8.39984934,-0.0416367076 7.89503421,-0.244761452 7.34284357,-0.244761452 C7.12792948,-0.244761452 6.92025175,-0.213899484 6.72420637,-0.156488871 C6.20678884,-0.520497281 5.57597793,-0.734284357 4.89522904,-0.734284357 Z"></path>
                                    </g>
                                    <g mask="url(#mask-12)">
                                        <use fill="#FFD587" fill-rule="evenodd" xlink:href="#path-14"></use>
                                        <use fill="black" fill-opacity="1" filter="url(#filter-15)" xlink:href="#path-14"></use>
                                        <path stroke="#1A2C3D" stroke-width="1.46856871" d="M11.7485497,2.20285307 C11.0910158,2.20285307 10.4884918,2.43850202 10.0210953,2.83019629 C9.71502376,2.74056006 9.39123001,2.69237597 9.05617373,2.69237597 C8.40656769,2.69237597 7.79911404,2.87317171 7.27483093,3.18774158 C6.85050432,3.44233754 6.48083509,3.78510099 6.18905913,4.19063192 C5.54586543,4.28265284 4.96987329,4.58302845 4.53168942,5.02121232 C4.00017209,5.55272965 3.67142178,6.28701401 3.67142178,7.09808211 C3.67142178,7.90915022 4.00017209,8.64343458 4.53168942,9.17495191 C5.06320675,9.70646924 5.79749111,10.0352195 6.60855921,10.0352195 C7.25606669,10.0352195 7.85454471,9.82569123 8.33912617,9.4704402 C8.57042264,9.5197192 8.81026452,9.54569664 9.05617373,9.54569664 C9.82016093,9.54569664 10.5261488,9.29587998 11.1096803,8.87149341 C11.5807795,8.52887583 11.9714906,8.07162929 12.2454026,7.54191764 C12.7897168,7.44029652 13.2763719,7.17500144 13.652347,6.79902635 C14.1395712,6.31180213 14.4409257,5.63870814 14.4409257,4.89522904 C14.4409257,4.15174995 14.1395712,3.47865596 13.652347,2.99143174 C13.1651228,2.50420752 12.4920288,2.20285307 11.7485497,2.20285307 Z"></path>
                                    </g>
                                </g>
                                <path d="M14.5524079,9.54569664 L0.0996816242,9.54569664 L2.32333398,21.8120071 L12.8805086,21.3347302 L14.5524079,9.54569664 Z" id="Rectangle-Copy-9" stroke="#1A2C3D" stroke-width="1.46856871" fill="#FFFFFF"></path>
                                <path d="M3.52456491,10.279981 L4.44095179,21.0494849 L2.50635727,21.0494849 L0.979045809,10.279981 L3.52456491,10.279981 Z M8.61560312,10.279981 L8.31014083,21.0494849 L6.37554631,21.0494849 L6.07008402,10.279981 L8.61560312,10.279981 Z M13.7066413,10.279981 L12.1793299,21.0494849 L10.2447353,21.0494849 L11.1611222,10.279981 L13.7066413,10.279981 Z" id="Combined-Shape" fill="#EA4444"></path>
                                <path d="M14.5524079,9.54569664 L0.0996816242,9.54569664 L2.32333398,21.8120071 L12.8805086,21.3347302 L14.5524079,9.54569664 Z" id="Rectangle-Copy-12" stroke="#1A2C3D" stroke-width="1.46856871"></path>
                                <rect id="Rectangle" stroke="#1A2C3D" stroke-width="1.46856871" fill="#FFFFFF" x="-0.734284357" y="6.60855921" width="16.1542558" height="2.93713743" rx="0.489522904"></rect>
                                <polygon id="Rectangle" fill="#1A2C3D" opacity="0.300000012" points="1.46856871 10.279981 14.1961642 10.279981 14.1961642 11.5308712 1.35111748 11.5308712"></polygon>
                            </g>
                            <g id="laptop" transform="translate(30.839943, 14.196164)">
                                <path d="M14.6856871,-0.734284357 L0.979045809,-0.734284357 C0.505922748,-0.734284357 0.0775902066,-0.542513346 -0.23246157,-0.23246157 C-0.542513346,0.0775902066 -0.734284357,0.505922748 -0.734284357,0.979045809 L-0.734284357,9.54569664 L16.3990173,9.54569664 L16.3990173,0.979045809 C16.3990173,0.505922748 16.2072463,0.0775902066 15.8971945,-0.23246157 C15.5871427,-0.542513346 15.1588102,-0.734284357 14.6856871,-0.734284357 Z" id="Rectangle" stroke="#1A2C3D" stroke-width="1.46856871" fill="#DFE8EF"></path>
                                <rect id="Rectangle" fill="#FFFFFF" transform="translate(5.874275, 6.608559) rotate(10.000000) translate(-5.874275, -6.608559) " x="3.42666033" y="5.87427485" width="4.89522904" height="1.46856871" rx="0.489522904"></rect>
                                <path d="M11.0210682,2.44761452 L12.4760312,2.44761452 C12.6371965,2.44761452 12.7918546,2.51119716 12.906417,2.62455372 L13.7978659,3.50661889 C14.0232831,3.72966333 14.0409493,4.08796286 13.8385667,4.33210019 L12.2196364,6.28504139 C12.0039599,6.54521537 11.6182068,6.58128769 11.3580328,6.36561119 C11.3287288,6.34131898 11.3017553,6.31434547 11.2774631,6.28504139 L9.65853273,4.33210019 C9.45615013,4.08796286 9.47381628,3.72966333 9.69923352,3.50661889 L10.5906824,2.62455372 C10.7052448,2.51119716 10.8599029,2.44761452 11.0210682,2.44761452 Z" id="Rectangle-Copy-51" fill="#EA4444" transform="translate(11.748550, 4.650468) rotate(20.000000) translate(-11.748550, -4.650468) "></path>
                                <circle id="Oval" fill="#FFC324" cx="5.87427485" cy="2.44761452" r="1.46856871"></circle>
                                <path d="M16.3990173,9.54569664 L-1.01876512,9.54569664 L-0.0339631196,12.5001027 L16.3990173,11.9700065 L16.3990173,9.54569664 Z" id="Rectangle-Copy-3" stroke="#1A2C3D" stroke-width="1.46856871" fill="#B4C6D3"></path>
                                <path d="M5.965,10.2791832 L7.34284357,11.7485497 L0.489522904,11.7485497 C0.21916687,11.7485497 -4.66491296e-16,11.5293828 0,11.2590268 L0,10.279981 L5.965,10.2791832 Z M0,3.91618324 L4.589,8.81118324 L0,8.81141228 L0,3.91618324 Z" id="Combined-Shape" fill="#859DB4"></path>
                            </g>
                            <g id="Rectangle-Copy-8">
                                <use fill="#EA4444" fill-rule="evenodd" xlink:href="#path-16"></use>
                                <use fill="black" fill-opacity="1" filter="url(#filter-17)" xlink:href="#path-16"></use>
                                <path stroke="#1A2C3D" stroke-width="2" d="M46.5046759,26.9448596 C41.0607865,26.9448596 34.7889315,27.5233429 29.9916172,28.4827772 C27.8350863,28.9140706 25.9822505,29.4190287 24.6564761,29.9887614 C23.8296259,30.3440886 23.1143217,30.6437413 22.9955458,31.0946619 C22.3821568,33.4233327 22.3747982,37.2499801 22.9264769,42.5676842 L66.0646379,42.5676842 L66.0646379,32.8424316 C66.0646379,31.9816161 65.7820852,31.1718508 65.2933415,30.5156611 C64.8045989,29.8594729 64.1096661,29.3568597 63.2849047,29.1103466 C58.4441123,27.6634594 52.8501769,26.9448596 46.5046759,26.9448596 Z" stroke-linejoin="square"></path>
                            </g>
                            <g id="Path-Copy-2">
                                <use fill="#EA4444" fill-rule="evenodd" xlink:href="#path-18"></use>
                                <use fill="black" fill-opacity="1" filter="url(#filter-19)" xlink:href="#path-18"></use>
                                <path stroke="#1A2C3D" stroke-width="2" d="M15.147487,14.7066413 L9.38384038,14.7066413 C8.35228117,14.7066413 7.36284401,15.1158271 6.63260063,15.8444279 L3.76488433,18.7056934 C3.06966038,19.3993534 2.6870462,20.2975631 2.62871999,21.216359 C2.57039379,22.1351549 2.83635555,23.074537 3.4382835,23.8505417 L12.0285883,34.9251517 C12.8304573,35.9589202 13.2656637,37.2300591 13.2656637,38.5383678 L13.2656637,48.4627675 C13.2656637,50.2142954 13.9756107,51.8000063 15.1234396,52.9478352 C16.2712685,54.0956642 17.8569794,54.8056111 19.6085073,54.8056111 L23.5313274,54.8056111 L23.5313274,23.0803848 C23.5313274,22.0457859 23.1197333,21.05369 22.3873381,20.3229423 L17.8987268,15.8444279 C17.1684834,15.1158271 16.1790462,14.7066413 15.147487,14.7066413 Z" stroke-linejoin="square"></path>
                            </g>
                        </g>
                        <path d="M24.4761452,85.6665083 L64.6170234,85.6665083 C57.926877,86.9719027 51.2367307,87.6245999 44.5465843,87.6245999 C37.8564379,87.6245999 31.1662916,86.9719027 24.4761452,85.6665083 Z" id="Rectangle" fill="#A92626"></path>
                        <path d="M67.0646379,85.6665083 L107.205516,85.6665083 C100.51537,86.9719027 93.8252234,87.6245999 87.135077,87.6245999 C80.4449306,87.6245999 73.7547843,86.9719027 67.0646379,85.6665083 Z" id="Rectangle-Copy-5" fill="#A92626"></path>
                    </g>
                </g>
                <g id="RailsConf-2020.2" transform="translate(147.592923, 28.318742)" fill-rule="nonzero">
                    <path d="M2.94416776,20.4676278 C3.03853211,20.4676278 3.11874181,20.4346003 3.18479685,20.3685452 C3.2508519,20.3024902 3.28387942,20.2222805 3.28387942,20.1279161 L3.28387942,20.1279161 L3.28387942,12.0880734 C3.28387942,11.993709 3.3310616,11.9465269 3.42542595,11.9465269 L3.42542595,11.9465269 L6.8225426,11.9465269 C6.89803408,11.9465269 6.95465269,11.9842726 6.99239843,12.0597641 L6.99239843,12.0597641 L10.7292267,20.212844 C10.8047182,20.3826999 10.9368283,20.4676278 11.125557,20.4676278 L11.125557,20.4676278 L13.8432503,20.4676278 C14.0508519,20.4676278 14.1546527,20.3921363 14.1546527,20.2411533 C14.1546527,20.2034076 14.1357798,20.146789 14.0980341,20.0712975 L14.0980341,20.0712975 L10.106422,11.8332896 C10.0875491,11.7955439 10.0875491,11.7577982 10.106422,11.7200524 C10.1252949,11.6823067 10.1536042,11.6634338 10.1913499,11.6634338 C11.3803408,11.3048493 12.3098296,10.6678899 12.9798165,9.7525557 C13.6498034,8.83722149 13.9847969,7.72844037 13.9847969,6.42621232 C13.9847969,5.2938401 13.7394495,4.28885976 13.2487549,3.4112713 C12.7580603,2.53368283 12.0692005,1.8542595 11.1821756,1.37300131 C10.2951507,0.891743119 9.27601573,0.651114024 8.12477064,0.651114024 L8.12477064,0.651114024 L0.339711664,0.651114024 C0.245347313,0.651114024 0.165137615,0.684141547 0.0990825688,0.750196592 C0.0330275229,0.816251638 2.13162821e-13,0.896461337 2.13162821e-13,0.990825688 L2.13162821e-13,0.990825688 L2.13162821e-13,20.1279161 C2.13162821e-13,20.2222805 0.0330275229,20.3024902 0.0990825688,20.3685452 C0.165137615,20.4346003 0.245347313,20.4676278 0.339711664,20.4676278 L0.339711664,20.4676278 L2.94416776,20.4676278 Z M7.67182176,9.39868938 L3.42542595,9.39868938 C3.3310616,9.39868938 3.28387942,9.35150721 3.28387942,9.25714286 L3.28387942,9.25714286 L3.28387942,3.62359109 C3.28387942,3.52922674 3.3310616,3.48204456 3.42542595,3.48204456 L3.42542595,3.48204456 L7.67182176,3.48204456 C8.57771953,3.48204456 9.30904325,3.75570118 9.86579292,4.30301442 C10.4225426,4.85032765 10.7009174,5.56749672 10.7009174,6.45452163 C10.7009174,7.34154653 10.4225426,8.05399738 9.86579292,8.59187418 C9.30904325,9.12975098 8.57771953,9.39868938 7.67182176,9.39868938 L7.67182176,9.39868938 Z M21.0621232,20.6941022 C22.8173001,20.6941022 24.1572739,20.1845347 25.0820446,19.1653997 C25.1197903,19.127654 25.157536,19.1134993 25.1952818,19.1229358 C25.2330275,19.1323722 25.2519004,19.1653997 25.2519004,19.2220183 L25.2519004,19.2220183 L25.2519004,20.1279161 C25.2519004,20.2222805 25.2849279,20.3024902 25.350983,20.3685452 C25.417038,20.4346003 25.4972477,20.4676278 25.5916121,20.4676278 L25.5916121,20.4676278 L28.1960682,20.4676278 C28.2904325,20.4676278 28.3706422,20.4346003 28.4366972,20.3685452 C28.5027523,20.3024902 28.5357798,20.2222805 28.5357798,20.1279161 L28.5357798,20.1279161 L28.5357798,10.5876802 C28.5357798,9.66290957 28.2904325,8.83722149 27.7997379,8.11061599 C27.3090433,7.38401048 26.6107471,6.81310616 25.7048493,6.39790301 C24.7989515,5.98269987 23.7515072,5.7750983 22.5625164,5.7750983 C20.9205767,5.7750983 19.5570118,6.14311927 18.4718218,6.87916121 C17.3866317,7.61520315 16.7685452,8.55884666 16.6175623,9.71009174 C16.5986894,9.78558322 16.6222805,9.84692005 16.6883355,9.89410223 C16.7543906,9.9412844 16.8346003,9.97431193 16.9289646,9.9931848 L16.9289646,9.9931848 L19.6749672,10.3328965 C19.8825688,10.3706422 20.0146789,10.2762779 20.0712975,10.0498034 C20.1845347,9.59685452 20.4629096,9.2429882 20.906422,8.98820446 C21.3499345,8.73342071 21.9302752,8.60602883 22.6474443,8.60602883 C23.5155963,8.60602883 24.1667104,8.80891219 24.6007864,9.2146789 C25.0348624,9.62044561 25.2519004,10.1913499 25.2519004,10.9273919 L25.2519004,10.9273919 L25.2519004,11.6068152 C25.2519004,11.7011796 25.2047182,11.7483617 25.1103539,11.7483617 L25.1103539,11.7483617 L22.0812582,11.7483617 C20.212844,11.7483617 18.7643512,12.1588467 17.7357798,12.9798165 C16.7072084,13.8007864 16.1929227,14.9473132 16.1929227,16.4193971 C16.1929227,17.8348624 16.6505898,18.9011796 17.565924,19.6183486 C18.4812582,20.3355177 19.6466579,20.6941022 21.0621232,20.6941022 Z M21.8830931,18.0896461 C21.1847969,18.0896461 20.6138925,17.9245085 20.1703801,17.5942333 C19.7268676,17.2639581 19.5051114,16.7968545 19.5051114,16.1929227 C19.5051114,15.4946265 19.7929227,14.9567497 20.3685452,14.5792923 C20.9441678,14.2018349 21.7321101,14.0131062 22.7323722,14.0131062 L22.7323722,14.0131062 L25.1103539,14.0131062 C25.2047182,14.0131062 25.2519004,14.0602883 25.2519004,14.1546527 L25.2519004,14.1546527 L25.2519004,15.48519 C25.2519004,16.2401048 24.9216252,16.8629096 24.2610747,17.3536042 C23.6005242,17.8442988 22.8078637,18.0896461 21.8830931,18.0896461 Z M33.6880734,4.01992136 C34.2731324,4.01992136 34.7543906,3.83119266 35.131848,3.45373526 C35.5093054,3.07627785 35.6980341,2.59501966 35.6980341,2.00996068 C35.6980341,1.4249017 35.5093054,0.943643512 35.131848,0.566186107 C34.7543906,0.188728702 34.2731324,1.42108547e-14 33.6880734,1.42108547e-14 C33.1030144,1.42108547e-14 32.6217562,0.188728702 32.2442988,0.566186107 C31.8668414,0.943643512 31.6781127,1.4249017 31.6781127,2.00996068 C31.6781127,2.59501966 31.8668414,3.07627785 32.2442988,3.45373526 C32.6217562,3.83119266 33.1030144,4.01992136 33.6880734,4.01992136 Z M34.9336828,20.4676278 C35.0280472,20.4676278 35.1082569,20.4346003 35.1743119,20.3685452 C35.240367,20.3024902 35.2733945,20.2222805 35.2733945,20.1279161 L35.2733945,20.1279161 L35.2733945,6.3129751 C35.2733945,6.21861075 35.240367,6.13840105 35.1743119,6.072346 C35.1082569,6.00629096 35.0280472,5.97326343 34.9336828,5.97326343 L34.9336828,5.97326343 L32.3292267,5.97326343 C32.2348624,5.97326343 32.1546527,6.00629096 32.0885976,6.072346 C32.0225426,6.13840105 31.9895151,6.21861075 31.9895151,6.3129751 L31.9895151,6.3129751 L31.9895151,20.1279161 C31.9895151,20.2222805 32.0225426,20.3024902 32.0885976,20.3685452 C32.1546527,20.4346003 32.2348624,20.4676278 32.3292267,20.4676278 L32.3292267,20.4676278 L34.9336828,20.4676278 Z M41.9826999,20.4676278 C42.0770642,20.4676278 42.1572739,20.4346003 42.223329,20.3685452 C42.289384,20.3024902 42.3224115,20.2222805 42.3224115,20.1279161 L42.3224115,20.1279161 L42.3224115,0.990825688 C42.3224115,0.896461337 42.289384,0.816251638 42.223329,0.750196592 C42.1572739,0.684141547 42.0770642,0.651114024 41.9826999,0.651114024 L41.9826999,0.651114024 L39.3782438,0.651114024 C39.2838794,0.651114024 39.2036697,0.684141547 39.1376147,0.750196592 C39.0715596,0.816251638 39.0385321,0.896461337 39.0385321,0.990825688 L39.0385321,0.990825688 L39.0385321,20.1279161 C39.0385321,20.2222805 39.0715596,20.3024902 39.1376147,20.3685452 C39.2036697,20.4346003 39.2838794,20.4676278 39.3782438,20.4676278 L39.3782438,20.4676278 L41.9826999,20.4676278 Z M51.1832241,20.6374836 C52.938401,20.6374836 54.3444299,20.255308 55.4013106,19.4909567 C56.4581913,18.7266055 56.9866317,17.674443 56.9866317,16.3344692 C56.9866317,15.4474443 56.7507208,14.725557 56.2788991,14.1688073 C55.8070773,13.6120577 55.2314548,13.1779817 54.5520315,12.8665793 C53.8726081,12.5551769 53.0327654,12.2484928 52.0325033,11.9465269 L52.0325033,11.9465269 L51.4096986,11.776671 C50.3716907,11.493578 49.6309305,11.234076 49.1874181,10.9981651 C48.7439056,10.7622543 48.5221494,10.4178244 48.5221494,9.96487549 C48.5221494,9.47418087 48.7533421,9.09200524 49.2157274,8.81834862 C49.6781127,8.54469201 50.2773263,8.4078637 51.0133683,8.4078637 C51.8437746,8.4078637 52.4996068,8.57300131 52.980865,8.90327654 C53.4621232,9.23355177 53.7027523,9.6440367 53.7027523,10.1347313 C53.7027523,10.2290957 53.7357798,10.3093054 53.8018349,10.3753604 C53.8678899,10.4414155 53.9480996,10.474443 54.042464,10.474443 L54.042464,10.474443 L56.4487549,10.474443 C56.5431193,10.474443 56.623329,10.4414155 56.689384,10.3753604 C56.7554391,10.3093054 56.7884666,10.2290957 56.7884666,10.1347313 C56.7884666,9.30432503 56.5525557,8.56356488 56.0807339,7.91245085 C55.6089122,7.26133683 54.9389253,6.75176933 54.0707733,6.38374836 C53.2026212,6.01572739 52.1929227,5.83171691 51.0416776,5.83171691 C49.3431193,5.83171691 47.9748362,6.22332896 46.9368283,7.00655308 C45.8988204,7.7897772 45.3798165,8.84193971 45.3798165,10.1630406 C45.3798165,11.0311927 45.606291,11.7436435 46.0592398,12.3003932 C46.5121887,12.8571429 47.0689384,13.2959371 47.7294889,13.6167759 C48.3900393,13.9376147 49.2015727,14.2395806 50.1640891,14.5226737 L50.1640891,14.5226737 L51.2398427,14.8623853 C52.1079948,15.1077326 52.7355177,15.3389253 53.1224115,15.5559633 C53.5093054,15.7730013 53.7027523,16.0985583 53.7027523,16.5326343 C53.7027523,17.0044561 53.4668414,17.3960682 52.9950197,17.7074705 C52.5231979,18.0188729 51.9098296,18.174574 51.1549148,18.174574 C50.3622543,18.174574 49.706422,18 49.1874181,17.6508519 C48.6684142,17.3017038 48.4089122,16.8912189 48.4089122,16.4193971 L48.4089122,16.4193971 L48.4089122,16.3627785 C48.4089122,16.2684142 48.3758847,16.1882045 48.3098296,16.1221494 C48.2437746,16.0560944 48.1635649,16.0230668 48.0692005,16.0230668 L48.0692005,16.0230668 L45.5779817,16.0230668 C45.4836173,16.0230668 45.4034076,16.0560944 45.3373526,16.1221494 C45.2712975,16.1882045 45.23827,16.2684142 45.23827,16.3627785 L45.23827,16.3627785 L45.23827,16.6175623 C45.23827,17.3724771 45.4836173,18.0566186 45.9743119,18.6699869 C46.4650066,19.2833552 47.1585845,19.7646134 48.0550459,20.1137615 C48.9515072,20.4629096 49.9942333,20.6374836 51.1832241,20.6374836 Z M66.6967235,20.6941022 C68.0933159,20.6941022 69.3294889,20.429882 70.4052425,19.9014417 C71.4809961,19.3730013 72.3114024,18.6228047 72.8964613,17.6508519 C73.4815203,16.6788991 73.7740498,15.5512451 73.7740498,14.2678899 C73.7740498,14.1923984 73.7410223,14.1263434 73.6749672,14.0697248 C73.6089122,14.0131062 73.5287025,13.9847969 73.4343381,13.9847969 L73.4343381,13.9847969 L70.829882,13.8715596 C70.6034076,13.8715596 70.4901704,13.9753604 70.4901704,14.182962 C70.4901704,15.2964613 70.1457405,16.1882045 69.4568807,16.8581913 C68.768021,17.5281782 67.8479685,17.8631717 66.6967235,17.8631717 C65.5454784,17.8631717 64.6207077,17.52346 63.9224115,16.8440367 C63.2241153,16.1646134 62.8749672,15.2775885 62.8749672,14.182962 L62.8749672,14.182962 L62.8749672,6.96408912 C62.8749672,5.85058978 63.2241153,4.95412844 63.9224115,4.27470511 C64.6207077,3.59528178 65.5454784,3.25557012 66.6967235,3.25557012 C67.8479685,3.25557012 68.768021,3.59528178 69.4568807,4.27470511 C70.1457405,4.95412844 70.4901704,5.85058978 70.4901704,6.96408912 C70.4901704,7.17169069 70.6034076,7.27549148 70.829882,7.27549148 L70.829882,7.27549148 L73.4343381,7.13394495 C73.5287025,7.13394495 73.6089122,7.10091743 73.6749672,7.03486239 C73.7410223,6.96880734 73.7740498,6.88859764 73.7740498,6.79423329 C73.7740498,5.52975098 73.4815203,4.41625164 72.8964613,3.45373526 C72.3114024,2.49121887 71.4809961,1.7457405 70.4052425,1.21730013 C69.3294889,0.688859764 68.0933159,0.424639581 66.6967235,0.424639581 C65.2812582,0.424639581 64.0356488,0.698296199 62.9598952,1.24560944 C61.8841415,1.79292267 61.0537353,2.56671035 60.4686763,3.56697248 C59.8836173,4.5672346 59.5910878,5.72791612 59.5910878,7.04901704 L59.5910878,7.04901704 L59.5910878,14.0414155 C59.5910878,15.3625164 59.8836173,16.5231979 60.4686763,17.52346 C61.0537353,18.5237221 61.8841415,19.302228 62.9598952,19.8589777 C64.0356488,20.4157274 65.2812582,20.6941022 66.6967235,20.6941022 Z M83.1161206,20.6941022 C84.5693316,20.6941022 85.8243775,20.3119266 86.8812582,19.5475754 C87.9381389,18.7832241 88.6836173,17.7310616 89.1176933,16.3910878 C89.4385321,15.4285714 89.5989515,14.3528178 89.5989515,13.163827 C89.5989515,11.9182176 89.4290957,10.842464 89.089384,9.93656619 C88.655308,8.63433814 87.9145478,7.61520315 86.8671035,6.87916121 C85.8196592,6.14311927 84.578768,5.7750983 83.1444299,5.7750983 C81.6346003,5.7750983 80.3418087,6.14311927 79.266055,6.87916121 C78.1903014,7.61520315 77.4353866,8.64377457 77.0013106,9.96487549 C76.6993447,10.908519 76.5483617,11.9842726 76.5483617,13.1921363 C76.5483617,14.3245085 76.7087811,15.4002621 77.0296199,16.4193971 C77.4636959,17.7593709 78.2138925,18.8068152 79.2802097,19.56173 C80.3465269,20.3166448 81.6251638,20.6941022 83.1161206,20.6941022 Z M83.1161206,17.8631717 C82.3800786,17.8631717 81.7525557,17.6650066 81.2335518,17.2686763 C80.7145478,16.872346 80.3512451,16.3155963 80.1436435,15.5984273 C79.9549148,14.9378768 79.8605505,14.1452163 79.8605505,13.2204456 C79.8605505,12.295675 79.9549148,11.5030144 80.1436435,10.842464 C80.370118,10.1252949 80.7381389,9.57326343 81.2477064,9.18636959 C81.7572739,8.79947575 82.3612058,8.60602883 83.059502,8.60602883 C83.7955439,8.60602883 84.4183486,8.79947575 84.9279161,9.18636959 C85.4374836,9.57326343 85.7960682,10.1252949 86.0036697,10.842464 C86.1923984,11.4086501 86.2867628,12.2013106 86.2867628,13.2204456 C86.2867628,14.182962 86.1923984,14.9756225 86.0036697,15.5984273 C85.7771953,16.3155963 85.4138925,16.872346 84.9137615,17.2686763 C84.4136304,17.6650066 83.8144168,17.8631717 83.1161206,17.8631717 Z M95.6571429,20.4676278 C95.7515072,20.4676278 95.8317169,20.4346003 95.897772,20.3685452 C95.963827,20.3024902 95.9968545,20.2222805 95.9968545,20.1279161 L95.9968545,20.1279161 L95.9968545,11.493578 C95.9968545,10.625426 96.2469201,9.92712975 96.7470511,9.39868938 C97.2471822,8.87024902 97.9030144,8.60602883 98.7145478,8.60602883 C99.5260813,8.60602883 100.177195,8.87496723 100.66789,9.41284404 C101.158585,9.95072084 101.403932,10.6537353 101.403932,11.5218873 L101.403932,11.5218873 L101.403932,20.1279161 C101.403932,20.2222805 101.436959,20.3024902 101.503014,20.3685452 C101.569069,20.4346003 101.649279,20.4676278 101.743644,20.4676278 L101.743644,20.4676278 L104.3481,20.4676278 C104.442464,20.4676278 104.522674,20.4346003 104.588729,20.3685452 C104.654784,20.3024902 104.687811,20.2222805 104.687811,20.1279161 L104.687811,20.1279161 L104.687811,10.842464 C104.687811,9.27601573 104.230144,8.03984273 103.31481,7.13394495 C102.399476,6.22804718 101.177457,5.7750983 99.6487549,5.7750983 C98.0823067,5.7750983 96.9121887,6.28466579 96.138401,7.30380079 C96.1195282,7.3604194 96.0912189,7.37929227 96.0534731,7.3604194 C96.0157274,7.34154653 95.9968545,7.30380079 95.9968545,7.24718218 L95.9968545,7.24718218 L95.9968545,6.3412844 C95.9968545,6.24692005 95.963827,6.16671035 95.897772,6.10065531 C95.8317169,6.03460026 95.7515072,6.00157274 95.6571429,6.00157274 L95.6571429,6.00157274 L93.0526868,6.00157274 C92.9583224,6.00157274 92.8781127,6.03460026 92.8120577,6.10065531 C92.7460026,6.16671035 92.7129751,6.24692005 92.7129751,6.3412844 L92.7129751,6.3412844 L92.7129751,20.1279161 C92.7129751,20.2222805 92.7460026,20.3024902 92.8120577,20.3685452 C92.8781127,20.4346003 92.9583224,20.4676278 93.0526868,20.4676278 L93.0526868,20.4676278 L95.6571429,20.4676278 Z M112.359633,20.4676278 C112.453997,20.4676278 112.534207,20.4346003 112.600262,20.3685452 C112.666317,20.3024902 112.699345,20.2222805 112.699345,20.1279161 L112.699345,20.1279161 L112.699345,9.03066841 C112.699345,8.93630406 112.746527,8.88912189 112.840891,8.88912189 L112.840891,8.88912189 L115.643512,8.88912189 C115.737877,8.88912189 115.818087,8.85609436 115.884142,8.79003932 C115.950197,8.72398427 115.983224,8.64377457 115.983224,8.54941022 L115.983224,8.54941022 L115.983224,6.3129751 C115.983224,6.21861075 115.950197,6.13840105 115.884142,6.072346 C115.818087,6.00629096 115.737877,5.97326343 115.643512,5.97326343 L115.643512,5.97326343 L112.840891,5.97326343 C112.746527,5.97326343 112.699345,5.92608126 112.699345,5.83171691 L112.699345,5.83171691 L112.699345,5.54862385 C112.699345,4.69934469 112.855046,4.11428571 113.166448,3.79344692 C113.477851,3.47260813 114.039318,3.31218873 114.850852,3.31218873 L114.850852,3.31218873 L115.586894,3.31218873 C115.681258,3.31218873 115.761468,3.27916121 115.827523,3.21310616 C115.893578,3.14705111 115.926606,3.06684142 115.926606,2.97247706 L115.926606,2.97247706 L115.926606,0.990825688 C115.926606,0.896461337 115.893578,0.816251638 115.827523,0.750196592 C115.761468,0.684141547 115.681258,0.651114024 115.586894,0.651114024 L115.586894,0.651114024 L114.596068,0.651114024 C113.256094,0.632241153 112.218087,0.764351245 111.482045,1.0474443 C110.746003,1.33053735 110.217562,1.80707733 109.896723,2.47706422 C109.575885,3.14705111 109.415465,4.09541284 109.415465,5.32214941 L109.415465,5.32214941 L109.415465,5.83171691 C109.415465,5.92608126 109.368283,5.97326343 109.273919,5.97326343 L109.273919,5.97326343 L107.518742,5.97326343 C107.424377,5.97326343 107.344168,6.00629096 107.278113,6.072346 C107.212058,6.13840105 107.17903,6.21861075 107.17903,6.3129751 L107.17903,6.3129751 L107.17903,8.54941022 C107.17903,8.64377457 107.212058,8.72398427 107.278113,8.79003932 C107.344168,8.85609436 107.424377,8.88912189 107.518742,8.88912189 L107.518742,8.88912189 L109.273919,8.88912189 C109.368283,8.88912189 109.415465,8.93630406 109.415465,9.03066841 L109.415465,9.03066841 L109.415465,20.1279161 C109.415465,20.2222805 109.448493,20.3024902 109.514548,20.3685452 C109.580603,20.4346003 109.660813,20.4676278 109.755177,20.4676278 L109.755177,20.4676278 L112.359633,20.4676278 Z M136.592398,20.4676278 C136.686763,20.4676278 136.766972,20.4346003 136.833028,20.3685452 C136.899083,20.3024902 136.93211,20.2222805 136.93211,20.1279161 L136.93211,20.1279161 L136.93211,17.9764089 C136.93211,17.8820446 136.899083,17.8018349 136.833028,17.7357798 C136.766972,17.6697248 136.686763,17.6366972 136.592398,17.6366972 L136.592398,17.6366972 L128.524246,17.6366972 C128.467628,17.6366972 128.4346,17.6178244 128.425164,17.5800786 C128.415727,17.5423329 128.429882,17.5045872 128.467628,17.4668414 L128.467628,17.4668414 L129.543381,16.2778506 C131.619397,14.0131062 133.110354,12.3145478 134.016252,11.1821756 C135.658191,9.16277851 136.479161,7.37929227 136.479161,5.83171691 C136.479161,4.81258191 136.224377,3.89252949 135.71481,3.07155963 C135.205242,2.25058978 134.478637,1.60419397 133.534993,1.13237221 C132.59135,0.660550459 131.487287,0.424639581 130.222805,0.424639581 C129.07156,0.424639581 128.028834,0.632241153 127.094626,1.0474443 C126.160419,1.46264744 125.419659,2.04770642 124.872346,2.80262123 C124.325033,3.55753604 124.032503,4.44456094 123.994758,5.46369594 L123.994758,5.46369594 L123.994758,6.68099607 C123.994758,6.77536042 124.027785,6.85557012 124.09384,6.92162516 C124.159895,6.98768021 124.240105,7.02070773 124.334469,7.02070773 L124.334469,7.02070773 L126.967235,7.02070773 C127.061599,7.02070773 127.141809,6.98768021 127.207864,6.92162516 C127.273919,6.85557012 127.306946,6.77536042 127.306946,6.68099607 L127.306946,6.68099607 L127.306946,5.94495413 C127.306946,5.13342071 127.575885,4.48230668 128.113761,3.99161206 C128.651638,3.50091743 129.354653,3.25557012 130.222805,3.25557012 C131.090957,3.25557012 131.798689,3.50091743 132.346003,3.99161206 C132.893316,4.48230668 133.166972,5.11454784 133.166972,5.88833552 C133.166972,6.92634338 132.29882,8.45504587 130.562516,10.474443 L130.562516,10.474443 L129.231979,12.0314548 C127.344692,14.2584535 125.683879,16.1363041 124.249541,17.6650066 C124.136304,17.7782438 124.079685,17.9197903 124.079685,18.0896461 L124.079685,18.0896461 L124.079685,20.1279161 C124.079685,20.2222805 124.112713,20.3024902 124.178768,20.3685452 C124.244823,20.4346003 124.325033,20.4676278 124.419397,20.4676278 L124.419397,20.4676278 L136.592398,20.4676278 Z M146.274181,20.7790301 C148.255832,20.7790301 149.836435,20.2175623 151.01599,19.0946265 C152.195544,17.9716907 152.785321,16.4571429 152.785321,14.550983 L152.785321,14.550983 L152.785321,6.56775885 C152.785321,4.68047182 152.195544,3.18479685 151.01599,2.08073394 C149.836435,0.976671035 148.255832,0.424639581 146.274181,0.424639581 C144.292529,0.424639581 142.721363,0.976671035 141.560682,2.08073394 C140.4,3.18479685 139.819659,4.68047182 139.819659,6.56775885 L139.819659,6.56775885 L139.819659,14.550983 C139.819659,16.4571429 140.4,17.9716907 141.560682,19.0946265 C142.721363,20.2175623 144.292529,20.7790301 146.274181,20.7790301 Z M146.274181,17.9197903 C145.311664,17.9197903 144.542595,17.631979 143.966972,17.0563565 C143.39135,16.4807339 143.103539,15.702228 143.103539,14.7208388 L143.103539,14.7208388 L143.103539,6.45452163 C143.103539,5.47313237 143.39135,4.69462647 143.966972,4.11900393 C144.542595,3.54338139 145.311664,3.25557012 146.274181,3.25557012 C147.25557,3.25557012 148.038794,3.54338139 148.623853,4.11900393 C149.208912,4.69462647 149.501442,5.47313237 149.501442,6.45452163 L149.501442,6.45452163 L149.501442,14.7208388 C149.501442,15.702228 149.208912,16.4807339 148.623853,17.0563565 C148.038794,17.631979 147.25557,17.9197903 146.274181,17.9197903 Z M168.270511,20.4676278 C168.364875,20.4676278 168.445085,20.4346003 168.51114,20.3685452 C168.577195,20.3024902 168.610223,20.2222805 168.610223,20.1279161 L168.610223,20.1279161 L168.610223,17.9764089 C168.610223,17.8820446 168.577195,17.8018349 168.51114,17.7357798 C168.445085,17.6697248 168.364875,17.6366972 168.270511,17.6366972 L168.270511,17.6366972 L160.202359,17.6366972 C160.14574,17.6366972 160.112713,17.6178244 160.103277,17.5800786 C160.09384,17.5423329 160.107995,17.5045872 160.14574,17.4668414 L160.14574,17.4668414 L161.221494,16.2778506 C163.29751,14.0131062 164.788467,12.3145478 165.694364,11.1821756 C167.336304,9.16277851 168.157274,7.37929227 168.157274,5.83171691 C168.157274,4.81258191 167.90249,3.89252949 167.392923,3.07155963 C166.883355,2.25058978 166.15675,1.60419397 165.213106,1.13237221 C164.269463,0.660550459 163.1654,0.424639581 161.900917,0.424639581 C160.749672,0.424639581 159.706946,0.632241153 158.772739,1.0474443 C157.838532,1.46264744 157.097772,2.04770642 156.550459,2.80262123 C156.003145,3.55753604 155.710616,4.44456094 155.67287,5.46369594 L155.67287,5.46369594 L155.67287,6.68099607 C155.67287,6.77536042 155.705898,6.85557012 155.771953,6.92162516 C155.838008,6.98768021 155.918218,7.02070773 156.012582,7.02070773 L156.012582,7.02070773 L158.645347,7.02070773 C158.739712,7.02070773 158.819921,6.98768021 158.885976,6.92162516 C158.952031,6.85557012 158.985059,6.77536042 158.985059,6.68099607 L158.985059,6.68099607 L158.985059,5.94495413 C158.985059,5.13342071 159.253997,4.48230668 159.791874,3.99161206 C160.329751,3.50091743 161.032765,3.25557012 161.900917,3.25557012 C162.769069,3.25557012 163.476802,3.50091743 164.024115,3.99161206 C164.571429,4.48230668 164.845085,5.11454784 164.845085,5.88833552 C164.845085,6.92634338 163.976933,8.45504587 162.240629,10.474443 L162.240629,10.474443 L160.910092,12.0314548 C159.022805,14.2584535 157.361992,16.1363041 155.927654,17.6650066 C155.814417,17.7782438 155.757798,17.9197903 155.757798,18.0896461 L155.757798,18.0896461 L155.757798,20.1279161 C155.757798,20.2222805 155.790826,20.3024902 155.856881,20.3685452 C155.922936,20.4346003 156.003145,20.4676278 156.09751,20.4676278 L156.09751,20.4676278 L168.270511,20.4676278 Z M177.952294,20.7790301 C179.933945,20.7790301 181.514548,20.2175623 182.694102,19.0946265 C183.873657,17.9716907 184.463434,16.4571429 184.463434,14.550983 L184.463434,14.550983 L184.463434,6.56775885 C184.463434,4.68047182 183.873657,3.18479685 182.694102,2.08073394 C181.514548,0.976671035 179.933945,0.424639581 177.952294,0.424639581 C175.970642,0.424639581 174.399476,0.976671035 173.238794,2.08073394 C172.078113,3.18479685 171.497772,4.68047182 171.497772,6.56775885 L171.497772,6.56775885 L171.497772,14.550983 C171.497772,16.4571429 172.078113,17.9716907 173.238794,19.0946265 C174.399476,20.2175623 175.970642,20.7790301 177.952294,20.7790301 Z M177.952294,17.9197903 C176.989777,17.9197903 176.220708,17.631979 175.645085,17.0563565 C175.069463,16.4807339 174.781651,15.702228 174.781651,14.7208388 L174.781651,14.7208388 L174.781651,6.45452163 C174.781651,5.47313237 175.069463,4.69462647 175.645085,4.11900393 C176.220708,3.54338139 176.989777,3.25557012 177.952294,3.25557012 C178.933683,3.25557012 179.716907,3.54338139 180.301966,4.11900393 C180.887025,4.69462647 181.179554,5.47313237 181.179554,6.45452163 L181.179554,6.45452163 L181.179554,14.7208388 C181.179554,15.702228 180.887025,16.4807339 180.301966,17.0563565 C179.716907,17.631979 178.933683,17.9197903 177.952294,17.9197903 Z" id="RailsConf2020" fill="#1A2C3D"></path>
                    <path d="M189.785583,20.5242464 C190.351769,20.5242464 190.823591,20.3355177 191.201048,19.9580603 C191.578506,19.5806029 191.767235,19.0993447 191.767235,18.5142857 C191.767235,17.9292267 191.583224,17.4479685 191.215203,17.0705111 C190.847182,16.6930537 190.370642,16.504325 189.785583,16.504325 C189.200524,16.504325 188.719266,16.6930537 188.341809,17.0705111 C187.964351,17.4479685 187.775623,17.9292267 187.775623,18.5142857 C187.775623,19.0993447 187.964351,19.5806029 188.341809,19.9580603 C188.719266,20.3355177 189.200524,20.5242464 189.785583,20.5242464 Z M207.677064,20.4676278 C207.771429,20.4676278 207.851638,20.4346003 207.917693,20.3685452 C207.983748,20.3024902 208.016776,20.2222805 208.016776,20.1279161 L208.016776,20.1279161 L208.016776,17.9764089 C208.016776,17.8820446 207.983748,17.8018349 207.917693,17.7357798 C207.851638,17.6697248 207.771429,17.6366972 207.677064,17.6366972 L207.677064,17.6366972 L199.608912,17.6366972 C199.552294,17.6366972 199.519266,17.6178244 199.50983,17.5800786 C199.500393,17.5423329 199.514548,17.5045872 199.552294,17.4668414 L199.552294,17.4668414 L200.628047,16.2778506 C202.704063,14.0131062 204.19502,12.3145478 205.100917,11.1821756 C206.742857,9.16277851 207.563827,7.37929227 207.563827,5.83171691 C207.563827,4.81258191 207.309043,3.89252949 206.799476,3.07155963 C206.289908,2.25058978 205.563303,1.60419397 204.619659,1.13237221 C203.676016,0.660550459 202.571953,0.424639581 201.307471,0.424639581 C200.156225,0.424639581 199.113499,0.632241153 198.179292,1.0474443 C197.245085,1.46264744 196.504325,2.04770642 195.957012,2.80262123 C195.409699,3.55753604 195.117169,4.44456094 195.079423,5.46369594 L195.079423,5.46369594 L195.079423,6.68099607 C195.079423,6.77536042 195.112451,6.85557012 195.178506,6.92162516 C195.244561,6.98768021 195.324771,7.02070773 195.419135,7.02070773 L195.419135,7.02070773 L198.0519,7.02070773 C198.146265,7.02070773 198.226474,6.98768021 198.292529,6.92162516 C198.358585,6.85557012 198.391612,6.77536042 198.391612,6.68099607 L198.391612,6.68099607 L198.391612,5.94495413 C198.391612,5.13342071 198.66055,4.48230668 199.198427,3.99161206 C199.736304,3.50091743 200.439318,3.25557012 201.307471,3.25557012 C202.175623,3.25557012 202.883355,3.50091743 203.430668,3.99161206 C203.977982,4.48230668 204.251638,5.11454784 204.251638,5.88833552 C204.251638,6.92634338 203.383486,8.45504587 201.647182,10.474443 L201.647182,10.474443 L200.316645,12.0314548 C198.429358,14.2584535 196.768545,16.1363041 195.334207,17.6650066 C195.22097,17.7782438 195.164351,17.9197903 195.164351,18.0896461 L195.164351,18.0896461 L195.164351,20.1279161 C195.164351,20.2222805 195.197379,20.3024902 195.263434,20.3685452 C195.329489,20.4346003 195.409699,20.4676278 195.504063,20.4676278 L195.504063,20.4676278 L207.677064,20.4676278 Z" id=".2" fill="#EA4444"></path>
                </g>
                <path d="M153.656619,74.8073394 C154.838794,74.8073394 155.880406,74.5874836 156.781455,74.147772 C157.682503,73.7080603 158.381717,73.0917431 158.879096,72.2988204 C159.376474,71.5058978 159.625164,70.5904325 159.625164,69.5524246 C159.625164,69.4226737 159.517038,69.3505898 159.300786,69.336173 L159.300786,69.336173 L155.88401,69.1631717 C155.783093,69.1487549 155.703801,69.1631717 155.646134,69.206422 C155.588467,69.2496723 155.559633,69.3145478 155.559633,69.4010485 C155.559633,69.9777195 155.386632,70.4426606 155.040629,70.7958716 C154.694626,71.1490826 154.23329,71.3256881 153.656619,71.3256881 C153.079948,71.3256881 152.618611,71.1490826 152.272608,70.7958716 C151.926606,70.4426606 151.753604,69.9777195 151.753604,69.4010485 L151.753604,69.4010485 L151.753604,64.7516383 C151.753604,64.1605505 151.926606,63.688401 152.272608,63.33519 C152.618611,62.981979 153.079948,62.8053735 153.656619,62.8053735 C154.23329,62.8053735 154.694626,62.981979 155.040629,63.33519 C155.386632,63.688401 155.559633,64.1605505 155.559633,64.7516383 C155.559633,64.9102228 155.646134,64.9895151 155.819135,64.9895151 L155.819135,64.9895151 L155.88401,64.9895151 L159.300786,64.7732634 C159.517038,64.7444299 159.625164,64.6651376 159.625164,64.5353866 C159.625164,63.4973788 159.376474,62.5855177 158.879096,61.7998034 C158.381717,61.0140891 157.682503,60.4049803 156.781455,59.9724771 C155.880406,59.5399738 154.838794,59.3237221 153.656619,59.3237221 C152.474443,59.3237221 151.432831,59.5543906 150.531782,60.0157274 C149.630734,60.4770642 148.93152,61.1258191 148.434142,61.9619921 C147.936763,62.7981651 147.688073,63.7640891 147.688073,64.8597641 L147.688073,64.8597641 L147.688073,69.2280472 C147.688073,70.3381389 147.936763,71.3148755 148.434142,72.1582569 C148.93152,73.0016383 149.630734,73.6539974 150.531782,74.1153342 C151.432831,74.576671 152.474443,74.8073394 153.656619,74.8073394 Z M170.451507,74.8938401 C171.662516,74.8938401 172.725754,74.6523591 173.641219,74.1693971 C174.556684,73.6864351 175.26671,73.0088467 175.771298,72.1366317 C176.275885,71.2644168 176.528178,70.2516383 176.528178,69.0982962 L176.528178,69.0982962 L176.528178,65.0327654 C176.528178,63.9082569 176.275885,62.9134993 175.771298,62.0484928 C175.26671,61.1834862 174.556684,60.5131062 173.641219,60.0373526 C172.725754,59.561599 171.662516,59.3237221 170.451507,59.3237221 C169.254915,59.3237221 168.198886,59.561599 167.283421,60.0373526 C166.367955,60.5131062 165.657929,61.1834862 165.153342,62.0484928 C164.648755,62.9134993 164.396461,63.9082569 164.396461,65.0327654 L164.396461,65.0327654 L164.396461,69.0982962 C164.396461,70.2516383 164.648755,71.2644168 165.153342,72.1366317 C165.657929,73.0088467 166.367955,73.6864351 167.283421,74.1693971 C168.198886,74.6523591 169.254915,74.8938401 170.451507,74.8938401 Z M170.451507,71.4121887 C169.860419,71.4121887 169.381062,71.2139581 169.013434,70.8174967 C168.645806,70.4210354 168.461992,69.8912189 168.461992,69.2280472 L168.461992,69.2280472 L168.461992,64.9895151 C168.461992,64.3263434 168.645806,63.7965269 169.013434,63.4000655 C169.381062,63.0036042 169.860419,62.8053735 170.451507,62.8053735 C171.057012,62.8053735 171.543578,63.0036042 171.911206,63.4000655 C172.278834,63.7965269 172.462647,64.3263434 172.462647,64.9895151 L172.462647,64.9895151 L172.462647,69.2280472 C172.462647,69.8912189 172.278834,70.4210354 171.911206,70.8174967 C171.543578,71.2139581 171.057012,71.4121887 170.451507,71.4121887 Z M187.397772,74.8073394 C188.565531,74.8073394 189.59633,74.5838794 190.49017,74.1369594 C191.38401,73.6900393 192.076016,73.0557012 192.566186,72.233945 C193.056356,71.4121887 193.301442,70.4606815 193.301442,69.3794233 L193.301442,69.3794233 L193.301442,59.8211009 C193.301442,59.7201835 193.272608,59.6408912 193.214941,59.5832241 C193.157274,59.525557 193.077982,59.4967235 192.977064,59.4967235 L192.977064,59.4967235 L189.560288,59.4967235 C189.459371,59.4967235 189.380079,59.525557 189.322412,59.5832241 C189.264744,59.6408912 189.235911,59.7201835 189.235911,59.8211009 L189.235911,59.8211009 L189.235911,69.3794233 C189.235911,69.9560944 189.066514,70.4246396 188.72772,70.785059 C188.388925,71.1454784 187.945609,71.3256881 187.397772,71.3256881 C186.835518,71.3256881 186.384993,71.1490826 186.046199,70.7958716 C185.707405,70.4426606 185.538008,69.9705111 185.538008,69.3794233 L185.538008,69.3794233 L185.538008,59.8211009 C185.538008,59.7201835 185.509174,59.6408912 185.451507,59.5832241 C185.39384,59.525557 185.314548,59.4967235 185.21363,59.4967235 L185.21363,59.4967235 L181.796855,59.4967235 C181.695937,59.4967235 181.616645,59.525557 181.558978,59.5832241 C181.501311,59.6408912 181.472477,59.7201835 181.472477,59.8211009 L181.472477,59.8211009 L181.472477,69.3794233 C181.472477,70.4606815 181.717562,71.4121887 182.207733,72.233945 C182.697903,73.0557012 183.393512,73.6900393 184.294561,74.1369594 C185.195609,74.5838794 186.230013,74.8073394 187.397772,74.8073394 Z M204.214286,74.8073394 C205.396461,74.8073394 206.438073,74.5874836 207.339122,74.147772 C208.24017,73.7080603 208.939384,73.0917431 209.436763,72.2988204 C209.934142,71.5058978 210.182831,70.5904325 210.182831,69.5524246 C210.182831,69.4226737 210.074705,69.3505898 209.858453,69.336173 L209.858453,69.336173 L206.441678,69.1631717 C206.34076,69.1487549 206.261468,69.1631717 206.203801,69.206422 C206.146134,69.2496723 206.1173,69.3145478 206.1173,69.4010485 C206.1173,69.9777195 205.944299,70.4426606 205.598296,70.7958716 C205.252294,71.1490826 204.790957,71.3256881 204.214286,71.3256881 C203.637615,71.3256881 203.176278,71.1490826 202.830275,70.7958716 C202.484273,70.4426606 202.311271,69.9777195 202.311271,69.4010485 L202.311271,69.4010485 L202.311271,64.7516383 C202.311271,64.1605505 202.484273,63.688401 202.830275,63.33519 C203.176278,62.981979 203.637615,62.8053735 204.214286,62.8053735 C204.790957,62.8053735 205.252294,62.981979 205.598296,63.33519 C205.944299,63.688401 206.1173,64.1605505 206.1173,64.7516383 C206.1173,64.9102228 206.203801,64.9895151 206.376802,64.9895151 L206.376802,64.9895151 L206.441678,64.9895151 L209.858453,64.7732634 C210.074705,64.7444299 210.182831,64.6651376 210.182831,64.5353866 C210.182831,63.4973788 209.934142,62.5855177 209.436763,61.7998034 C208.939384,61.0140891 208.24017,60.4049803 207.339122,59.9724771 C206.438073,59.5399738 205.396461,59.3237221 204.214286,59.3237221 C203.03211,59.3237221 201.990498,59.5543906 201.08945,60.0157274 C200.188401,60.4770642 199.489187,61.1258191 198.991809,61.9619921 C198.49443,62.7981651 198.24574,63.7640891 198.24574,64.8597641 L198.24574,64.8597641 L198.24574,69.2280472 C198.24574,70.3381389 198.49443,71.3148755 198.991809,72.1582569 C199.489187,73.0016383 200.188401,73.6539974 201.08945,74.1153342 C201.990498,74.576671 203.03211,74.8073394 204.214286,74.8073394 Z M218.889908,74.6343381 C218.990826,74.6343381 219.070118,74.6055046 219.127785,74.5478375 C219.185452,74.4901704 219.214286,74.4108781 219.214286,74.3099607 L219.214286,74.3099607 L219.214286,68.8171691 C219.214286,68.7450852 219.250328,68.7090433 219.322412,68.7090433 L219.322412,68.7090433 L222.695937,68.7090433 C222.768021,68.7090433 222.804063,68.7450852 222.804063,68.8171691 L222.804063,68.8171691 L222.804063,74.3099607 C222.804063,74.4108781 222.832896,74.4901704 222.890564,74.5478375 C222.948231,74.6055046 223.027523,74.6343381 223.12844,74.6343381 L223.12844,74.6343381 L226.545216,74.6343381 C226.646134,74.6343381 226.725426,74.6055046 226.783093,74.5478375 C226.84076,74.4901704 226.869594,74.4108781 226.869594,74.3099607 L226.869594,74.3099607 L226.869594,59.8211009 C226.869594,59.7201835 226.84076,59.6408912 226.783093,59.5832241 C226.725426,59.525557 226.646134,59.4967235 226.545216,59.4967235 L226.545216,59.4967235 L223.12844,59.4967235 C223.027523,59.4967235 222.948231,59.525557 222.890564,59.5832241 C222.832896,59.6408912 222.804063,59.7201835 222.804063,59.8211009 L222.804063,59.8211009 L222.804063,65.1192661 C222.804063,65.1913499 222.768021,65.2273919 222.695937,65.2273919 L222.695937,65.2273919 L219.322412,65.2273919 C219.250328,65.2273919 219.214286,65.1913499 219.214286,65.1192661 L219.214286,65.1192661 L219.214286,59.8211009 C219.214286,59.7201835 219.185452,59.6408912 219.127785,59.5832241 C219.070118,59.525557 218.990826,59.4967235 218.889908,59.4967235 L218.889908,59.4967235 L215.473132,59.4967235 C215.372215,59.4967235 215.292923,59.525557 215.235256,59.5832241 C215.177588,59.6408912 215.148755,59.7201835 215.148755,59.8211009 L215.148755,59.8211009 L215.148755,74.3099607 C215.148755,74.4108781 215.177588,74.4901704 215.235256,74.5478375 C215.292923,74.6055046 215.372215,74.6343381 215.473132,74.6343381 L215.473132,74.6343381 L218.889908,74.6343381 Z M250.40367,74.6343381 C250.504587,74.6343381 250.583879,74.6055046 250.641547,74.5478375 C250.699214,74.4901704 250.728047,74.4108781 250.728047,74.3099607 L250.728047,74.3099607 L250.728047,71.4770642 C250.728047,71.3761468 250.699214,71.2968545 250.641547,71.2391874 C250.583879,71.1815203 250.504587,71.1526868 250.40367,71.1526868 L250.40367,71.1526868 L243.937746,71.1526868 C243.865662,71.1526868 243.82962,71.1166448 243.82962,71.0445609 L243.82962,71.0445609 L243.82962,68.7955439 C243.82962,68.72346 243.865662,68.6874181 243.937746,68.6874181 L243.937746,68.6874181 L247.938401,68.6874181 C248.039318,68.6874181 248.118611,68.6585845 248.176278,68.6009174 C248.233945,68.5432503 248.262779,68.4639581 248.262779,68.3630406 L248.262779,68.3630406 L248.262779,65.5517693 C248.262779,65.4508519 248.233945,65.3715596 248.176278,65.3138925 C248.118611,65.2562254 248.039318,65.2273919 247.938401,65.2273919 L247.938401,65.2273919 L243.937746,65.2273919 C243.865662,65.2273919 243.82962,65.1913499 243.82962,65.1192661 L243.82962,65.1192661 L243.82962,63.0865007 C243.82962,63.0144168 243.865662,62.9783748 243.937746,62.9783748 L243.937746,62.9783748 L250.40367,62.9783748 C250.504587,62.9783748 250.583879,62.9495413 250.641547,62.8918742 C250.699214,62.8342071 250.728047,62.7549148 250.728047,62.6539974 L250.728047,62.6539974 L250.728047,59.8211009 C250.728047,59.7201835 250.699214,59.6408912 250.641547,59.5832241 C250.583879,59.525557 250.504587,59.4967235 250.40367,59.4967235 L250.40367,59.4967235 L240.088467,59.4967235 C239.987549,59.4967235 239.908257,59.525557 239.85059,59.5832241 C239.792923,59.6408912 239.764089,59.7201835 239.764089,59.8211009 L239.764089,59.8211009 L239.764089,74.3099607 C239.764089,74.4108781 239.792923,74.4901704 239.85059,74.5478375 C239.908257,74.6055046 239.987549,74.6343381 240.088467,74.6343381 L240.088467,74.6343381 L250.40367,74.6343381 Z M261.51114,74.6343381 C262.678899,74.6343381 263.713303,74.4325033 264.614351,74.0288336 C265.5154,73.6251638 266.211009,73.0557012 266.70118,72.3204456 C267.19135,71.58519 267.436435,70.7346003 267.436435,69.7686763 L267.436435,69.7686763 L267.436435,64.3623853 C267.436435,63.3964613 267.19135,62.5458716 266.70118,61.810616 C266.211009,61.0753604 265.5154,60.5058978 264.614351,60.102228 C263.713303,59.6985583 262.678899,59.4967235 261.51114,59.4967235 L261.51114,59.4967235 L255.953473,59.4967235 C255.852556,59.4967235 255.773263,59.525557 255.715596,59.5832241 C255.657929,59.6408912 255.629096,59.7201835 255.629096,59.8211009 L255.629096,59.8211009 L255.629096,74.3099607 C255.629096,74.4108781 255.657929,74.4901704 255.715596,74.5478375 C255.773263,74.6055046 255.852556,74.6343381 255.953473,74.6343381 L255.953473,74.6343381 L261.51114,74.6343381 Z M261.662516,71.1526868 L259.802752,71.1526868 C259.730668,71.1526868 259.694626,71.1166448 259.694626,71.0445609 L259.694626,71.0445609 L259.694626,63.0865007 C259.694626,63.0144168 259.730668,62.9783748 259.802752,62.9783748 L259.802752,62.9783748 L261.640891,62.9783748 C262.159895,62.9783748 262.577982,63.1693971 262.895151,63.5514417 C263.21232,63.9334862 263.370904,64.4344692 263.370904,65.0543906 L263.370904,65.0543906 L263.370904,69.076671 C263.356488,69.6965924 263.190695,70.1975754 262.873526,70.5796199 C262.556356,70.9616645 262.152687,71.1526868 261.662516,71.1526868 L261.662516,71.1526868 Z M276.273263,74.6343381 C276.374181,74.6343381 276.453473,74.6055046 276.51114,74.5478375 C276.568807,74.4901704 276.597641,74.4108781 276.597641,74.3099607 L276.597641,74.3099607 L276.597641,59.8211009 C276.597641,59.7201835 276.568807,59.6408912 276.51114,59.5832241 C276.453473,59.525557 276.374181,59.4967235 276.273263,59.4967235 L276.273263,59.4967235 L272.856488,59.4967235 C272.75557,59.4967235 272.676278,59.525557 272.618611,59.5832241 C272.560944,59.6408912 272.53211,59.7201835 272.53211,59.8211009 L272.53211,59.8211009 L272.53211,74.3099607 C272.53211,74.4108781 272.560944,74.4901704 272.618611,74.5478375 C272.676278,74.6055046 272.75557,74.6343381 272.856488,74.6343381 L272.856488,74.6343381 L276.273263,74.6343381 Z M289.067497,74.6343381 C289.168414,74.6343381 289.247706,74.6055046 289.305374,74.5478375 C289.363041,74.4901704 289.391874,74.4108781 289.391874,74.3099607 L289.391874,74.3099607 L289.391874,63.1081258 C289.391874,63.0360419 289.427916,63 289.5,63 L289.5,63 L293.133028,63 C293.233945,63 293.313237,62.9711664 293.370904,62.9134993 C293.428571,62.8558322 293.457405,62.77654 293.457405,62.6756225 L293.457405,62.6756225 L293.457405,59.8211009 C293.457405,59.7201835 293.428571,59.6408912 293.370904,59.5832241 C293.313237,59.525557 293.233945,59.4967235 293.133028,59.4967235 L293.133028,59.4967235 L281.693316,59.4967235 C281.592398,59.4967235 281.513106,59.525557 281.455439,59.5832241 C281.397772,59.6408912 281.368938,59.7201835 281.368938,59.8211009 L281.368938,59.8211009 L281.368938,62.6756225 C281.368938,62.77654 281.397772,62.8558322 281.455439,62.9134993 C281.513106,62.9711664 281.592398,63 281.693316,63 L281.693316,63 L285.218218,63 C285.290301,63 285.326343,63.0360419 285.326343,63.1081258 L285.326343,63.1081258 L285.326343,74.3099607 C285.326343,74.4108781 285.355177,74.4901704 285.412844,74.5478375 C285.470511,74.6055046 285.549803,74.6343381 285.650721,74.6343381 L285.650721,74.6343381 L289.067497,74.6343381 Z M301.969856,74.6343381 C302.070773,74.6343381 302.150066,74.6055046 302.207733,74.5478375 C302.2654,74.4901704 302.294233,74.4108781 302.294233,74.3099607 L302.294233,74.3099607 L302.294233,59.8211009 C302.294233,59.7201835 302.2654,59.6408912 302.207733,59.5832241 C302.150066,59.525557 302.070773,59.4967235 301.969856,59.4967235 L301.969856,59.4967235 L298.55308,59.4967235 C298.452163,59.4967235 298.37287,59.525557 298.315203,59.5832241 C298.257536,59.6408912 298.228702,59.7201835 298.228702,59.8211009 L298.228702,59.8211009 L298.228702,74.3099607 C298.228702,74.4108781 298.257536,74.4901704 298.315203,74.5478375 C298.37287,74.6055046 298.452163,74.6343381 298.55308,74.6343381 L298.55308,74.6343381 L301.969856,74.6343381 Z M313.380079,74.8938401 C314.591088,74.8938401 315.654325,74.6523591 316.56979,74.1693971 C317.485256,73.6864351 318.195282,73.0088467 318.699869,72.1366317 C319.204456,71.2644168 319.45675,70.2516383 319.45675,69.0982962 L319.45675,69.0982962 L319.45675,65.0327654 C319.45675,63.9082569 319.204456,62.9134993 318.699869,62.0484928 C318.195282,61.1834862 317.485256,60.5131062 316.56979,60.0373526 C315.654325,59.561599 314.591088,59.3237221 313.380079,59.3237221 C312.183486,59.3237221 311.127457,59.561599 310.211992,60.0373526 C309.296527,60.5131062 308.586501,61.1834862 308.081913,62.0484928 C307.577326,62.9134993 307.325033,63.9082569 307.325033,65.0327654 L307.325033,65.0327654 L307.325033,69.0982962 C307.325033,70.2516383 307.577326,71.2644168 308.081913,72.1366317 C308.586501,73.0088467 309.296527,73.6864351 310.211992,74.1693971 C311.127457,74.6523591 312.183486,74.8938401 313.380079,74.8938401 Z M313.380079,71.4121887 C312.788991,71.4121887 312.309633,71.2139581 311.942005,70.8174967 C311.574377,70.4210354 311.390564,69.8912189 311.390564,69.2280472 L311.390564,69.2280472 L311.390564,64.9895151 C311.390564,64.3263434 311.574377,63.7965269 311.942005,63.4000655 C312.309633,63.0036042 312.788991,62.8053735 313.380079,62.8053735 C313.985583,62.8053735 314.472149,63.0036042 314.839777,63.4000655 C315.207405,63.7965269 315.391219,64.3263434 315.391219,64.9895151 L315.391219,64.9895151 L315.391219,69.2280472 C315.391219,69.8912189 315.207405,70.4210354 314.839777,70.8174967 C314.472149,71.2139581 313.985583,71.4121887 313.380079,71.4121887 Z M328.228702,74.6343381 C328.32962,74.6343381 328.408912,74.6055046 328.466579,74.5478375 C328.524246,74.4901704 328.55308,74.4108781 328.55308,74.3099607 L328.55308,74.3099607 L328.50983,67.1087811 C328.50983,67.051114 328.524246,67.0186763 328.55308,67.0114679 C328.581913,67.0042595 328.610747,67.0222805 328.639581,67.0655308 L328.639581,67.0655308 L333.051114,74.4180865 C333.137615,74.5622543 333.267366,74.6343381 333.440367,74.6343381 L333.440367,74.6343381 L336.705767,74.6343381 C336.806684,74.6343381 336.885976,74.6055046 336.943644,74.5478375 C337.001311,74.4901704 337.030144,74.4108781 337.030144,74.3099607 L337.030144,74.3099607 L337.030144,59.8211009 C337.030144,59.7201835 337.001311,59.6408912 336.943644,59.5832241 C336.885976,59.525557 336.806684,59.4967235 336.705767,59.4967235 L336.705767,59.4967235 L333.288991,59.4967235 C333.188073,59.4967235 333.108781,59.525557 333.051114,59.5832241 C332.993447,59.6408912 332.964613,59.7201835 332.964613,59.8211009 L332.964613,59.8211009 L332.986239,67.0222805 C332.986239,67.0799476 332.971822,67.1123853 332.942988,67.1195937 C332.914155,67.1268021 332.885321,67.1087811 332.856488,67.0655308 L332.856488,67.0655308 L328.466579,59.7129751 C328.380079,59.5688073 328.250328,59.4967235 328.077326,59.4967235 L328.077326,59.4967235 L324.811927,59.4967235 C324.711009,59.4967235 324.631717,59.525557 324.57405,59.5832241 C324.516383,59.6408912 324.487549,59.7201835 324.487549,59.8211009 L324.487549,59.8211009 L324.487549,74.3099607 C324.487549,74.4108781 324.516383,74.4901704 324.57405,74.5478375 C324.631717,74.6055046 324.711009,74.6343381 324.811927,74.6343381 L324.811927,74.6343381 L328.228702,74.6343381 Z" id="COUCHEDITION" fill="#859DB4" fill-rule="nonzero"></path>
            </g>
        </g>
    </g>
</svg>