<?xml version="1.0" encoding="UTF-8"?>
<svg width="20px" height="20px" viewBox="0 0 20 20" version="1.1" xmlns="http://www.w3.org/2000/svg" xmlns:xlink="http://www.w3.org/1999/xlink">
    <!-- Generator: Sketch 64 (93537) - https://sketch.com -->
    <title>Combined Shape</title>
    <desc>Created with Sketch.</desc>
    <g id="Page-1" stroke="none" stroke-width="1" fill="none" fill-rule="evenodd">
        <g id="Desktop-HD" transform="translate(-510.000000, -1891.000000)" fill="#FEFCF8">
            <g id="Group-5-Copy-3" transform="translate(330.000000, 1619.000000)">
                <g id="Group-8" transform="translate(165.000000, 257.000000)">
                    <path d="M25,15 C30.5228475,15 35,19.4771525 35,25 C35,30.5228475 30.5228475,35 25,35 C19.4771525,35 15,30.5228475 15,25 C15,19.4771525 19.4771525,15 25,15 Z M24,21.8316655 C23.4477153,21.8316655 23,22.2793807 23,22.8316655 L23,22.8316655 L23,28.1683345 C23,28.3600861 23.0551304,28.5477948 23.1588215,28.7090921 C23.4574737,29.1736621 24.0761875,29.3081651 24.5407576,29.009513 L24.5407576,29.009513 L28.6915001,26.3411785 C28.8120028,26.2637125 28.914455,26.1612602 28.991921,26.0407576 C29.2905732,25.5761875 29.1560702,24.9574737 28.6915001,24.6588215 L28.6915001,24.6588215 L24.5407576,21.990487 C24.3794603,21.8867959 24.1917516,21.8316655 24,21.8316655 Z" id="Combined-Shape"></path>
                </g>
            </g>
        </g>
    </g>
</svg>