<svg width="14" height="15" viewBox="0 0 14 15" fill="none" xmlns="http://www.w3.org/2000/svg">
<g clip-path="url(#clip0_3_2)">
<path d="M6.97916 5.35784L11.5754 0.761643C11.9659 0.371119 12.599 0.371119 12.9896 0.761643L13.6967 1.46875C14.0872 1.85927 14.0872 2.49244 13.6967 2.88296L9.10048 7.47916L13.6967 12.0754C14.0872 12.4659 14.0872 13.099 13.6967 13.4896L12.9896 14.1967C12.599 14.5872 11.9659 14.5872 11.5754 14.1967L6.97916 9.60048L2.38296 14.1967C1.99244 14.5872 1.35927 14.5872 0.96875 14.1967L0.261643 13.4896C-0.128881 13.099 -0.128881 12.4659 0.261643 12.0754L4.85784 7.47916L0.261643 2.88296C-0.128881 2.49244 -0.128881 1.85927 0.261643 1.46875L0.96875 0.761643C1.35927 0.371119 1.99244 0.371119 2.38296 0.761643L6.97916 5.35784Z" fill="#605D4E"/>
</g>
<defs>
<clipPath id="clip0_3_2">
<rect width="14" height="15" fill="white"/>
</clipPath>
</defs>
</svg>
