<?xml version="1.0" encoding="UTF-8"?>
<svg width="10px" height="17px" viewBox="0 0 10 17" version="1.1" xmlns="http://www.w3.org/2000/svg" xmlns:xlink="http://www.w3.org/1999/xlink">
    <!-- Generator: Sketch 61.2 (89653) - https://sketch.com -->
    <title>Combined Shape</title>
    <desc>Created with Sketch.</desc>
    <g id="Home" stroke="none" stroke-width="1" fill="none" fill-rule="evenodd">
        <g id="Artboard-Copy-43" transform="translate(-412.000000, -6917.000000)" fill="#C04F45">
            <path d="M418.000807,6927.91691 L418,6933 C418,6933.55228 417.552285,6934 417,6934 C416.447715,6934 416,6933.55228 416,6933 L416.000192,6927.91707 C416.32534,6927.97161 416.659355,6928 417,6928 C417.340994,6928 417.675344,6927.97155 418.000807,6927.91691 Z M417,6917 C419.761424,6917 422,6919.23858 422,6922 C422,6924.76142 419.761424,6927 417,6927 C414.238576,6927 412,6924.76142 412,6922 C412,6919.23858 414.238576,6917 417,6917 Z" id="Combined-Shape"></path>
        </g>
    </g>
</svg>