<?xml version="1.0" encoding="UTF-8"?>
<svg width="36px" height="49px" viewBox="0 0 36 49" version="1.1" xmlns="http://www.w3.org/2000/svg" xmlns:xlink="http://www.w3.org/1999/xlink">
    <!-- Generator: Sketch 64 (93537) - https://sketch.com -->
    <title>popcorn</title>
    <desc>Created with Sketch.</desc>
    <defs>
        <path d="M10,0 C11.354332,0 12.5828992,0.538463253 13.4832948,1.41298305 C13.9274242,1.15006532 14.4461873,1 15,1 C16.0266795,1 16.9329033,1.51573227 17.4737359,2.30226138 C17.9431493,2.10738809 18.4590338,2 19,2 C21.209139,2 23,3.790861 23,6 C23,6.0094192 22.9999674,6.0188308 22.9999024,6.02823468 C25.2498212,6.27601865 27,8.18362124 27,10.5 C27,12.7200455 25.3923666,14.564608 23.277752,14.9330357 C21.9590112,17.9174608 18.9727072,20 15.5,20 C12.1979675,20 7.35664314,18.3645158 4.77521697,15.7606015 C4.3799903,15.91511 3.94990871,16 3.5,16 C1.56700338,16 0,14.4329966 0,12.5 C0,10.7364004 1.3043908,9.27745758 3.0010495,9.03529447 L3,9 C3,7.64603942 3.89694657,6.50157193 5.12906132,6.12837593 C5.04425857,5.76622423 5,5.38828069 5,5 C5,2.23857625 7.23857625,0 10,0 Z" id="path-1"></path>
        <filter x="-16.7%" y="-22.5%" width="133.3%" height="145.0%" filterUnits="objectBoundingBox" id="filter-3">
            <feOffset dx="2" dy="3" in="SourceAlpha" result="shadowOffsetInner1"></feOffset>
            <feComposite in="shadowOffsetInner1" in2="SourceAlpha" operator="arithmetic" k2="-1" k3="1" result="shadowInnerInner1"></feComposite>
            <feColorMatrix values="0 0 0 0 1   0 0 0 0 0.958137386   0 0 0 0 0.88039253  0 0 0 1 0" type="matrix" in="shadowInnerInner1"></feColorMatrix>
        </filter>
        <path d="M24,6 C26.209139,6 28,7.790861 28,10 C28,12.209139 26.209139,14 24,14 C23.9310175,14 23.8624429,13.9982538 23.7943178,13.9948032 C23.1430106,16.3061354 21.0193169,18 18.5,18 C17.8600225,18 17.2455748,17.8906944 16.6743072,17.6897337 C15.8612112,18.4991944 14.7390903,19 13.5,19 C11.0147186,19 9,16.9852814 9,14.5 C9,12.0147186 11.0147186,10 13.5,10 C13.53298,10 13.5658772,10.0003548 13.5986879,10.0010607 C14.5082302,8.22036987 16.3615988,7 18.5,7 C19.3429364,7 20.1415828,7.18962812 20.8556073,7.52855247 C21.5867423,6.59789454 22.7235483,6 24,6 Z" id="path-4"></path>
        <filter x="-23.7%" y="-34.6%" width="147.4%" height="169.2%" filterUnits="objectBoundingBox" id="filter-5">
            <feOffset dx="2" dy="3" in="SourceAlpha" result="shadowOffsetInner1"></feOffset>
            <feComposite in="shadowOffsetInner1" in2="SourceAlpha" operator="arithmetic" k2="-1" k3="1" result="shadowInnerInner1"></feComposite>
            <feColorMatrix values="0 0 0 0 1   0 0 0 0 0.958137386   0 0 0 0 0.88039253  0 0 0 1 0" type="matrix" in="shadowInnerInner1"></feColorMatrix>
        </filter>
    </defs>
    <g id="Page-1" stroke="none" stroke-width="1" fill="none" fill-rule="evenodd">
        <g id="Artboard" transform="translate(-281.000000, -467.000000)">
            <g id="Group-2" transform="translate(195.000000, 460.000000)">
                <g id="Group">
                    <g id="Group-Copy-2">
                        <g id="popcorn" transform="translate(89.000000, 10.000000)">
                            <g id="Combined-Shape" transform="translate(1.000000, 0.000000)">
                                <mask id="mask-2" fill="white">
                                    <use xlink:href="#path-1"></use>
                                </mask>
                                <g id="Mask">
                                    <use fill="#FFD587" fill-rule="evenodd" xlink:href="#path-1"></use>
                                    <use fill="black" fill-opacity="1" filter="url(#filter-3)" xlink:href="#path-1"></use>
                                    <path stroke="#1A2C3D" stroke-width="3" d="M10,-1.5 C8.20507456,-1.5 6.58007456,-0.772462718 5.40380592,0.403805922 C4.22753728,1.58007456 3.5,3.20507456 3.50493401,5.25498789 C3.06890027,5.54648273 2.68632,5.91287307 2.37541996,6.33757047 C2.04832647,6.78438854 1.79995204,7.2958252 1.65300277,7.8524349 C0.901957858,8.1512137 0.240242642,8.62643821 -0.2803959,9.22751434 C-1.04007863,10.1045665 -1.5,11.2485375 -1.5,12.5 C-1.5,13.8807119 -0.940355937,15.1307119 -0.0355339059,16.0355339 C0.869288125,16.9403559 2.11928813,17.5 3.5,17.5 C3.79575182,17.5 4.08548259,17.4742299 4.36711648,17.4248998 C7.31257464,19.9345051 12.1293792,21.5 15.5,21.5 C17.5114205,21.5 19.3839428,20.905739 20.9522002,19.8840679 C22.359257,18.967414 23.52091,17.7058607 24.3177328,16.2195227 C25.4140063,15.8711542 26.373997,15.2170796 27.0965727,14.3565235 C27.9722814,13.3135923 28.5,11.9684645 28.5,10.5 C28.5,8.96744471 27.9254148,7.56893712 26.9792259,6.50447461 C26.2820985,5.72020634 25.3828469,5.11800837 24.3637925,4.77778301 C24.1304674,3.74974279 23.6091399,2.83096526 22.8890873,2.1109127 C21.8937831,1.11560847 20.5187831,0.5 19,0.5 C18.6405017,0.5 18.2890931,0.534608288 17.9490507,0.600578704 C17.1592363,-0.0850642048 16.1280067,-0.5 15,-0.5 C14.5611077,-0.5 14.1369654,-0.437038714 13.7361839,-0.319638126 C12.6791549,-1.06331064 11.39058,-1.5 10,-1.5 Z"></path>
                                </g>
                                <g mask="url(#mask-2)">
                                    <use fill="#FFD587" fill-rule="evenodd" xlink:href="#path-4"></use>
                                    <use fill="black" fill-opacity="1" filter="url(#filter-5)" xlink:href="#path-4"></use>
                                    <path stroke="#1A2C3D" stroke-width="3" d="M24,4.5 C22.6564488,4.5 21.4253883,4.98168447 20.4709011,5.78159324 C19.8457434,5.59840706 19.1843725,5.5 18.5,5.5 C17.1730648,5.5 15.9322274,5.86928087 14.8612138,6.51188902 C13.994433,7.03195752 13.2392412,7.73215653 12.6430841,8.56067267 C11.3291235,8.74862606 10.1524837,9.36223496 9.25735931,10.2573593 C8.17157288,11.3431458 7.5,12.8431458 7.5,14.5 C7.5,16.1568542 8.17157288,17.6568542 9.25735931,18.7426407 C10.3431458,19.8284271 11.8431458,20.5 13.5,20.5 C14.8230731,20.5 16.0460846,20.071705 17.0375929,19.3468204 C17.5093257,19.4471082 17.9984862,19.5 18.5,19.5 C20.0605561,19.5 21.5026501,18.9897577 22.6946943,18.1228164 C23.6569897,17.4229653 24.4551687,16.4889194 25.0148726,15.4066849 C26.1267445,15.1991631 27.1209826,14.657192 27.8890873,13.8890873 C28.8843915,12.8937831 29.5,11.5187831 29.5,10 C29.5,8.48121694 28.8843915,7.10621694 27.8890873,6.1109127 C26.8937831,5.11560847 25.5187831,4.5 24,4.5 Z"></path>
                                </g>
                            </g>
                            <path d="M29.7277365,19.5 L0.272263522,19.5 L3.51295547,42.351033 C3.6003692,42.9674118 3.90790411,43.5046536 4.34922219,43.8878006 C4.79054027,44.2709477 5.36564153,44.5 5.98818796,44.5 L24.011812,44.5 C24.6343585,44.5 25.2094597,44.2709477 25.6507778,43.8878006 C26.0920959,43.5046536 26.3996308,42.9674118 26.4870445,42.351033 L29.7277365,19.5 Z" id="Rectangle-Copy-9" stroke="#1A2C3D" stroke-width="3" fill="#FFFFFF"></path>
                            <path d="M7.2,21 L9.072,43 L5.12,43 L2,21 L7.2,21 Z M17.6,21 L16.976,43 L13.024,43 L12.4,21 L17.6,21 Z M28,21 L24.88,43 L20.928,43 L22.8,21 L28,21 Z" id="Combined-Shape" fill="#EA4444"></path>
                            <path d="M29.7277365,19.5 L0.272263522,19.5 L3.51295547,42.351033 C3.6003692,42.9674118 3.90790411,43.5046536 4.34922219,43.8878006 C4.79054027,44.2709477 5.36564153,44.5 5.98818796,44.5 L24.011812,44.5 C24.6343585,44.5 25.2094597,44.2709477 25.6507778,43.8878006 C26.0920959,43.5046536 26.3996308,42.9674118 26.4870445,42.351033 L29.7277365,19.5 Z" id="Rectangle-Copy-12" stroke="#1A2C3D" stroke-width="3"></path>
                            <rect id="Rectangle" stroke="#1A2C3D" stroke-width="3" fill="#FFFFFF" x="-1.5" y="13.5" width="33" height="6" rx="1"></rect>
                            <polygon id="Rectangle" fill="#1A2C3D" opacity="0.300000012" points="3 21 29 21 29 23.5553252 2.76006999 23.5553252"></polygon>
                        </g>
                    </g>
                </g>
            </g>
        </g>
    </g>
</svg>