<?xml version="1.0" encoding="UTF-8"?>
<svg width="108px" height="160px" viewBox="0 0 108 160" version="1.1" xmlns="http://www.w3.org/2000/svg" xmlns:xlink="http://www.w3.org/1999/xlink">
    <!-- Generator: Sketch 61.2 (89653) - https://sketch.com -->
    <title>RailsConf2020-mini-logo</title>
    <desc>Created with Sketch.</desc>
    <defs>
        <rect id="path-1" x="0" y="0" width="77" height="115" rx="38.5"></rect>
        <path d="M38,0 C58.9868205,0 76,17.0131795 76,38 L76,74 L76,74 L0,74 L0,38 C0,17.0131795 17.0131795,0 38,0 Z" id="path-3"></path>
        <path d="M38,0 C58.9868205,0 76,17.0131795 76,38 L76,74 L76,74 L0,74 L0,38 C0,17.0131795 17.0131795,0 38,0 Z" id="path-5"></path>
        <path d="M38,0 C58.9868205,0 76,17.0131795 76,38 L76,74 L76,74 L0,74 L0,38 C0,17.0131795 17.0131795,0 38,0 Z" id="path-7"></path>
        <path d="M38,0 C58.9868205,0 76,17.0131795 76,38 L76,74 L76,74 L0,74 L0,38 C0,17.0131795 17.0131795,0 38,0 Z" id="path-9"></path>
        <path d="M38,0 C58.9868205,0 76,17.0131795 76,38 L76,74 L76,74 L0,74 L0,38 C0,17.0131795 17.0131795,0 38,0 Z" id="path-11"></path>
        <path d="M38,0 C58.9868205,0 76,17.0131795 76,38 L76,74 L76,74 L0,74 L0,38 C0,17.0131795 17.0131795,0 38,0 Z" id="path-13"></path>
        <path d="M38,0 C58.9868205,0 76,17.0131795 76,38 L76,74 L76,74 L0,74 L0,38 C0,17.0131795 17.0131795,0 38,0 Z" id="path-15"></path>
        <path d="M38,0 C58.9868205,0 76,17.0131795 76,38 L76,74 L76,74 L0,74 L0,38 C0,17.0131795 17.0131795,0 38,0 Z" id="path-17"></path>
        <path d="M38,0 C58.9868205,0 76,17.0131795 76,38 L76,74 L76,74 L0,74 L0,38 C0,17.0131795 17.0131795,0 38,0 Z" id="path-19"></path>
        <path d="M38,0 C58.9868205,0 76,17.0131795 76,38 L76,74 L76,74 L0,74 L0,38 C0,17.0131795 17.0131795,0 38,0 Z" id="path-21"></path>
        <path d="M38,0 C58.9868205,0 76,17.0131795 76,38 L76,74 L76,74 L0,74 L0,38 C0,17.0131795 17.0131795,0 38,0 Z" id="path-23"></path>
        <path d="M38,0 C58.9868205,0 76,17.0131795 76,38 L76,74 L76,74 L0,74 L0,38 C0,17.0131795 17.0131795,0 38,0 Z" id="path-25"></path>
        <path d="M38,0 C58.9868205,0 76,17.0131795 76,38 L76,74 L76,74 L0,74 L0,38 C0,17.0131795 17.0131795,0 38,0 Z" id="path-27"></path>
        <path d="M38,0 C58.9868205,0 76,17.0131795 76,38 L76,74 L76,74 L0,74 L0,38 C0,17.0131795 17.0131795,0 38,0 Z" id="path-29"></path>
        <path d="M38,0 C58.9868205,0 76,17.0131795 76,38 L76,74 L76,74 L0,74 L0,38 C0,17.0131795 17.0131795,0 38,0 Z" id="path-31"></path>
        <path d="M38,0 C58.9868205,0 76,17.0131795 76,38 L76,74 L76,74 L0,74 L0,38 C0,17.0131795 17.0131795,0 38,0 Z" id="path-33"></path>
        <path d="M38,0 C58.9868205,0 76,17.0131795 76,38 L76,74 L76,74 L0,74 L0,38 C0,17.0131795 17.0131795,0 38,0 Z" id="path-35"></path>
        <path d="M38,0 C58.9868205,0 76,17.0131795 76,38 L76,74 L76,74 L0,74 L0,38 C0,17.0131795 17.0131795,0 38,0 Z" id="path-37"></path>
        <path d="M38,0 C58.9868205,0 76,17.0131795 76,38 L76,74 L76,74 L0,74 L0,38 C0,17.0131795 17.0131795,0 38,0 Z" id="path-39"></path>
        <path d="M38,0 C58.9868205,0 76,17.0131795 76,38 L76,74 L76,74 L0,74 L0,38 C0,17.0131795 17.0131795,0 38,0 Z" id="path-41"></path>
        <path d="M38,0 C58.9868205,0 76,17.0131795 76,38 L76,74 L76,74 L0,74 L0,38 C0,17.0131795 17.0131795,0 38,0 Z" id="path-43"></path>
        <path d="M38,0 C58.9868205,0 76,17.0131795 76,38 L76,74 L76,74 L0,74 L0,38 C0,17.0131795 17.0131795,0 38,0 Z" id="path-45"></path>
        <rect id="path-47" x="0" y="0" width="77" height="115" rx="38.5"></rect>
        <rect id="path-49" x="0" y="0" width="77" height="115" rx="38.5"></rect>
        <rect id="path-51" x="0" y="0" width="77" height="115" rx="38.5"></rect>
        <rect id="path-53" x="0" y="0" width="77" height="115" rx="38.5"></rect>
    </defs>
    <g id="Page-1" stroke="none" stroke-width="1" fill="none" fill-rule="evenodd">
        <g id="Artboard" transform="translate(-401.000000, -500.000000)">
            <g id="RailsConf2020-mini-logo" transform="translate(401.000000, 500.000000)">
                <g id="Rectangle-+-Rectangle-Copy-+-Rectangle-Copy-2-+-Rectangle-Copy-3-Mask" transform="translate(16.000000, 16.000000)">
                    <g id="mountain-mask-Clipped">
                        <mask id="mask-2" fill="white">
                            <use xlink:href="#path-1"></use>
                        </mask>
                        <g id="path-1"></g>
                        <g id="mountain-mask" mask="url(#mask-2)">
                            <g transform="translate(0.000000, 2.000000)" id="Group">
                                <g>
                                    <g id="Combined-Shape-Clipped">
                                        <mask id="mask-4" fill="white">
                                            <use xlink:href="#path-3"></use>
                                        </mask>
                                        <g id="path-3"></g>
                                        <path d="M-1.3355571,46.6911754 L-1.2395164,46.757673 L9.7789922,55.3662754 C10.2141985,55.7062958 10.2913619,56.3347413 9.95134148,56.7699476 C9.63560821,57.1740677 9.07118194,57.2694672 8.64370996,57.0087945 L8.54766925,56.9422969 L-2.47083935,48.3336945 C-2.90604567,47.993674 -2.98320907,47.3652286 -2.64318863,46.9300222 C-2.32745536,46.5259021 -1.76302909,46.4305026 -1.3355571,46.6911754 Z M-3.79548744,24.5613112 L-3.71686696,24.647709 L15.0273433,47.794881 C15.3749074,48.2240868 15.3087236,48.8537833 14.8795178,49.2013473 C14.4809695,49.5240854 13.9095492,49.4900715 13.5516719,49.1399195 L13.4730514,49.0535218 L-5.27115888,25.9063498 C-5.61872294,25.4771439 -5.55253918,24.8474475 -5.12333331,24.4998834 C-4.72478501,24.1771454 -4.15336474,24.2111592 -3.79548744,24.5613112 Z M69.9520516,39.6542007 C70.3505999,39.9769387 70.4361342,40.542944 70.1680408,40.9658015 L70.0998771,41.060667 L65.2399664,47.062157 C64.8924024,47.4913628 64.2627059,47.5575466 63.8335001,47.2099825 C63.4349518,46.8872445 63.3494174,46.3212392 63.6175109,45.8983817 L63.6856745,45.8035162 L68.5455852,39.8020262 C68.8931493,39.3728204 69.5228457,39.3066366 69.9520516,39.6542007 Z M16.4863743,31.1036388 L16.5435444,31.2055079 L20.2575982,38.8204466 C20.4997039,39.3168369 20.2935655,39.9155061 19.7971753,40.1576118 C19.3362415,40.3824242 18.7871182,40.2207405 18.5171803,39.799058 L18.4600101,39.6971889 L14.7459563,32.0822502 C14.5038506,31.5858599 14.709989,30.9871907 15.2063792,30.745085 C15.667313,30.5202726 16.2164364,30.6819563 16.4863743,31.1036388 Z M69.0467313,15.7479445 C69.5076651,15.9727569 69.7183803,16.5049704 69.5523112,16.9773089 L69.5072418,17.0850795 L58.6829281,39.2819017 C58.4408549,39.7783078 57.8421833,39.9845179 57.345793,39.7424122 C56.8848592,39.5175997 56.6741441,38.9853862 56.8402131,38.5130477 L56.8852825,38.4052771 L67.7095963,16.208455 C67.9516694,15.7120489 68.550341,15.5058388 69.0467313,15.7479445 Z M75.5805409,32.91001 C75.9707569,33.2427744 76.0418765,33.8107709 75.7631211,34.2266772 L75.6925682,34.3197795 L73.0254138,37.4474168 C72.6670521,37.8676493 72.0358769,37.9178056 71.6156443,37.559444 C71.2254284,37.2266797 71.1543088,36.6586831 71.4330641,36.2427768 L71.503617,36.1496746 L74.1707715,33.0220373 C74.5291331,32.6018047 75.1603083,32.5516484 75.5805409,32.91001 Z M21.3118841,3.49966605 L21.3454354,3.61155912 L28.2932044,32.7983303 C28.4210994,33.3356024 28.0892337,33.8748269 27.5519669,34.002745 C27.0530661,34.1214816 26.5524871,33.8438149 26.3811213,33.3733722 L26.34757,33.2614791 L19.399801,4.07470792 C19.271906,3.53743582 19.6037717,2.99821134 20.1410385,2.8702933 C20.6399393,2.75155667 21.1405183,3.02922335 21.3118841,3.49966605 Z M51.0037449,23.4945388 C51.5034368,23.6099018 51.8284349,24.0811281 51.7728426,24.5787144 L51.7531639,24.6938599 L49.841411,32.9745713 C49.717174,33.5127011 49.1802196,33.8482274 48.6420899,33.7239904 C48.142398,33.6086274 47.8173999,33.137401 47.8729922,32.6398148 L47.8926709,32.5246692 L49.8044238,24.2439578 C49.9286608,23.7058281 50.4656152,23.3703018 51.0037449,23.4945388 Z M38.2257588,23.026727 C38.7385946,23.026727 39.1612659,23.4127672 39.219031,23.9101058 L39.2257588,24.026727 L39.2257588,30.1850887 C39.2257588,30.7373735 38.7780435,31.1850887 38.2257588,31.1850887 C37.7129229,31.1850887 37.2902516,30.7990485 37.2324865,30.3017098 L37.2257588,30.1850887 L37.2257588,24.026727 C37.2257588,23.4744422 37.673474,23.026727 38.2257588,23.026727 Z M10.7732731,19.3900454 L10.8304432,19.4919146 L14.6426807,27.3081597 C14.8847864,27.80455 14.6786481,28.4032192 14.1822578,28.6453249 C13.721324,28.8701373 13.1722007,28.7084536 12.9022628,28.2867711 L12.8450926,28.184902 L9.03285515,20.3686569 C8.79074945,19.8722666 8.9968878,19.2735974 9.49327805,19.0314917 C9.95421184,18.8066792 10.5033352,18.9683629 10.7732731,19.3900454 Z M54.5662754,8.06479882 C55.0659673,8.18016178 55.3910181,8.65131408 55.3354705,9.14890532 L55.3158021,9.26405263 L52.871337,19.8565345 C52.7471483,20.3946754 52.2102129,20.7302983 51.6720832,20.6060612 C51.1723913,20.4906983 50.8473405,20.019546 50.9028881,19.5219547 L50.9225565,19.4068074 L53.3670216,8.81432554 C53.4912103,8.27618466 54.0281457,7.94056178 54.5662754,8.06479882 Z M38.2257588,-2.52338444 C38.7385946,-2.52338444 39.1612659,-2.13734425 39.219031,-1.64000557 L39.2257588,-1.52338444 L39.2257588,19.3404049 C39.2257588,19.8926896 38.7780435,20.3404049 38.2257588,20.3404049 C37.7129229,20.3404049 37.2902516,19.9543647 37.2324865,19.457026 L37.2257588,19.3404049 L37.2257588,-1.52338444 C37.2257588,-2.07566919 37.673474,-2.52338444 38.2257588,-2.52338444 Z M74.4110344,4.63196096 C74.8736356,4.85332153 75.0883039,5.38397734 74.9257659,5.85754253 L74.8815024,5.96564658 L71.5492106,12.9305086 C71.3108503,13.4287082 70.7137506,13.6393496 70.2155383,13.4010154 C69.7529371,13.1796548 69.5382688,12.648999 69.7008067,12.1754338 L69.7450703,12.0673297 L73.0773621,5.1024677 C73.3157223,4.60426811 73.9128221,4.39362672 74.4110344,4.63196096 Z" id="Combined-Shape" fill="#2C3139" fill-rule="nonzero" mask="url(#mask-4)"></path>
                                    </g>
                                    <g id="Combined-Shape-Clipped">
                                        <mask id="mask-6" fill="white">
                                            <use xlink:href="#path-5"></use>
                                        </mask>
                                        <g id="path-3"></g>
                                        <path d="M22.9462603,75.2217325 L26.6144071,75.2921371 C30.1082188,77.3475068 34.1796045,78.5263158 38.5263158,78.5263158 C42.5509875,78.5263158 46.3396191,77.5157076 49.6522869,75.734415 L53.3193029,75.8053715 C49.1460657,78.7779632 44.0403655,80.5263158 38.5263158,80.5263158 C32.6605452,80.5263158 27.2568798,78.5478078 22.9462603,75.2217325 Z M38.5263158,29.4736842 C47.5315139,29.4736842 55.72773,34.1766075 60.3315249,41.7222281 C60.9627412,42.7567918 61.5177742,43.831752 61.9934378,44.9398766 L60.2254714,43 L58.9218842,43.2656803 C58.8246801,43.0970928 58.7254459,42.9298235 58.6242148,42.7639058 C54.4934034,35.9935052 47.03769,31.4736842 38.5263158,31.4736842 C26.5494531,31.4736842 16.6629025,40.4233745 15.1894845,51.9999348 L13.4210526,52 L13.1355319,52.3696842 L13.1487022,52.2302092 C14.5271212,39.466923 25.2426623,29.6712733 38.1349806,29.4766367 L38.5263158,29.4736842 Z" id="Combined-Shape" fill="#2C3139" fill-rule="nonzero" mask="url(#mask-6)"></path>
                                    </g>
                                    <g id="Path-2-Copy-2-Clipped">
                                        <mask id="mask-8" fill="white">
                                            <use xlink:href="#path-7"></use>
                                        </mask>
                                        <g id="path-3"></g>
                                        <path d="M11.2744513,55.7143452 L12.7778034,52.9502727 C13.0081351,52.5267834 13.4516139,52.2631579 13.9336884,52.2631579 L16.5110478,52.2631579 L24.7343865,44.2294167 C24.8406712,44.1255825 24.9637757,44.0405008 25.0984765,43.9777818 L27.5150259,42.8525942 L29.0916343,40.5581605 C29.2703955,40.2980099 29.5367202,40.1107902 29.8420266,40.0306532 L32.945712,39.2159967 L37.4051109,36.111107 C37.7431512,35.8757439 38.1719038,35.8122637 38.5636413,35.9395773 L44.4753548,37.8608694 C44.6108249,37.9048968 44.7382469,37.9706298 44.8526464,38.0555021 L48.2921699,40.6072645 L58.1445023,42.2509693 C58.3071935,42.2781118 58.4633311,42.3356009 58.6047783,42.4204409 L62.9623021,45.0340823 C63.107607,45.1212361 63.2347111,45.2356343 63.3366312,45.3709916 L64.9411562,47.5019185 L85.9755942,58.926636 C86.3982254,59.1561854 86.6619427,59.5980342 86.6633697,60.0789791 L86.7359038,84.5224116 C86.7380541,85.2490989 86.1507057,85.8399433 85.4240184,85.8421053 C85.4220663,85.8421053 85.4220663,85.8421053 85.4201142,85.8421053 L-10.4520476,85.8421053 C-11.1787381,85.8421053 -11.7678371,85.2530062 -11.7678371,84.5263158 C-11.7678371,84.3805671 -11.7436216,84.2358311 -11.6961797,84.0980198 L-5.07096483,64.8528195 C-4.96288023,64.5388509 -4.74008484,64.277357 -4.44726433,64.1207851 L11.2744513,55.7143452 Z" id="Path-2-Copy-2" stroke="#2C3139" stroke-width="2" mask="url(#mask-8)"></path>
                                    </g>
                                    <g id="Rectangle-Clipped">
                                        <mask id="mask-10" fill="white">
                                            <use xlink:href="#path-9"></use>
                                        </mask>
                                        <g id="path-3"></g>
                                        <rect id="Rectangle" fill="#2C3139" mask="url(#mask-10)" x="11.9473684" y="54" width="29.5789474" height="2"></rect>
                                    </g>
                                    <g id="Rectangle-Copy-7-Clipped">
                                        <mask id="mask-12" fill="white">
                                            <use xlink:href="#path-11"></use>
                                        </mask>
                                        <g id="path-3"></g>
                                        <rect id="Rectangle-Copy-7" fill="#2C3139" mask="url(#mask-12)" x="11.9473684" y="58" width="29.5789474" height="2"></rect>
                                    </g>
                                    <g id="Rectangle-Copy-8-Clipped">
                                        <mask id="mask-14" fill="white">
                                            <use xlink:href="#path-13"></use>
                                        </mask>
                                        <g id="path-3"></g>
                                        <rect id="Rectangle-Copy-8" fill="#2C3139" mask="url(#mask-14)" x="12.9473684" y="62" width="27.5789474" height="2"></rect>
                                    </g>
                                    <g id="Rectangle-Copy-9-Clipped">
                                        <mask id="mask-16" fill="white">
                                            <use xlink:href="#path-15"></use>
                                        </mask>
                                        <g id="path-3"></g>
                                        <rect id="Rectangle-Copy-9" fill="#2C3139" mask="url(#mask-16)" x="4.94736842" y="66" width="34.5789474" height="2"></rect>
                                    </g>
                                    <g id="Rectangle-Copy-10-Clipped">
                                        <mask id="mask-18" fill="white">
                                            <use xlink:href="#path-17"></use>
                                        </mask>
                                        <g id="path-3"></g>
                                        <rect id="Rectangle-Copy-10" fill="#2C3139" mask="url(#mask-18)" x="1.94736842" y="70" width="34.5789474" height="2"></rect>
                                    </g>
                                    <g id="Rectangle-Copy-4-Clipped">
                                        <mask id="mask-20" fill="white">
                                            <use xlink:href="#path-19"></use>
                                        </mask>
                                        <g id="path-3"></g>
                                        <rect id="Rectangle-Copy-4" fill="#2C3139" mask="url(#mask-20)" x="17.9473684" y="50" width="21.5789474" height="2"></rect>
                                    </g>
                                    <g id="Rectangle-Copy-5-Clipped">
                                        <mask id="mask-22" fill="white">
                                            <use xlink:href="#path-21"></use>
                                        </mask>
                                        <g id="path-3"></g>
                                        <rect id="Rectangle-Copy-5" fill="#2C3139" mask="url(#mask-22)" x="21.9473684" y="46" width="15.5789474" height="2"></rect>
                                    </g>
                                    <g id="Rectangle-Copy-6-Clipped">
                                        <mask id="mask-24" fill="white">
                                            <use xlink:href="#path-23"></use>
                                        </mask>
                                        <g id="path-3"></g>
                                        <rect id="Rectangle-Copy-6" fill="#2C3139" mask="url(#mask-24)" x="26.9473684" y="42" width="8.57894737" height="2"></rect>
                                    </g>
                                    <g id="Rectangle-Copy-15-Clipped">
                                        <mask id="mask-26" fill="white">
                                            <use xlink:href="#path-25"></use>
                                        </mask>
                                        <g id="path-3"></g>
                                        <rect id="Rectangle-Copy-15" fill="#2C3139" mask="url(#mask-26)" x="61.6842105" y="54" width="3.84210526" height="2"></rect>
                                    </g>
                                    <g id="Rectangle-Copy-16-Clipped">
                                        <mask id="mask-28" fill="white">
                                            <use xlink:href="#path-27"></use>
                                        </mask>
                                        <g id="path-3"></g>
                                        <rect id="Rectangle-Copy-16" fill="#2C3139" mask="url(#mask-28)" x="61.6842105" y="58" width="3.84210526" height="2"></rect>
                                    </g>
                                    <g id="Rectangle-Copy-17-Clipped">
                                        <mask id="mask-30" fill="white">
                                            <use xlink:href="#path-29"></use>
                                        </mask>
                                        <g id="path-3"></g>
                                        <rect id="Rectangle-Copy-17" fill="#2C3139" mask="url(#mask-30)" x="62.6842105" y="62" width="3.84210526" height="2"></rect>
                                    </g>
                                    <g id="Rectangle-Copy-18-Clipped">
                                        <mask id="mask-32" fill="white">
                                            <use xlink:href="#path-31"></use>
                                        </mask>
                                        <g id="path-3"></g>
                                        <rect id="Rectangle-Copy-18" fill="#2C3139" mask="url(#mask-32)" x="63.6842105" y="66" width="3.84210526" height="2"></rect>
                                    </g>
                                    <g id="Rectangle-Copy-19-Clipped">
                                        <mask id="mask-34" fill="white">
                                            <use xlink:href="#path-33"></use>
                                        </mask>
                                        <g id="path-3"></g>
                                        <rect id="Rectangle-Copy-19" fill="#2C3139" mask="url(#mask-34)" x="63.6842105" y="70" width="5.84210526" height="2"></rect>
                                    </g>
                                    <g id="Rectangle-Copy-20-Clipped">
                                        <mask id="mask-36" fill="white">
                                            <use xlink:href="#path-35"></use>
                                        </mask>
                                        <g id="path-3"></g>
                                    </g>
                                    <g id="Rectangle-Copy-11-Clipped">
                                        <mask id="mask-38" fill="white">
                                            <use xlink:href="#path-37"></use>
                                        </mask>
                                        <g id="path-3"></g>
                                    </g>
                                    <g id="Rectangle-Clipped">
                                        <mask id="mask-40" fill="white">
                                            <use xlink:href="#path-39"></use>
                                        </mask>
                                        <g id="path-3"></g>
                                        <rect id="Rectangle" fill="#2C3139" mask="url(#mask-40)" transform="translate(46.315789, 43.000000) rotate(45.000000) translate(-46.315789, -43.000000) " x="45.3157893" y="39.3684214" width="2" height="7.26315789" rx="1"></rect>
                                    </g>
                                    <g id="Path-3-Copy-2-Clipped">
                                        <mask id="mask-42" fill="white">
                                            <use xlink:href="#path-41"></use>
                                        </mask>
                                        <g id="path-3"></g>
                                        <path d="M64.8365694,47.9456872 C64.89248,47.9456872 64.9386129,47.9894426 64.9415684,48.0452751 L65.6930433,62.2416191 C65.6948365,62.2754945 65.7020762,62.3088597 65.714484,62.3404318 L69.6014884,72.2310324 C69.6212195,72.2812388 69.6277603,72.3356626 69.6204873,72.3891145 L68.2639898,82.358366 C68.2426939,82.5148757 68.1090356,82.6315789 67.9510837,82.6315789 L57.8518054,82.6315789 C57.6773997,82.6315789 57.5360159,82.4901952 57.5360159,82.3157895 C57.5360159,82.2622402 57.5496332,82.2095704 57.5755877,82.1627314 L63.9554158,70.6493098 C63.9922455,70.5828447 64.0038743,70.5053283 63.9881687,70.430982 L60.9904664,56.2406135 C60.9764386,56.1742095 60.9841777,56.1050529 61.0125367,56.0433923 L64.6951714,48.0362912 C64.7205686,47.9810705 64.7757883,47.9456872 64.8365694,47.9456872 Z" id="Path-3-Copy-2" stroke="#2C3139" stroke-width="2" mask="url(#mask-42)"></path>
                                    </g>
                                    <g id="Path-4-Copy-2-Clipped">
                                        <mask id="mask-44" fill="white">
                                            <use xlink:href="#path-43"></use>
                                        </mask>
                                        <g id="path-3"></g>
                                        <path d="M32.6842105,39.3684211 L32.6842105,41.9022305 C32.6842105,42.0401565 32.7737239,42.1621261 32.9053023,42.2034868 L35.6153777,43.0553791 C35.7060359,43.0838768 35.77904,43.1516863 35.8141401,43.2399983 L37.1899649,46.7015877 C37.193561,46.7106354 37.1975736,46.719512 37.2019898,46.7281889 L41.5542383,55.2795011 C41.5880497,55.3459339 41.5972707,55.4221858 41.5802695,55.4947632 L40.2008254,61.383553 C40.1907498,61.4265653 40.1898109,61.4712131 40.1980693,61.5146109 L40.9669666,65.5551397 C40.9844772,65.647157 40.9602343,65.7421995 40.9007883,65.8145871 L35.8549273,71.958954 C35.7940794,72.0330488 35.7701888,72.1307748 35.7899898,72.2245854 L36.8385683,77.1924013 C36.8391262,77.1950447 36.8397181,77.1976808 36.8403437,77.200309 L37.4210526,79.6399054 L37.4210526,79.6399054" id="Path-4-Copy-2" stroke="#2C3139" stroke-width="2" mask="url(#mask-44)"></path>
                                    </g>
                                    <g id="Path-5-Copy-2-Clipped">
                                        <mask id="mask-46" fill="white">
                                            <use xlink:href="#path-45"></use>
                                        </mask>
                                        <g id="path-3"></g>
                                        <path d="M12.1507413,54.5165347 L13.3869239,63.44869 C13.4069404,63.593321 13.3251946,63.7328162 13.189232,63.7860417 L3.62686399,67.5294357 C3.5718797,67.5509605 3.52403172,67.58747 3.48875242,67.6348194 L-0.531759515,73.0308593 C-0.563092417,73.0729121 -0.604404977,73.1064996 -0.651967674,73.1285898 L-3.71149449,74.5495646 C-3.75316857,74.5689198 -3.79856452,74.5789474 -3.84451399,74.5789474 L-9.30820655,74.5789474 C-9.39392818,74.5789474 -9.47596663,74.613796 -9.53548152,74.6754902 L-13.3264377,78.6052632 C-13.3556752,78.6355713 -13.3548073,78.6838427 -13.3244991,78.7130802 C-13.2947735,78.7417558 -13.2476204,78.7415508 -13.2181453,78.7126177" id="Path-5-Copy-2" stroke="#2C3139" stroke-width="2" mask="url(#mask-46)"></path>
                                    </g>
                                </g>
                            </g>
                        </g>
                    </g>
                    <g id="Rectangle-Clipped">
                        <mask id="mask-48" fill="white">
                            <use xlink:href="#path-47"></use>
                        </mask>
                        <g id="path-1"></g>
                        <rect id="Rectangle" fill="#2C3139" fill-rule="nonzero" mask="url(#mask-48)" x="-12" y="76" width="100" height="5"></rect>
                    </g>
                    <g id="Rectangle-Copy-Clipped">
                        <mask id="mask-50" fill="white">
                            <use xlink:href="#path-49"></use>
                        </mask>
                        <g id="path-1"></g>
                        <rect id="Rectangle-Copy" fill="#F4BC24" fill-rule="nonzero" mask="url(#mask-50)" x="-12" y="84" width="100" height="5"></rect>
                    </g>
                    <g id="Combined-Shape-Clipped">
                        <mask id="mask-52" fill="white">
                            <use xlink:href="#path-51"></use>
                        </mask>
                        <g id="path-1"></g>
                        <path d="M23.368,99.9997051 L18.205,104.999705 L-7,105 L-7,100 L23.368,99.9997051 Z M83,100 L83,105 L57.193,104.999705 L52.03,99.9997051 L83,100 Z" id="Combined-Shape" fill="#4C882C" fill-rule="nonzero" mask="url(#mask-52)"></path>
                    </g>
                    <g id="Rectangle-Copy-3-Clipped">
                        <mask id="mask-54" fill="white">
                            <use xlink:href="#path-53"></use>
                        </mask>
                        <g id="path-1"></g>
                        <rect id="Rectangle-Copy-3" fill="#AC201D" fill-rule="nonzero" mask="url(#mask-54)" x="-12" y="92" width="100" height="5"></rect>
                    </g>
                </g>
                <path d="M54,0 C83.5251427,0 107.515903,23.6955087 107.992766,53.1070113 L108,54 L108,94 C108,120.320888 89.1685784,142.243462 64.2438035,147.029654 L68.5098776,141.862148 C88.7993001,135.719363 103.636938,117.028391 103.993435,94.8185889 L104,94 L104,54 L103.993301,53.1731586 C103.551762,25.9402858 81.3380951,4 54,4 C26.6619049,4 4.4482381,25.9402858 4.00669857,53.1731586 L4,54 L4,94 L4.00669857,94.8268414 C4.36136979,116.70193 18.7640115,135.162097 38.5863623,141.579081 L42.552757,146.784266 C18.5078967,141.594295 0.420658914,120.391806 0.00723445718,94.8929887 L0,94 L0,54 C0,24.1766235 24.1766235,0 54,0 Z" id="Combined-Shape" fill="#2C3139" fill-rule="nonzero"></path>
                <path d="M54,14 C76.09139,14 94,31.90861 94,54 L94,94 C94,108.771804 85.9927599,121.673416 74.0819274,128.60119 L71.3350254,125.55914 C82.2984187,119.524262 89.7787699,107.94269 89.995177,94.5953258 L90,94 L90,54 C90,34.117749 73.882251,18 54,18 C34.3165715,18 18.3227314,33.7970058 18.004823,53.4046742 L18,54 L18,94 C18,107.195339 25.0992818,118.732553 35.6866902,125.000485 L35.0686327,125 L32.8664494,127.967722 C21.5383158,120.904815 14,108.332741 14,94 L14,54 C14,31.90861 31.90861,14 54,14 Z" id="Combined-Shape" fill="#2C3139" fill-rule="nonzero"></path>
                <path d="M47.0324012,118 L60.9675988,118 C62.4056744,118 63.7873531,118.559416 64.8203492,119.559906 L74.0142943,128.46454 C76.1082866,130.492639 76.2714719,133.796849 74.387506,136.021408 L58.2259622,155.104721 C56.249367,157.438656 52.7549924,157.728337 50.4210579,155.751742 C50.1879053,155.554286 49.9714934,155.337874 49.7740378,155.104721 L33.612494,136.021408 C31.7285281,133.796849 31.8917134,130.492639 33.9857057,128.46454 L43.1796508,119.559906 C44.2126469,118.559416 45.5943256,118 47.0324012,118 Z" id="Rectangle-Copy-51" stroke="#2C3139" stroke-width="4"></path>
                <path d="M58.1336703,133.927003 C58.630567,134.537688 59.2182234,135.077999 59.8944154,135.546388 L60.1877955,135.742356 C60.8770776,136.185248 61.0768161,137.103057 60.633924,137.792339 C60.4093867,138.141791 60.0486278,138.3811 59.6393654,138.452078 C59.3452578,138.503085 59.058625,138.545853 58.7786679,138.580325 C59.3894345,139.328827 60.1132075,139.990531 60.9480751,140.564085 L61.2746383,140.780842 C62.0072956,141.250472 62.2205215,142.225119 61.7508917,142.957776 C61.5123469,143.329923 61.1284557,143.58476 60.6928868,143.660107 C59.6264924,143.844577 58.6445949,143.9375 57.7459144,143.9375 C57.3438903,143.9375 56.9419646,143.918905 56.5402297,143.88174 L56.5401516,145 C56.5401516,146.104569 55.6447211,147 54.5401516,147 L53.5062602,147 C52.4016907,147 51.5062602,146.104569 51.5062602,144.999955 L51.5063105,143.881728 C51.1045328,143.918901 50.7025644,143.9375 50.3004974,143.9375 C49.5172111,143.9375 48.6708447,143.86691 47.7502908,143.725065 L47.303706,143.651468 C46.4465351,143.501271 45.8734187,142.684639 46.0236148,141.827468 C46.0981329,141.402193 46.3438943,141.026124 46.7034735,140.787137 C47.6496381,140.158286 48.4851944,139.420923 49.2119941,138.57324 C49.0774478,138.55617 48.9408905,138.537179 48.8022419,138.51626 L48.3649546,138.444641 C47.5580172,138.302882 47.0187836,137.533812 47.1605425,136.726874 C47.2307355,136.327313 47.4615,135.97393 47.7991113,135.748997 C48.5786534,135.229628 49.2669744,134.620929 49.8659085,133.921087 C49.7422625,133.90581 49.6166538,133.88867 49.4889862,133.86966 L49.1143433,133.809062 C48.3321664,133.673415 47.8080507,132.929371 47.943698,132.147194 C48.0106705,131.761014 48.2324375,131.41893 48.5576445,131.200159 C49.4884583,130.573988 50.2665308,129.798467 50.8968038,128.868613 C51.0702161,128.612774 51.2368243,128.337204 51.3986676,128.041026 C51.7581302,127.383199 51.9068131,127.045744 52.4563505,125.717794 C52.6394011,125.275455 52.74602,125.035289 52.861058,124.824134 C53.1483688,124.29677 53.419149,124 54.0232059,124 C54.6092441,124 54.8836273,124.285453 55.1830347,124.795603 C55.3103162,125.012473 55.4382448,125.279812 55.6207287,125.694822 C55.6610655,125.786557 55.9979907,126.566349 56.1089793,126.816361 C56.3159988,127.28269 56.5027091,127.678443 56.6959437,128.052938 C56.8544031,128.360037 57.0130015,128.643923 57.1742634,128.906831 C57.6747412,129.722766 58.3317532,130.419461 59.1348617,130.98969 L59.4342425,131.193133 C60.1001162,131.625503 60.2894087,132.515805 59.8570392,133.181679 C59.6385167,133.518216 59.2892822,133.748104 58.8937682,133.815765 C58.6338377,133.860231 58.3804869,133.897327 58.1336703,133.927003 Z" id="Combined-Shape" stroke="#2C3139" stroke-width="2"></path>
            </g>
        </g>
    </g>
</svg>