<?xml version="1.0" encoding="UTF-8"?>
<svg width="40px" height="68px" viewBox="0 0 40 68" version="1.1" xmlns="http://www.w3.org/2000/svg" xmlns:xlink="http://www.w3.org/1999/xlink">
    <!-- Generator: Sketch 61.2 (89653) - https://sketch.com -->
    <title>Group 6 Copy 2</title>
    <desc>Created with Sketch.</desc>
    <defs>
        <path d="M17,0 C26.3888407,-1.72470207e-15 34,7.61115925 34,17 L34,33 L34,33 L0,33 L0,17 C-1.14980138e-15,7.61115925 7.61115925,1.72470207e-15 17,0 Z" id="path-1"></path>
    </defs>
    <g id="Page-1" stroke="none" stroke-width="1" fill="none" fill-rule="evenodd">
        <g id="Artboard" transform="translate(-636.000000, -900.000000)">
            <g id="Group-6-Copy-2" transform="translate(636.000000, 900.000000)">
                <path d="M13.815616,48.0837894 L10.834,50.9996218 L4,51 L4,48 L13.9066427,47.9976218 C13.8758828,48.0257976 13.8455355,48.0545222 13.815616,48.0837894 Z M36,48 L36,51 L29.165,50.9996218 L26.1843937,48.0837894 L26.092,47.9996218 L36,48 Z" id="Combined-Shape-Copy-7" fill="#789552"></path>
                <rect id="Rectangle-Copy-68" fill="#B45148" x="3" y="44" width="34" height="3"></rect>
                <rect id="Rectangle-Copy-67" fill="#E3B64E" x="2" y="40" width="36" height="3"></rect>
                <rect id="Rectangle-Copy-66" fill="#5A5655" x="1" y="36" width="38" height="3"></rect>
                <path d="M20,0 C31.045695,0 40,8.954305 40,20 L40,40 C40,46.5677467 36.8342357,52.3960895 31.9454158,56.0423197 C32.1320663,54.9418145 31.8380378,53.7804951 31.0798231,52.8938122 C34.6281774,49.8423022 36.9033191,45.3493842 36.9969921,40.3230397 L37,40 L37,20 C37,10.6111593 29.3888407,3 20,3 C10.719077,3 3.17520404,10.4371956 3.00300785,19.6769603 L3,20 L3,40 C3,45.156652 5.29595043,49.777056 8.92136635,52.8947271 C8.16197174,53.7804952 7.8679433,54.9418145 8.0543748,56.0423722 C3.16576431,52.3960895 0,46.5677467 0,40 L0,20 C0,8.954305 8.954305,0 20,0 Z" id="Rectangle" fill="#5A5655" fill-rule="nonzero"></path>
                <g id="Combined-Shape-+-Path-2-Copy-2-+-Rectangle-+-Path-3-+-Path-4-+-Line-+-Line-2-+-Line-3-+-Line-4-+-Line-5-+-Line-6-+-Line-7-+-Line-8-Mask-Copy" transform="translate(3.000000, 3.000000)">
                    <mask id="mask-2" fill="white">
                        <use xlink:href="#path-1"></use>
                    </mask>
                    <g id="Mask"></g>
                    <path d="M6.57601596,25.2026928 L7.20078566,24.0539874 C7.29650793,23.8779918 7.48081081,23.7684332 7.68115345,23.7684332 L8.75226385,23.7684332 L12.1697553,20.4297355 C12.2139255,20.3865837 12.2650858,20.351225 12.3210654,20.32516 L13.3253457,19.8575496 L13.9805595,18.9040187 C14.0548499,18.7959041 14.1655303,18.7180986 14.2924109,18.6847949 L15.5822542,18.3462363 L17.4355109,17.0558925 C17.5759951,16.9580793 17.754178,16.9316979 17.916978,16.9846075 L20.373794,17.7830665 C20.4300933,17.8013636 20.4830479,17.8286812 20.5305905,17.8639528 L21.9600029,18.9244255 L26.0544787,19.6075236 C26.1220906,19.6188036 26.186979,19.6426952 26.2457622,19.6779534 L28.0566812,20.764142 C28.1170677,20.8003618 28.1698902,20.8479039 28.2122466,20.9041563 L28.8790622,21.7897363 L37.6206468,26.5376708 C37.7962857,26.633068 37.9058825,26.8166935 37.9064756,27.0165667 L37.9366196,37.1748763 C37.9375132,37.4768762 37.6934204,37.7224219 37.3914205,37.7233204 C37.3906092,37.7233204 37.3906092,37.7233204 37.3897979,37.7233204 L-2.45317839,37.7233204 C-2.75517964,37.7233204 -3,37.4785 -3,37.1764988 C-3,37.1159279 -2.98993642,37.0557779 -2.9702203,36.9985057 L-0.216884251,29.0005003 C-0.171965976,28.8700199 -0.0793756842,28.7613471 0.0423159564,28.6962783 L6.57601596,25.2026928 Z" id="Path-2-Copy-2" stroke="#5A5655" mask="url(#mask-2)"></path>
                    <polyline id="Path-5" stroke="#5A5655" mask="url(#mask-2)" points="8.08705041 23.8127039 7.34945205 26.2086296 7.71825123 28.683353 3.3433877 30.4670156 1 34.5"></polyline>
                    <polyline id="Path-6" stroke="#5A5655" mask="url(#mask-2)" points="14.0087508 19.0550935 16.5 20.5655451 18.8433877 25.5 18 28 18.3433877 29.1563519 16.4260693 31.5 17.284606 34.5"></polyline>
                    <path d="M18,14 C22.7102966,14 26.7291082,16.9605991 28.2970985,21.1224611 L26.4055216,19.5804771 C24.6248179,16.8243449 21.5254583,15 18,15 C12.8791145,15 8.65724836,18.8491596 8.06982575,23.8120547 L7.34945205,23.8127039 L7.03740943,24.0862658 C7.5018183,18.4386334 12.23256,14 18,14 Z" id="Combined-Shape" fill="#5A5655" fill-rule="nonzero" mask="url(#mask-2)"></path>
                    <rect id="Rectangle" fill="#5A5655" mask="url(#mask-2)" x="3" y="31" width="14" height="1"></rect>
                    <rect id="Rectangle-Copy-71" fill="#5A5655" mask="url(#mask-2)" x="6" y="29" width="12" height="1"></rect>
                    <rect id="Rectangle-Copy-72" fill="#5A5655" mask="url(#mask-2)" x="8" y="27" width="10" height="1"></rect>
                    <rect id="Rectangle-Copy-73" fill="#5A5655" mask="url(#mask-2)" x="8" y="25" width="11" height="1"></rect>
                    <rect id="Rectangle-Copy-74" fill="#5A5655" mask="url(#mask-2)" x="9" y="23" width="9" height="1"></rect>
                    <rect id="Rectangle-Copy-75" fill="#5A5655" mask="url(#mask-2)" x="11" y="21" width="6" height="1"></rect>
                    <rect id="Rectangle-Copy-76" fill="#5A5655" mask="url(#mask-2)" x="26" y="25" width="3" height="1"></rect>
                    <rect id="Rectangle-Copy-77" fill="#5A5655" mask="url(#mask-2)" x="27" y="27" width="2" height="1"></rect>
                    <polygon id="Rectangle-Copy-78" fill="#5A5655" mask="url(#mask-2)" points="27 29 29 29 29.6225016 30 27 30"></polygon>
                    <polygon id="Rectangle-Copy-79" fill="#5A5655" mask="url(#mask-2)" points="27 31 30 31 31 32 26 32"></polygon>
                    <rect id="Rectangle" fill="#5A5655" mask="url(#mask-2)" transform="translate(21.223066, 19.918809) rotate(45.000000) translate(-21.223066, -19.918809) " x="20.7230655" y="18.4095817" width="1" height="3.01845523" rx="0.415584416"></rect>
                    <path d="M-0.330370259,20.6252524 L1.75308391,22.2925893 M3.63155528,23.7958835 L5.43502411,25.239155" id="Shape" stroke="#5A5655" stroke-linecap="round" mask="url(#mask-2)"></path>
                    <path d="M0.5,12.909052 L2.08899558,14.9825384 M3.52615545,16.8578938 L4.21716528,17.7595951 M5.63258596,19.606583 L7.46675721,22" id="Shape" stroke="#5A5655" stroke-linecap="round" mask="url(#mask-2)"></path>
                    <path d="M4,5.64515846 L7.50649128,13.2887274 M8.90615617,16.3397646 L9.68281075,18.0327427" id="Shape" stroke="#5A5655" stroke-linecap="round" mask="url(#mask-2)"></path>
                    <path d="M9.68281075,1.22116609 L10.7520528,5.531647 M11.2659578,7.53205785 L11.5966077,8.81913583 M12.0989717,10.7746228 L13.2749553,15.3522209" id="Shape" stroke="#5A5655" stroke-linecap="round" mask="url(#mask-2)"></path>
                    <path d="M17.8433877,4.75846938 C18.0888476,4.75846938 18.2929961,4.93534454 18.335332,5.16859375 L18.3433877,5.25846938 L18.3433877,14.3786253 C18.3433877,14.6547677 18.1195301,14.8786253 17.8433877,14.8786253 C17.5979278,14.8786253 17.3937793,14.7017501 17.3514434,14.4685009 L17.3433877,14.3786253 L17.3433877,5.25846938 C17.3433877,4.982327 17.5672453,4.75846938 17.8433877,4.75846938 Z M17.8433877,-0.882228387 C18.0888476,-0.882228387 18.2929961,-0.705353227 18.335332,-0.472104019 L18.3433877,-0.382228387 L18.3433877,2.88172421 C18.3433877,3.15786659 18.1195301,3.38172421 17.8433877,3.38172421 C17.5979278,3.38172421 17.3937793,3.20484905 17.3514434,2.97159984 L17.3433877,2.88172421 L17.3433877,-0.382228387 C17.3433877,-0.658370762 17.5672453,-0.882228387 17.8433877,-0.882228387 Z" id="Shape" fill="#5A5655" fill-rule="nonzero" mask="url(#mask-2)"></path>
                    <path d="M25.8232715,2.05825696 L23.8557526,8.70579435 M22.8368298,12.2703587 L22.0565679,15" id="Shape" stroke="#5A5655" stroke-linecap="round" mask="url(#mask-2)"></path>
                    <path d="M31.3453683,6.51104845 L30.2171745,8.9027834 M29.3130665,10.8059245 L27.6800088,14.2434995 M26.8525181,15.9853618 L26,17.7799064" id="Shape" stroke="#5A5655" stroke-linecap="round" mask="url(#mask-2)"></path>
                    <path d="M28.6907367,20.9999816 L30.2322176,18.6044808 M31.7685489,16.2169828 L34,12.7492507" id="Shape" stroke="#5A5655" stroke-linecap="round" mask="url(#mask-2)"></path>
                    <polyline id="Path-2" stroke="#5A5655" mask="url(#mask-2)" points="28.6907367 21.7610407 26.237217 25.4214017 27 30.3259408 25.5819151 34.3161797"></polyline>
                    <polyline id="Path-7" stroke="#5A5655" mask="url(#mask-2)" points="28.6907367 21.7610407 29.0000096 28.0795195 31.5603808 34.5"></polyline>
                </g>
                <path d="M23.5320584,48 C24.2610566,48 24.9614658,48.286412 25.4851186,48.7986468 L30.1457703,53.3576761 C31.2072698,54.3960302 31.2899927,56.0877325 30.334961,57.2266709 L22.142251,66.9970201 C21.1402631,68.1919573 19.368873,68.3402693 18.1857405,67.3282845 C18.0675493,67.2271902 17.9578444,67.1163907 17.857749,66.9970201 L9.66503896,57.2266709 C8.71000727,56.0877325 8.79273018,54.3960302 9.85422975,53.3576761 L14.5148814,48.7986468 C15.0385342,48.286412 15.7389434,48 16.4679416,48 L23.5320584,48 Z M20,51 C19.7997633,51.2611892 19.46643,51.7119852 19,52.3523879 C18.53357,52.9927907 17.8669033,53.5419948 17,54 C17.485,54.3233333 17.97,54.5682583 18.4576619,54.7329062 C17.8623567,55.4741834 17.043136,56.2298813 16,57 C16.6264138,57.3132069 17.2528277,57.5528399 17.8796125,57.7192537 C17.3208783,58.6108862 16.6943408,59.3711349 16,60 C17,60.5 18,60.8125 19,60.9375 L19,60.9375 L19,62 L21,62 L21,60.9375 C22,60.8125 23,60.5 24,60 C23.2440382,59.3333333 22.5773715,58.5 22,57.5 L22.1291291,57.7166756 C22.7527528,57.5507037 23.3763764,57.3118118 24,57 C22.9572502,56.2217578 22.1394956,55.4662107 21.548,54.733744 C22.032,54.567248 22.516,54.3226667 23,54 C22.1109116,53.5419948 21.4442449,52.9927907 21,52.3523879 C20.5557551,51.7119852 20.2224218,51.2611892 20,51 Z" id="Combined-Shape-Copy-5" fill="#5A5655"></path>
            </g>
        </g>
    </g>
</svg>