<?xml version="1.0" encoding="UTF-8"?>
<svg width="400px" height="200px" viewBox="0 0 400 200" version="1.1" xmlns="http://www.w3.org/2000/svg" xmlns:xlink="http://www.w3.org/1999/xlink">
    <!-- Generator: Sketch 64 (93537) - https://sketch.com -->
    <title>rotate</title>
    <desc>Created with Sketch.</desc>
    <defs>
        <rect id="path-1" x="0" y="0" width="400" height="200"></rect>
    </defs>
    <g id="Page-1" stroke="none" stroke-width="1" fill="none" fill-rule="evenodd">
        <g id="Artboard" transform="translate(-31.000000, -105.000000)">
            <g id="rotate" transform="translate(31.000000, 105.000000)">
                <mask id="mask-2" fill="white">
                    <use xlink:href="#path-1"></use>
                </mask>
                <use id="Rectangle" fill="#24619F" xlink:href="#path-1"></use>
                <path d="M361.742828,107.302169 C360.230251,106.166145 358.41303,105.682344 356.645346,105.822654 C354.877663,105.962963 353.159519,106.727382 351.845096,108.087798 L320.329945,140.705714 C319.578539,141.483412 318.729392,142.160316 317.803774,142.71947 L308.433497,148.379929 C306.723284,149.413046 305.568258,151.025902 305.077318,152.820435 C304.586379,154.614968 304.759526,156.591179 305.70566,158.351006 L315.481825,176.534861 C316.403737,178.249635 317.905104,179.469059 319.622809,180.066777 C321.340514,180.664495 323.274556,180.640507 325.06182,179.868458 L337.075314,174.678956 C339.383021,173.682089 341.937677,173.404176 344.405757,173.881498 L372.239995,179.264593 C372.526348,179.319973 372.815687,179.358602 373.106539,179.380285 C375.171876,179.534249 377.104094,178.836494 378.558469,177.583914 C380.012844,176.331334 380.989376,174.523929 381.143341,172.458592 L382.688323,151.73362 C382.71667,151.353354 382.715976,150.971481 382.686246,150.591321 L380.660635,124.689679 C380.492708,122.542384 379.409714,120.570924 377.687503,119.277454 L361.742828,107.302169 Z" id="Path-5-Copy" stroke="#1A2C3D" stroke-width="5" fill="#6DCB5E" mask="url(#mask-2)"></path>
                <path d="M88.9772145,8.5 C87.866666,8.5 86.7699769,8.74662696 85.7663477,9.22207005 L68.5913242,17.3582876 C67.3018173,17.9691577 65.9172385,18.3547332 64.4975983,18.4983025 L38.2047871,21.1573135 C36.19173,21.3608954 34.3463255,22.3691949 33.0875567,23.9532863 L22.3963774,37.4075474 C21.1189919,39.0150668 20.6067499,40.9867672 20.8118139,42.8808063 C21.0168779,44.7748454 21.9392479,46.5912232 23.5310865,47.8880972 L34.3953519,56.7392355 C37.0714402,58.9194499 38.6104769,61.9779626 38.935438,65.1604438 C39.2603992,68.342925 38.3712846,71.6493747 36.1910703,74.325463 C35.4596693,75.2232157 34.6070696,76.0149832 33.6577294,76.6780523 L15.7054208,89.2168868 C13.6967551,90.6198443 12.5,92.9154855 12.5,95.3655931 L12.5,104.738981 C12.5,106.810049 13.3394661,108.685049 14.6966991,110.042282 C16.0539322,111.399515 17.9289322,112.238981 20,112.238981 C20.9216995,112.238981 21.835504,112.069087 22.6956135,111.737815 L31.3545456,108.402811 C34.2061368,107.304516 37.2457525,107.31771 39.9603575,108.263626 C42.6749625,109.209542 45.0645567,111.088179 46.6161051,113.720768 L53.4128455,125.253133 C54.162299,126.524768 55.2498851,127.517437 56.5168913,128.15169 C57.7838975,128.785942 59.2303239,129.061779 60.6974579,128.89975 L70.5520516,127.811414 C72.6510059,127.579607 74.5549821,126.473677 75.7962654,124.765297 L91.514187,103.132709 C92.6886125,101.516346 93.1262737,99.5815087 92.8814697,97.7372613 C92.6366657,95.8930139 91.7093964,94.1393565 90.1539608,92.8853535 L80.5238045,85.1214547 C77.5804582,82.7485085 75.8692673,79.1708903 75.8692673,75.3901284 L75.8692673,57.6333202 C75.8692673,54.1815405 77.2683775,51.0565405 79.5304326,48.7944855 C81.7924877,46.5324304 84.9174877,45.1333202 88.3692673,45.1333202 L119.516529,45.1333202 C120.876666,45.1333202 122.183489,44.7650822 123.315798,44.0998151 C124.448107,43.434548 125.405902,42.4722517 126.067983,41.2841352 L133.389806,28.1449896 C134.280458,26.5466984 134.529376,24.7436962 134.198795,23.0540751 C133.868214,21.364454 132.958134,19.7882141 131.530792,18.6434475 L120.939906,10.1492729 C119.248019,8.79233474 116.843775,8.5 88.9772145,8.5 Z" id="Path-8" stroke="#1A2C3D" stroke-width="5" fill="#6DCB5E" mask="url(#mask-2)"></path>
                <path d="M178.484363,42.5 L148.698126,42.5 C146.467188,42.5 144.352051,43.4931789 142.927166,45.2097989 L132.300753,58.0118916 C129.925944,60.8729249 126.400717,62.5282231 122.682487,62.5282231 L118.689033,62.5282231 C116.979978,62.5282231 115.43272,63.2209542 114.312726,64.3409488 C113.192731,65.4609434 112.5,67.0082015 112.5,68.7172557 L112.5,78.7205602 C112.5,80.791628 113.339466,82.666628 114.696699,84.023861 C116.053932,85.3810941 117.928932,86.2205602 120,86.2205602 L131.841558,86.2205602 C135.293337,86.2205602 138.418337,87.6196703 140.680392,89.8817254 C142.942447,92.1437805 144.341558,95.2687805 144.341558,98.7205602 L144.341558,100.69732 C144.341558,102.768388 145.181024,104.643388 146.538257,106.000621 C147.89549,107.357854 149.77049,108.19732 151.841558,108.19732 L157.967905,108.19732 C159.094091,108.19732 160.205819,107.943701 161.220583,107.455285 C163.086743,106.557083 164.412166,104.987503 165.046498,103.175933 C165.680831,101.364363 165.624072,99.3108032 164.72587,97.4446427 L158.166276,83.8160208 C156.63575,80.6361045 156.520718,76.9573875 157.84958,73.6880597 L160.161407,68.000394 C161.11896,65.6445758 162.742459,63.6962839 164.762316,62.3369465 C166.782174,60.9776092 169.19839,60.2072263 171.741378,60.2072263 L183.136829,60.2072263 C183.953346,60.2072263 184.759257,60.0222783 185.494073,59.6662641 C186.837607,59.0153291 187.790105,57.8814432 188.243986,56.5744075 C188.697868,55.2673718 188.653131,53.7871864 188.002196,52.4436521 L185.233906,46.729883 C184.607234,45.4364269 183.638483,44.3789562 182.467083,43.6448494 C181.295683,42.9107427 179.921634,42.5 178.484363,42.5 Z" id="Path-9" stroke="#1A2C3D" stroke-width="5" fill="#6DCB5E" mask="url(#mask-2)"></path>
                <path d="M125.17193,114.903374 C124.631976,115.36099 124.159519,115.892734 123.768616,116.482783 L113.138418,132.528573 C110.823092,136.023451 106.909995,138.124972 102.717752,138.124972 L84.085033,138.124972 C82.0637903,138.124972 80.1281106,138.940797 78.7166372,140.387575 L71.8113447,147.465584 C69.4588891,149.87688 66.2327562,151.236589 62.8640184,151.236589 L55.7641391,151.236589 C52.5022873,151.236589 49.5492347,149.914462 47.4116451,147.776873 C45.2740555,145.639283 43.9519288,142.686231 43.9519288,139.424379 L43.9519288,137.33604 C43.9519288,135.71897 43.4336352,134.192962 42.5315471,132.944202 C41.6294589,131.695442 40.3435761,130.72393 38.8083977,130.215854 L33.6169342,128.497707 C31.8686735,127.91911 30.0513976,128.103911 28.5265374,128.870426 C27.0016772,129.636942 25.7692329,130.985172 25.1906354,132.733432 C24.9669346,133.409355 24.8529189,134.11674 24.8529189,134.828719 L24.8529189,151.262593 C24.8529189,154.263237 23.7735203,157.163756 21.8118677,159.434391 L17.0682492,164.925183 C15.7931841,166.401086 15.2370569,168.254087 15.3686715,170.056879 C15.5002861,171.85967 16.3196426,173.612253 17.795545,174.887318 C18.040616,175.09904 18.299959,175.293656 18.5717381,175.469788 L34.2366705,185.621748 C35.4514106,186.408984 36.8680099,186.827874 38.3155367,186.827874 L79.2306461,186.827874 C81.3017139,186.827874 83.1767139,185.988408 84.533947,184.631175 C85.89118,183.273942 86.7306461,181.398942 86.7306461,179.327874 L86.7306461,171.71436 C86.7306461,168.26258 88.1297562,165.13758 90.3918113,162.875525 C92.6538664,160.61347 95.7788664,159.21436 99.2306461,159.21436 C99.9050298,159.21436 100.578308,159.268935 101.243887,159.37755 L115.642915,161.727324 C118.041704,162.118782 120.481462,161.323535 122.1888,159.593672 L144.640881,136.845372 C146.00508,135.463176 146.728794,133.674562 146.797555,131.861115 C146.866316,130.047667 146.280124,128.209386 145.02451,126.727853 L135.742586,115.775857 C134.403548,114.195889 132.550867,113.308249 130.637955,113.150361 C128.725042,112.992473 126.751897,113.564336 125.17193,114.903374 Z" id="Path-2" stroke="#1A2C3D" stroke-width="5" fill="#6DCB5E" mask="url(#mask-2)"></path>
                <path d="M219.145754,137.594594 C217.364099,138.346485 216.055878,139.749354 215.381043,141.409663 C214.706209,143.069973 214.664761,144.987723 215.416653,146.769378 C215.73663,147.527583 216.187746,148.223454 216.749297,148.825053 L226.750599,159.539602 C229.105944,162.06292 230.215532,165.302047 230.105454,168.499182 C229.995377,171.696316 228.665634,174.851458 226.142316,177.206803 C224.533438,178.708581 222.55657,179.758951 220.411576,180.25172 L191.810863,186.822154 C189.123459,187.43953 186.307333,187.150981 183.800974,186.001436 L159.640263,174.920094 C158.079936,174.204448 156.376253,174.064228 154.793483,174.437167 C153.210712,174.810107 151.748854,175.696204 150.672178,177.033192 L135.907446,195.367642 C134.608454,196.980696 134.086257,198.967562 134.292071,200.875913 C134.497885,202.784264 135.43171,204.6141 137.044764,205.913092 C138.08532,206.751052 139.330826,207.295848 140.652489,207.491145 L192.871749,215.20738 C193.477597,215.296904 194.092129,215.311885 194.70162,215.251987 L252.834599,209.538963 C254.566581,209.368752 256.12621,208.613921 257.310554,207.470406 C258.494898,206.32689 259.303956,204.794691 259.534798,203.069742 L263.764741,171.461815 C264.07104,169.173019 263.305914,166.870725 261.690569,165.220553 L233.687433,136.613648 C232.584969,135.487414 231.157684,134.834064 228.998606,134.887288 C226.57766,134.946966 223.426696,135.787956 219.145754,137.594594 Z" id="Path-10" stroke="#1A2C3D" stroke-width="5" fill="#6DCB5E" mask="url(#mask-2)"></path>
                <path d="M200.986097,-16.5229619 C198.953182,-16.1272624 197.273112,-14.945022 196.200195,-13.3534778 C195.127279,-11.7619336 194.661516,-9.7610855 195.057215,-7.72817041 C195.269313,-6.63851543 195.720656,-5.60953122 196.378675,-4.71547076 L205.981308,8.33177172 C207.561613,10.4789551 208.414013,13.0751576 208.414013,15.7411956 L208.414013,32.6480533 C208.414013,34.7191211 209.253479,36.5941211 210.610712,37.9513542 C211.967945,39.3085872 213.842945,40.1480533 215.914013,40.1480533 C216.604281,40.1480533 217.291245,40.0527615 217.95545,39.8648763 L241.943113,33.0794371 C243.258302,32.7074068 244.420205,31.9923278 245.330466,31.0373826 C246.240728,30.0824373 246.899349,28.8876259 247.207974,27.5561306 L253.255292,1.4663267 C253.80154,-0.890336553 253.177512,-3.36578235 251.579368,-5.18187249 L238.501526,-20.0431978 C236.282728,-22.564583 231.910868,-22.5423557 200.986097,-16.5229619 Z" id="Path-11" stroke="#1A2C3D" stroke-width="5" fill="#6DCB5E" mask="url(#mask-2)"></path>
                <path d="M314.355394,1.79043367 C312.941934,0.376973807 311.098355,-0.357902293 309.237722,-0.403967926 C307.377088,-0.450033559 305.499402,0.192711276 304.017728,1.53449328 L287.276709,16.694909 C285.706698,18.1166874 284.811074,20.1360406 284.811074,22.2541502 L284.811074,35.6947599 C284.811074,39.0099661 283.494114,42.18939 281.149909,44.5335947 L264.572774,61.1107295 C262.22857,63.4549342 259.049146,64.7718947 255.73394,64.7718947 L226.782622,64.7718947 C225.426132,64.7718947 224.122515,65.1381784 222.99214,65.8002454 C221.861765,66.4623124 220.904633,67.4201627 220.24111,68.6032959 L214.798535,78.3080021 C214.174492,79.4207384 213.84676,80.6751276 213.84676,81.9509064 C213.84676,84.0074686 214.680347,85.8693362 216.028074,87.2170633 C217.375801,88.5647904 219.237669,89.398377 221.294231,89.398377 L237.507781,89.398377 C240.644841,89.398377 243.484917,90.669922 245.540727,92.7257322 C247.596537,94.7815423 248.868082,97.6216177 248.868082,100.758678 L248.868082,103.226185 C248.868082,104.687811 249.292704,106.082844 250.04898,107.265857 C250.805256,108.44887 251.893186,109.419864 253.219802,110.033412 L263.591652,114.830297 C265.091705,115.524058 266.730423,115.6859 268.268752,115.365597 C269.807081,115.045295 271.24502,114.242848 272.343516,113.008032 L280.911249,103.377062 C283.283251,100.7107 286.68182,99.1853321 290.250556,99.1853321 L310.508804,99.1853321 C312.579872,99.1853321 314.454872,98.345866 315.812105,96.988633 C317.169338,95.6313999 318.008804,93.7563999 318.008804,91.6853321 L318.008804,85.5827787 C318.008804,82.1309991 319.407915,79.0059991 321.66997,76.743944 C323.932025,74.4818889 327.057025,73.0827787 330.508804,73.0827787 L356.095605,73.0827787 C357.129975,73.0827787 358.153164,72.8688183 359.100863,72.454345 L384.626454,61.2908067 C384.805506,61.2124988 384.981141,61.1266001 385.152883,61.0333441 C386.823062,60.1264332 387.967527,58.6284057 388.46772,56.9395611 C388.967912,55.2507164 388.823833,53.3710547 387.916922,51.7008756 L385.880051,47.949747 C385.223993,46.7415426 384.26366,45.7612744 383.123633,45.0830572 C381.983606,44.4048401 380.663885,44.0286741 379.289051,44.0286741 L367.872011,44.0286741 C364.420232,44.0286741 361.295232,42.6295639 359.033177,40.3675089 C356.771122,38.1054538 355.372011,34.9804538 355.372011,31.5286741 L355.372011,25.8304308 C355.372011,23.759363 354.532545,21.884363 353.175312,20.52713 C351.818079,19.1698969 349.943079,18.3304308 347.872011,18.3304308 L336.073061,18.3304308 C332.757855,18.3304308 329.578431,17.0134703 327.234226,14.6692656 L314.355394,1.79043367 Z" id="Path" stroke="#1A2C3D" stroke-width="5" fill="#6DCB5E" mask="url(#mask-2)"></path>
            </g>
        </g>
    </g>
</svg>